<?xml version="1.0" encoding="utf-8"?>
<!-- Generator: Adobe Illustrator 27.4.0, SVG Export Plug-In . SVG Version: 6.00 Build 0)  -->
<svg version="1.1" id="레이어_1" xmlns="http://www.w3.org/2000/svg" xmlns:xlink="http://www.w3.org/1999/xlink" x="0px"
	 y="0px" viewBox="0 0 476.2 70.97" style="enable-background:new 0 0 476.2 70.97;" xml:space="preserve">
<style type="text/css">
	.st0{fill:#FFFFFF;}
</style>
<g>
	<g>
		<path class="st0" d="M27.62,25.1c-2.59,0-4.98,0.43-7.17,1.28c-2.19,0.85-4.06,2.1-5.63,3.73c-1.57,1.63-2.79,3.64-3.67,6.04
			c-0.88,2.4-1.32,5.13-1.32,8.22c0,3.06,0.4,5.74,1.2,8.06c0.8,2.32,1.95,4.25,3.46,5.81c1.5,1.55,3.33,2.73,5.5,3.52
			c2.16,0.79,4.62,1.18,7.36,1.18c1.97,0,3.97-0.16,6.02-0.47c2.04-0.31,3.96-0.76,5.75-1.36v8.2c-1.81,0.52-3.77,0.93-5.86,1.22
			c-2.1,0.3-4.27,0.45-6.53,0.45c-4.4,0-8.27-0.63-11.61-1.88c-3.34-1.26-6.13-3.03-8.37-5.32c-2.24-2.29-3.92-5.04-5.05-8.23
			C0.56,52.34,0,48.81,0,44.95c0-3.96,0.6-7.64,1.81-11.03c1.21-3.39,2.94-6.33,5.2-8.82c2.27-2.49,5.1-4.44,8.51-5.86
			c3.4-1.42,7.26-2.15,11.55-2.18c2.2,0,4.28,0.15,6.25,0.45c1.97,0.3,3.74,0.72,5.32,1.26v8.08c-2.07-0.65-4-1.1-5.79-1.36
			C31.07,25.23,29.32,25.1,27.62,25.1z"/>
		<path class="st0" d="M48.82,70V18.03h9.52V70H48.82z"/>
		<path class="st0" d="M97.84,42.19c3.73,5.31,6.76,10.02,9.09,14.14h0.23c-0.31-6.76-0.47-11.68-0.47-14.76V18.03h9.52V70h-9.98
			L89.29,46.08c-2.98-4.14-6.06-8.95-9.24-14.41h-0.23c0.31,6.37,0.47,11.3,0.47,14.8V70h-9.52V18.03h9.98L97.84,42.19z"/>
		<path class="st0" d="M138.16,62.04h25.56V70h-35.07V18.03h33.67V26h-24.16v13.44h20.74v7.96h-20.74V62.04z"/>
	</g>
	<g>
		<path class="st0" d="M267.35,51.29h-1.85c-0.48-3.27-1.26-5.37-2.33-6.31c-1.07-0.94-3.24-1.41-6.51-1.41h-11.65v16.71
			c0,3.27,0.44,5.38,1.33,6.35c0.88,0.96,2.88,1.53,5.98,1.69v1.53h-22.49v-1.53c3.05-0.21,4.98-0.79,5.78-1.73
			c0.8-0.94,1.2-3.06,1.2-6.39V25.43c0-2.84-0.43-4.7-1.28-5.58c-0.86-0.88-2.76-1.43-5.7-1.65v-1.53h42.65l0.24,11.49h-2.01
			c-0.7-3.59-1.77-5.89-3.21-6.91c-1.45-1.02-4.45-1.53-9-1.53h-10.92c-1.07,0-1.77,0.17-2.09,0.52c-0.32,0.35-0.48,1.08-0.48,2.21
			v17.83h11.65c3.21,0,5.37-0.47,6.47-1.41c1.1-0.94,1.89-3.01,2.37-6.23h1.85V51.29z"/>
		<path class="st0" d="M300.45,70.97c-7.23,0-13.33-2.56-18.31-7.67c-4.98-5.11-7.47-11.79-7.47-20.04c0-8.09,2.46-14.73,7.39-19.92
			c4.93-5.19,11.22-7.79,18.88-7.79c7.71,0,14.02,2.58,18.92,7.75c4.9,5.17,7.35,11.93,7.35,20.28c0,8.09-2.48,14.67-7.43,19.76
			C314.81,68.43,308.37,70.97,300.45,70.97z M318.04,43.5c0-3.86-0.38-7.28-1.12-10.28c-0.75-3-1.7-5.41-2.85-7.23
			c-1.15-1.82-2.5-3.32-4.06-4.5c-1.55-1.18-3.07-1.98-4.54-2.41c-1.47-0.43-2.99-0.64-4.54-0.64c-2.62,0-4.98,0.56-7.07,1.69
			c-2.09,1.12-3.74,2.53-4.94,4.22c-1.2,1.69-2.21,3.68-3.01,5.98c-0.8,2.3-1.35,4.51-1.65,6.63c-0.29,2.12-0.44,4.27-0.44,6.47
			c0,2.73,0.27,5.41,0.8,8.03c0.53,2.62,1.39,5.25,2.57,7.87c1.18,2.62,2.93,4.74,5.26,6.35c2.33,1.61,5.1,2.41,8.31,2.41
			c3.27,0,6.09-0.8,8.47-2.41c2.38-1.61,4.18-3.72,5.38-6.35c1.2-2.62,2.07-5.25,2.61-7.87C317.77,48.83,318.04,46.18,318.04,43.5z"
			/>
		<path class="st0" d="M351.05,16.67c2.3,0,4.5,0.19,6.59,0.56c2.09,0.38,4.24,1.03,6.47,1.97c2.22,0.94,4,2.4,5.34,4.38
			c1.34,1.98,2.01,4.39,2.01,7.23c0,7.12-4.71,11.57-14.14,13.33c-0.16,0.05-0.29,0.08-0.4,0.08l16.55,20.32
			c1.12,1.34,2.18,2.28,3.17,2.81c0.99,0.54,2.26,0.86,3.82,0.96v1.53h-12.93L348.4,45.11l-4.5,0.16v15.82
			c0,2.89,0.43,4.77,1.28,5.62c0.86,0.86,2.84,1.39,5.94,1.61v1.53h-22.25v-1.53c3-0.21,4.89-0.79,5.66-1.73
			c0.78-0.94,1.16-3.06,1.16-6.39V25.43c0-2.84-0.39-4.67-1.16-5.5c-0.78-0.83-2.66-1.41-5.66-1.73v-1.53H351.05z M343.9,42.3
			c6.48-0.11,11.23-0.96,14.26-2.57c3.03-1.61,4.54-4.63,4.54-9.08c0-3.75-1.19-6.52-3.57-8.31c-2.38-1.79-6.09-2.69-11.12-2.69
			c-1.61,0-2.69,0.2-3.25,0.6c-0.56,0.4-0.84,1.17-0.84,2.29V42.3z"/>
		<path class="st0" d="M397.24,63.42c0,1.55,0.44,2.52,1.33,2.89c0.88,0.38,3.25,0.56,7.11,0.56h2.17c5.73,0,9.83-0.68,12.29-2.05
			c2.46-1.37,4.69-4.22,6.67-8.55h2.25l-3.61,13.58h-43.38v-1.53c2.94-0.21,4.85-0.76,5.7-1.65c0.86-0.88,1.28-2.74,1.28-5.58V25.43
			c0-2.84-0.43-4.7-1.28-5.58c-0.86-0.88-2.76-1.43-5.7-1.65v-1.53h42.65l0.24,11.49h-2.01c-0.7-3.59-1.77-5.89-3.21-6.91
			c-1.45-1.02-4.45-1.53-9-1.53h-10.84c-1.07,0-1.78,0.17-2.13,0.52c-0.35,0.35-0.52,1.08-0.52,2.21v17.83h12.37
			c3.43,0,5.64-0.52,6.63-1.57c0.99-1.04,1.73-3.06,2.21-6.06h1.85v18.64h-1.85c-0.54-3.32-1.31-5.43-2.33-6.35
			c-1.02-0.91-3.19-1.37-6.51-1.37h-12.37V63.42z"/>
		<path class="st0" d="M448.97,20.05h-4.34c-4.5,0-7.51,0.62-9.04,1.85c-1.53,1.23-2.77,4.04-3.74,8.43h-1.93l0.48-13.66h45.3
			l0.48,13.66h-1.93c-0.91-4.44-2.13-7.27-3.66-8.47c-1.53-1.21-4.57-1.81-9.12-1.81h-4.34v41.05c0,2.95,0.45,4.85,1.37,5.7
			c0.91,0.86,3.03,1.37,6.35,1.53v1.53h-23.45v-1.53c3.32-0.21,5.41-0.76,6.27-1.65c0.86-0.88,1.28-3.04,1.28-6.47V20.05z"/>
	</g>
	<g>
		<path class="st0" d="M201.9,30.7c1.56,1.39,2.34,3.18,2.34,5.35c0,2.17-0.72,4.06-2.15,5.66c-1.43,1.6-3.89,3.22-7.38,4.86
			c2.46,4.8,5.16,9.02,8.12,12.67c3.73-4.96,5.6-8.69,5.6-11.19c0-0.94-0.28-1.6-0.83-1.97c-0.55-0.37-1.59-0.63-3.1-0.8v-1.29
			h13.28v1.29c-1.56,0.21-2.73,0.54-3.5,1.01c-0.78,0.47-1.54,1.34-2.27,2.61c-2.58,4.59-5.16,8.61-7.75,12.05
			c2.83,3.77,5.98,5.66,9.47,5.66c1.11,0,2.06-0.24,2.86-0.71c0.8-0.47,1.69-1.32,2.67-2.55l0.92,0.68c-0.9,2.17-2.18,3.87-3.84,5.1
			c-1.66,1.23-3.47,1.84-5.44,1.84c-3.36,0-6.85-1.86-10.45-5.6c-2.3,2.01-4.46,3.44-6.49,4.3c-2.03,0.86-4.29,1.29-6.79,1.29
			c-3.28,0-5.85-0.83-7.72-2.49c-1.87-1.66-2.8-3.94-2.8-6.86c0-1.84,0.34-3.54,1.01-5.07c0.68-1.54,1.69-2.91,3.04-4.12
			c1.35-1.21,2.57-2.17,3.66-2.89c1.09-0.72,2.51-1.57,4.27-2.55c-1.44-3.98-2.15-6.95-2.15-8.91c0-2.62,0.92-4.86,2.77-6.7
			c1.84-1.84,4.08-2.77,6.7-2.77C198.36,28.61,200.34,29.31,201.9,30.7z M189.54,49.08c-2.67,1.72-4.54,3.33-5.63,4.83
			c-1.09,1.5-1.63,3.23-1.63,5.2c0,2.38,0.78,4.42,2.34,6.12c1.56,1.7,3.42,2.55,5.59,2.55c2.42,0,5.31-1.33,8.67-4
			C195.86,60.05,192.74,55.15,189.54,49.08z M193.79,44.6c2.5-1.35,4.32-2.73,5.47-4.12c1.15-1.39,1.72-2.95,1.72-4.67
			c0-1.52-0.46-2.77-1.38-3.75c-0.92-0.98-2.1-1.48-3.54-1.48c-1.39,0-2.53,0.47-3.41,1.41c-0.88,0.94-1.32,2.15-1.32,3.63
			C191.33,38.16,192.15,41.15,193.79,44.6z"/>
	</g>
	<path class="st0" d="M416.02,9.43l-8.7-8.7c-0.98-0.98-2.56-0.98-3.54,0l-8.7,8.7c-0.98,0.98-0.98,2.56,0,3.54
		c0.49,0.49,1.13,0.73,1.77,0.73s1.28-0.24,1.77-0.73l6.93-6.93l6.93,6.93c0.49,0.49,1.13,0.73,1.77,0.73s1.28-0.24,1.77-0.73
		C417,11.99,417,10.41,416.02,9.43z"/>
</g>
</svg>
