<?xml version="1.0" encoding="utf-8"?>
<!-- Generator: Adobe Illustrator 27.4.0, SVG Export Plug-In . SVG Version: 6.00 Build 0)  -->
<svg version="1.1" id="레이어_1" xmlns="http://www.w3.org/2000/svg" xmlns:xlink="http://www.w3.org/1999/xlink" x="0px"
	 y="0px" viewBox="0 0 508.06 53.91" style="enable-background:new 0 0 508.06 53.91;" xml:space="preserve">
<style type="text/css">
	.st0{fill:#FFFFFF;}
</style>
<g>
	<g>
		<path class="st0" d="M27.62,8.04c-2.59,0-4.98,0.43-7.17,1.28c-2.19,0.85-4.06,2.1-5.63,3.73c-1.57,1.63-2.79,3.64-3.67,6.04
			c-0.88,2.4-1.32,5.13-1.32,8.22c0,3.06,0.4,5.74,1.2,8.06c0.8,2.32,1.95,4.25,3.46,5.81c1.5,1.55,3.33,2.73,5.5,3.52
			c2.16,0.79,4.62,1.18,7.36,1.18c1.97,0,3.97-0.16,6.02-0.47c2.04-0.31,3.96-0.76,5.75-1.36v8.2c-1.81,0.52-3.77,0.93-5.86,1.22
			c-2.1,0.3-4.27,0.45-6.53,0.45c-4.4,0-8.27-0.63-11.61-1.88c-3.34-1.26-6.13-3.03-8.37-5.32c-2.24-2.29-3.92-5.04-5.05-8.23
			C0.56,35.27,0,31.75,0,27.89c0-3.96,0.6-7.64,1.81-11.03c1.21-3.39,2.94-6.33,5.2-8.82c2.27-2.49,5.1-4.44,8.51-5.86
			c3.4-1.42,7.26-2.15,11.55-2.18c2.2,0,4.28,0.15,6.25,0.45c1.97,0.3,3.74,0.72,5.32,1.26v8.08c-2.07-0.65-4-1.1-5.79-1.36
			C31.07,8.17,29.32,8.04,27.62,8.04z"/>
		<path class="st0" d="M48.82,52.94V0.97h9.52v51.97H48.82z"/>
		<path class="st0" d="M97.84,25.13c3.73,5.31,6.76,10.02,9.09,14.14h0.23c-0.31-6.76-0.47-11.68-0.47-14.76V0.97h9.52v51.97h-9.98
			L89.29,29.01c-2.98-4.14-6.06-8.95-9.24-14.41h-0.23c0.31,6.37,0.47,11.3,0.47,14.8v23.54h-9.52V0.97h9.98L97.84,25.13z"/>
		<path class="st0" d="M138.16,44.98h25.56v7.96h-35.07V0.97h33.67v7.96h-24.16v13.44h20.74v7.96h-20.74V44.98z"/>
	</g>
	<g>
		<path class="st0" d="M202.97,7.86c1.56,1.39,2.34,3.18,2.34,5.35c0,2.17-0.72,4.06-2.15,5.66c-1.43,1.6-3.89,3.22-7.38,4.86
			c2.46,4.8,5.16,9.02,8.12,12.67c3.73-4.96,5.6-8.69,5.6-11.19c0-0.94-0.28-1.6-0.83-1.97c-0.55-0.37-1.59-0.63-3.1-0.8v-1.29
			h13.28v1.29c-1.56,0.21-2.73,0.54-3.5,1.01c-0.78,0.47-1.54,1.34-2.27,2.61c-2.58,4.59-5.16,8.61-7.75,12.05
			c2.83,3.77,5.98,5.66,9.47,5.66c1.11,0,2.06-0.24,2.86-0.71c0.8-0.47,1.69-1.32,2.67-2.55l0.92,0.68c-0.9,2.17-2.18,3.87-3.84,5.1
			c-1.66,1.23-3.47,1.84-5.44,1.84c-3.36,0-6.85-1.86-10.45-5.6c-2.3,2.01-4.46,3.44-6.49,4.3c-2.03,0.86-4.29,1.29-6.79,1.29
			c-3.28,0-5.85-0.83-7.72-2.49c-1.87-1.66-2.8-3.94-2.8-6.86c0-1.84,0.34-3.54,1.01-5.07c0.68-1.54,1.69-2.91,3.04-4.12
			c1.35-1.21,2.57-2.17,3.66-2.89c1.09-0.72,2.51-1.57,4.27-2.55c-1.44-3.98-2.15-6.95-2.15-8.91c0-2.62,0.92-4.86,2.77-6.7
			s4.08-2.77,6.7-2.77C199.43,5.77,201.42,6.47,202.97,7.86z M190.62,26.25c-2.67,1.72-4.54,3.33-5.63,4.83
			c-1.09,1.5-1.63,3.23-1.63,5.2c0,2.38,0.78,4.42,2.34,6.12c1.56,1.7,3.42,2.55,5.59,2.55c2.42,0,5.31-1.33,8.67-4
			C196.93,37.21,193.81,32.32,190.62,26.25z M194.86,21.76c2.5-1.35,4.32-2.73,5.47-4.12c1.15-1.39,1.72-2.95,1.72-4.67
			c0-1.52-0.46-2.77-1.38-3.75c-0.92-0.98-2.1-1.48-3.54-1.48c-1.39,0-2.53,0.47-3.41,1.41c-0.88,0.94-1.32,2.15-1.32,3.63
			C192.4,15.33,193.22,18.32,194.86,21.76z"/>
	</g>
	<g>
		<path class="st0" d="M239.01,37.98h15.85v3.42h-19.63V12.55h3.78V37.98z"/>
		<path class="st0" d="M262.88,41.4h-3.78V12.55h3.78V41.4z"/>
		<path class="st0" d="M295.33,12.55L283.12,41.4h-4.1l-12.21-28.84h4.14l10.19,24.38l10.19-24.38H295.33z"/>
		<path class="st0" d="M302.99,41.4h-3.78V12.55h3.78V41.4z"/>
		<path class="st0" d="M312.72,12.55l17.46,22.47V12.37H334v28.84h-3.57l-17.46-22.47V41.4h-3.78V12.55H312.72z"/>
		<path class="st0" d="M338.82,26.96c0-8.71,6.3-15.09,15.12-15.09c7.35,0,12.86,4.29,14.37,9.79h-4.11
			c-1.19-3.64-5.26-6.34-10.19-6.34c-6.66,0-11.42,4.86-11.42,11.63c0,6.81,4.75,11.7,11.49,11.7c5.91,0,10.3-3.89,10.73-9.11
			h-11.49v-3.28h15.52v1.3c0,8.5-6.48,14.48-14.91,14.48C345.12,42.04,338.82,35.67,338.82,26.96z"/>
		<path class="st0" d="M402.74,41.4l-6.55-10.26c-0.54,0.04-1.08,0.07-1.62,0.07h-7.02V41.4h-3.78V12.55h10.8
			c7.27,0,11.56,3.64,11.56,9.33c0,4.07-2.2,7.09-6.16,8.5l7.24,11.02H402.74z M402.34,21.88c0-3.89-3.06-5.94-8.07-5.94h-6.73
			v11.88h6.73C399.28,27.82,402.34,25.77,402.34,21.88z"/>
		<path class="st0" d="M409.65,26.96c0-8.71,6.45-15.09,15.2-15.09s15.23,6.37,15.23,15.09s-6.45,15.09-15.2,15.09
			C416.13,42.04,409.65,35.67,409.65,26.96z M436.3,26.96c0-6.81-4.86-11.63-11.45-11.63s-11.42,4.83-11.42,11.63
			c0,6.77,4.86,11.63,11.45,11.63C431.44,38.59,436.3,33.73,436.3,26.96z"/>
		<path class="st0" d="M443.79,26.96c0-8.71,6.45-15.09,15.2-15.09c8.75,0,15.23,6.37,15.23,15.09s-6.45,15.09-15.2,15.09
			C450.27,42.04,443.79,35.67,443.79,26.96z M470.43,26.96c0-6.81-4.86-11.63-11.45-11.63s-11.42,4.83-11.42,11.63
			c0,6.77,4.86,11.63,11.45,11.63C465.57,38.59,470.43,33.73,470.43,26.96z"/>
		<path class="st0" d="M482.49,12.55l11.13,19.59l11.13-19.59h3.31V41.4h-3.78V20.11l-9.29,16.42h-2.74l-9.29-16.42V41.4h-3.78
			V12.55H482.49z"/>
	</g>
</g>
</svg>
