<?xml version="1.0" encoding="utf-8"?>
<!-- Generator: Adobe Illustrator 27.4.0, SVG Export Plug-In . SVG Version: 6.00 Build 0)  -->
<svg version="1.1" id="레이어_1" xmlns="http://www.w3.org/2000/svg" xmlns:xlink="http://www.w3.org/1999/xlink" x="0px"
	 y="0px" viewBox="0 0 408.61 70.69" style="enable-background:new 0 0 408.61 70.69;" xml:space="preserve">
<style type="text/css">
	.st0{fill:#FFFFFF;}
</style>
<g>
	<g>
		<path class="st0" d="M6.04,24.28c0,1.38,0.28,2.52,0.84,3.42c0.56,0.9,1.31,1.65,2.26,2.23c0.95,0.59,2.04,1.07,3.29,1.44
			c1.25,0.38,2.55,0.73,3.9,1.05c1.82,0.44,3.61,0.94,5.37,1.47c1.76,0.54,3.33,1.28,4.71,2.23c1.38,0.95,2.49,2.18,3.34,3.7
			c0.85,1.52,1.28,3.48,1.28,5.86c0,2.43-0.46,4.54-1.38,6.3c-0.92,1.77-2.2,3.22-3.83,4.35c-1.63,1.14-3.55,1.98-5.78,2.53
			c-2.22,0.55-4.66,0.83-7.3,0.83c-1.22,0-2.46-0.08-3.74-0.23s-2.49-0.36-3.65-0.61c-1.16-0.26-2.21-0.55-3.14-0.88
			C1.28,57.66,0.54,57.33,0,57v-5.23c0.84,0.42,1.79,0.81,2.84,1.16s2.14,0.65,3.26,0.9c1.12,0.24,2.26,0.44,3.41,0.58
			c1.15,0.14,2.22,0.21,3.23,0.21c1.64,0,3.2-0.14,4.69-0.42c1.49-0.28,2.79-0.75,3.91-1.4c1.12-0.65,2.01-1.55,2.67-2.69
			c0.65-1.14,0.98-2.56,0.98-4.27c0-1.4-0.29-2.56-0.86-3.47c-0.57-0.91-1.34-1.67-2.3-2.26c-0.96-0.6-2.07-1.08-3.32-1.46
			c-1.25-0.38-2.57-0.72-3.95-1.05c-1.83-0.42-3.61-0.9-5.35-1.42c-1.74-0.53-3.3-1.26-4.67-2.19s-2.47-2.14-3.3-3.62
			C0.41,28.88,0,27,0,24.7c0-2.39,0.44-4.44,1.31-6.16c0.87-1.72,2.05-3.14,3.55-4.27c1.49-1.12,3.21-1.95,5.15-2.49
			c1.94-0.54,4.01-0.81,6.21-0.81c2.5,0,4.84,0.24,7,0.72c2.16,0.48,4.15,1.11,5.95,1.88v5.3c-1.94-0.82-3.95-1.49-6.02-2
			c-2.07-0.51-4.29-0.78-6.65-0.81c-1.78,0-3.32,0.19-4.63,0.58c-1.31,0.39-2.4,0.94-3.27,1.65c-0.87,0.71-1.51,1.58-1.93,2.6
			C6.25,21.91,6.04,23.04,6.04,24.28z"/>
		<path class="st0" d="M75.76,54.17c1.71,0,3.22-0.2,4.55-0.6c1.32-0.4,2.48-0.96,3.46-1.68c0.98-0.72,1.8-1.6,2.46-2.62
			c0.65-1.02,1.16-2.15,1.51-3.39c0.23-0.77,0.4-1.63,0.49-2.58c0.09-0.95,0.14-1.87,0.14-2.76V11.42h5.72v29
			c0,1.1-0.06,2.25-0.17,3.44c-0.12,1.19-0.31,2.3-0.56,3.33c-0.44,1.73-1.11,3.33-2,4.81c-0.89,1.47-2.05,2.75-3.48,3.83
			c-1.43,1.08-3.14,1.92-5.14,2.53c-2,0.61-4.35,0.91-7.04,0.91c-2.57,0-4.83-0.28-6.78-0.84c-1.94-0.56-3.61-1.34-5-2.33
			c-1.39-0.99-2.53-2.18-3.42-3.55c-0.89-1.37-1.58-2.86-2.07-4.47c-0.35-1.17-0.6-2.42-0.75-3.76c-0.15-1.33-0.23-2.63-0.23-3.9
			v-29h5.72v29.14c0,1.05,0.08,2.14,0.23,3.25c0.15,1.11,0.39,2.12,0.72,3.04c0.82,2.27,2.18,4.06,4.09,5.37
			C70.1,53.52,72.62,54.17,75.76,54.17z"/>
		<path class="st0" d="M175.82,58.82h-5.72V17.02h-15.69v-5.16h37.11v5.16h-15.69V58.82z"/>
		<path class="st0" d="M221.07,53.66h24.08v5.16h-29.81V11.86h28.51v5.16h-22.78v15.17h20.25v5.16h-20.25V53.66z"/>
	</g>
	<g>
		<path class="st0" d="M274.47,28.05c-1,0-1.92,0.17-2.76,0.49c-0.85,0.33-1.57,0.81-2.17,1.44c-0.6,0.63-1.08,1.4-1.41,2.33
			c-0.34,0.92-0.51,1.98-0.51,3.17c0,1.18,0.15,2.21,0.46,3.11c0.31,0.89,0.75,1.64,1.33,2.24s1.29,1.05,2.12,1.35
			c0.83,0.31,1.78,0.46,2.84,0.46c0.76,0,1.53-0.06,2.32-0.18c0.79-0.12,1.53-0.29,2.22-0.52v3.16c-0.7,0.2-1.45,0.36-2.26,0.47
			c-0.81,0.11-1.65,0.17-2.52,0.17c-1.7,0-3.19-0.24-4.48-0.73c-1.29-0.48-2.36-1.17-3.23-2.05c-0.86-0.88-1.51-1.94-1.95-3.18
			c-0.44-1.23-0.65-2.59-0.65-4.08c0-1.53,0.23-2.95,0.7-4.25c0.46-1.31,1.13-2.44,2.01-3.4c0.87-0.96,1.97-1.71,3.28-2.26
			c1.31-0.55,2.8-0.83,4.46-0.84c0.85,0,1.65,0.06,2.41,0.17c0.76,0.11,1.44,0.28,2.05,0.49v3.11c-0.8-0.25-1.54-0.43-2.23-0.52
			C275.81,28.1,275.13,28.05,274.47,28.05z"/>
		<path class="st0" d="M289.67,45.36V25.32h3.67v20.04H289.67z"/>
		<path class="st0" d="M315.6,34.64c1.44,2.05,2.61,3.86,3.5,5.45h0.09c-0.12-2.61-0.18-4.5-0.18-5.69v-9.08h3.67v20.04h-3.85
			l-6.53-9.22c-1.15-1.6-2.34-3.45-3.56-5.56h-0.09c0.12,2.46,0.18,4.36,0.18,5.71v9.07h-3.67V25.32h3.85L315.6,34.64z"/>
		<path class="st0" d="M338.16,42.29h9.86v3.07h-13.52V25.32h12.98v3.07h-9.32v5.18h8v3.07h-8V42.29z"/>
		<path class="st0" d="M369.24,39.98c0.44-1.58,0.98-3.27,1.63-5.08l3.46-9.59h5.15v20.04h-3.67V35.21c0-1.49,0.06-3.22,0.18-5.18
			h-0.14c-0.17,0.57-0.37,1.21-0.6,1.92c-0.23,0.71-0.47,1.41-0.72,2.1l-4.15,11.32h-2.37l-4.15-11.32
			c-0.25-0.69-0.49-1.39-0.72-2.1c-0.23-0.71-0.43-1.35-0.6-1.92h-0.13c0.12,1.85,0.18,3.57,0.18,5.17v10.17h-3.67V25.32h5.12
			l3.46,9.54c0.58,1.59,1.12,3.29,1.63,5.12H369.24z"/>
		<path class="st0" d="M402.77,40.25h-7.55l-1.96,5.11h-3.91l7.95-20.04h3.35l7.95,20.04h-3.88L402.77,40.25z M398.96,30.14
			c-0.7,2.1-1.33,3.85-1.88,5.25l-0.68,1.78h5.18l-0.68-1.78c-0.54-1.42-1.17-3.17-1.88-5.25H398.96z"/>
	</g>
	<polygon class="st0" points="130.83,0 130.83,63.85 123.99,70.69 123.99,6.49 124.16,6.67 	"/>
</g>
</svg>
