<svg width="19" height="18" viewBox="0 0 19 18" fill="none" xmlns="http://www.w3.org/2000/svg">
<path d="M17.5 14.4375C17.8852 14.4377 18.2556 14.5861 18.5344 14.8519C18.8132 15.1177 18.979 15.4806 18.9975 15.8654C19.016 16.2502 18.8858 16.6273 18.6338 16.9187C18.3818 17.2101 18.0274 17.3933 17.644 17.4305L17.5 17.4375H1.5C1.11478 17.4373 0.744405 17.2889 0.465613 17.0231C0.186821 16.7573 0.020988 16.3944 0.00247574 16.0096C-0.0160365 15.6248 0.114192 15.2477 0.366175 14.9563C0.618159 14.6649 0.972581 14.4817 1.356 14.4445L1.5 14.4375H17.5ZM17.5 7.4375C17.8978 7.4375 18.2794 7.59554 18.5607 7.87684C18.842 8.15814 19 8.53968 19 8.9375C19 9.33532 18.842 9.71686 18.5607 9.99816C18.2794 10.2795 17.8978 10.4375 17.5 10.4375H1.5C1.10218 10.4375 0.720644 10.2795 0.43934 9.99816C0.158035 9.71686 0 9.33532 0 8.9375C0 8.53968 0.158035 8.15814 0.43934 7.87684C0.720644 7.59554 1.10218 7.4375 1.5 7.4375H17.5ZM17.5 0.4375C17.8978 0.4375 18.2794 0.595535 18.5607 0.87684C18.842 1.15814 19 1.53968 19 1.9375C19 2.33532 18.842 2.71686 18.5607 2.99816C18.2794 3.27946 17.8978 3.4375 17.5 3.4375H1.5C1.10218 3.4375 0.720644 3.27946 0.43934 2.99816C0.158035 2.71686 0 2.33532 0 1.9375C0 1.53968 0.158035 1.15814 0.43934 0.87684C0.720644 0.595535 1.10218 0.4375 1.5 0.4375H17.5Z" fill="white" fill-opacity="0.85"/>
</svg>
