<?xml version="1.0" encoding="utf-8"?>
<!-- Generator: Adobe Illustrator 27.4.0, SVG Export Plug-In . SVG Version: 6.00 Build 0)  -->
<svg version="1.1" id="Layer_1" xmlns="http://www.w3.org/2000/svg" xmlns:xlink="http://www.w3.org/1999/xlink" x="0px" y="0px"
	 viewBox="0 0 457.69 202.1" style="enable-background:new 0 0 457.69 202.1;" xml:space="preserve">
<style type="text/css">
	.st0{fill:#E42312;}
	.st1{fill:#EC6606;}
</style>
<g>
	<path class="st0" d="M424.95,21.52l-6.16-17.48c-1.11-3.15-4.57-4.82-7.73-3.7c-3.16,1.11-4.81,4.57-3.7,7.73l6.49,18.42l7.79,4.42
		L424.95,21.52z"/>
	<path class="st1" d="M436.04,26.5l6.49-18.42c1.11-3.16-0.55-6.62-3.7-7.73c-3.15-1.12-6.62,0.54-7.72,3.7l-6.16,17.48l3.3,9.39
		L436.04,26.5z"/>
	<path class="st0" d="M456.9,21.63c-1.66-2.91-5.35-3.93-8.26-2.27l-12.59,7.14l-3.4,9.67l6.58,2.47l15.4-8.74
		C457.52,28.25,458.55,24.55,456.9,21.63z"/>
	<path class="st1" d="M431.01,48.5l13.2,4.95c0.7,0.27,1.42,0.38,2.12,0.38c2.46,0,4.77-1.5,5.68-3.93c1.17-3.14-0.42-6.63-3.55-7.8
		l-9.25-3.46l-8.21,4.65V48.5z"/>
	<path class="st0" d="M418.88,48.5v9.58c0,3.34,2.72,6.05,6.07,6.05c3.35,0,6.06-2.71,6.06-6.05V48.5l-6.06-2.27L418.88,48.5z"/>
	<path class="st0" d="M410.67,38.64l-9.24,3.46c-3.14,1.18-4.73,4.67-3.55,7.8c0.91,2.43,3.22,3.93,5.68,3.93
		c0.71,0,1.42-0.12,2.12-0.38l13.2-4.95v-5.21L410.67,38.64z"/>
	<path class="st1" d="M413.85,26.5l-12.59-7.14c-2.91-1.65-6.61-0.64-8.26,2.27c-1.65,2.92-0.62,6.62,2.29,8.26l15.39,8.74
		l6.58-2.47L413.85,26.5z"/>
	<path class="st0" d="M195.82,200.27c21.36,0,40.83-9.03,54.61-23.28c9.24-9.5,16.07-21.45,19.62-34.72l23.85,44.82
		c3.71,6.97,10.93,11.33,18.81,11.33c7.89,0,15.11-4.37,18.82-11.33l58.28-109.5c5.54-10.42,1.59-23.34-8.83-28.87
		c-10.43-5.54-23.38-1.58-28.91,8.83l-37.6,73.24l-1.76,6.02l-1.75-6.02l-37.6-73.24c-5.53-10.41-18.48-14.37-28.9-8.83
		c-10.43,5.54-14.38,18.46-8.83,28.87l14.04,26.4h-43.33c-9.82,0-17.79,8.21-17.79,18.34c0,10.12,7.97,18.33,17.79,18.33h21.43
		c-5.77,8.88-15.58,17.51-31.99,17.51c-9.52-0.02-18.01-3.89-24.46-10.49c-6.4-6.63-10.43-15.76-10.44-26.11
		c-0.03-17.96,12.29-32.48,27.64-35.82c11.35-2.52,18.5-13.75,16-25.1c-1.49-6.69-6-11.93-11.79-14.58c-8.39-3.66-18.71,0-18.71,0
		c-32.3,9.72-55.22,40.06-55.24,75.5c0,4.58,0.4,9.07,1.14,13.44c-6.73,11.1-19.42,25.04-40.65,25.04
		c-20.4-0.04-37.21-16.76-37.21-37.72c0.01-18.63,13.25-33.9,30.5-37.11c0,0,4.35-0.84,11.34-1.43c6.72-0.57,16.4-8.41,16.4-20.22
		c0-11.61-9.41-21.02-21.02-21.02C35.34,42.59,0.08,78.4,0,122.34c0.08,43.92,35.34,79.74,79.26,79.77
		c23.91-0.02,45.23-10.65,59.73-27.4C138.98,174.7,159.35,200.27,195.82,200.27z"/>
</g>
</svg>
