<?xml version="1.0" encoding="utf-8"?>
<!-- Generator: Adobe Illustrator 28.4.1, SVG Export Plug-In . SVG Version: 6.00 Build 0)  -->
<svg version="1.1" id="원본" xmlns="http://www.w3.org/2000/svg" xmlns:xlink="http://www.w3.org/1999/xlink" x="0px" y="0px"
	 viewBox="0 0 389.73 389.73" style="enable-background:new 0 0 389.73 389.73;" xml:space="preserve">
<style type="text/css">
	.st0{fill:#333333;}
	.st1{opacity:0.85;fill:#333333;}
	.st2{fill:#676767;}
	.st3{fill:#F6B4B5;}
	.st4{fill:#F7B5B6;}
	.st5{fill:#FFFFFF;}
	.st6{fill:#FEECEA;}
	.st7{fill:#F7B4B6;}
	.st8{fill:#686868;}
	.st9{fill:#727171;}
	.st10{fill:#747474;}
</style>
<rect x="-2219.71" y="-561.17" class="st0" width="1612.17" height="1571.48"/>
<g>
	<circle class="st1" cx="1143.39" cy="-133.01" r="194.86"/>
	<g>
		<path class="st2" d="M1158.21-151.99c0,4.95,0,9.9,0,15.64c5.88-3.67,11.13-6.96,16.91-10.58c0,10.56,0,20.68,0,31.47
			c-5.47-3.39-10.81-6.7-16.83-10.43c0,9.72-0.13,18.77,0.07,27.81c0.07,3.03-0.72,3.91-3.84,3.9c-34.7-0.12-69.39-0.09-104.09-0.04
			c-2.47,0-3.93-0.12-3.88-3.34c0.23-13.77,0.19-27.55,0.24-41.33c6.32,3.8,13.06,6.39,20.49,6.72c18.3,0.8,36.84-10.11,42.25-31.89
			c1.65-0.01,3.31-0.03,4.96-0.04c2.2,5.69,4.52,11.27,9.83,14.97C1135.19-141.54,1145.57-142.38,1158.21-151.99z"/>
		<path class="st3" d="M1109.55-164.04c-5.41,21.78-23.95,32.69-42.25,31.89c-7.43-0.33-14.17-2.92-20.49-6.72
			c-11.41-8.79-18.02-20.13-18.09-34.77c-0.08-18.24,14.39-35.38,32.13-39.26c25.36-5.54,50.39,14.26,49.56,42
			C1110.34-168.6,1109.84-166.32,1109.55-164.04z M1069.66-156.05c9.63-0.05,16.81-7.33,16.85-17.07
			c0.04-9.62-7.32-16.88-17.06-16.82c-9.7,0.06-16.89,7.34-16.83,17.05C1052.67-163.2,1059.96-156,1069.66-156.05z"/>
		<path class="st3" d="M1158.21-151.99c-12.64,9.6-23.02,10.44-33.88,2.88c-5.31-3.7-7.63-9.28-9.83-14.97
			c-1.03-12.65,3.08-22.54,15.23-27.94c9.44-4.2,20.38-1.81,27.83,5.9c7.02,7.25,8.81,18.51,4.32,27.67
			C1160.81-156.23,1159.45-154.14,1158.21-151.99z"/>
		<path class="st2" d="M1250.02-132.05c0-25.05,0.03-50.11-0.04-75.16c-0.01-2.89-0.16-4.88,3.95-4.84
			c3.86,0.04,4.13,1.57,4.12,4.69c-0.08,50.11-0.07,100.22-0.02,150.32c0,2.89,0.16,4.88-3.95,4.84c-3.86-0.04-4.14-1.57-4.12-4.69
			C1250.07-81.94,1250.02-106.99,1250.02-132.05z"/>
		<path class="st3" d="M1236.86-184.22c-0.07,1.76-7.34,6.76-8.95,6.15c-0.97-0.37-1.65-1.15-1.6-2.26
			c0.05-1.17,7.31-6.56,8.53-6.34C1236.19-186.43,1236.47-185.22,1236.86-184.22z"/>
		<path class="st3" d="M1195.91-154.38c-1.17,0.1-1.6-0.59-2.05-1.3c-0.48-0.75-0.8-1.66-0.05-2.22c2.36-1.76,4.8-3.43,7.28-5.01
			c0.74-0.48,1.58-0.04,2.19,0.62c0.6,0.66,1.03,1.46,0.4,2.19C1201.5-157.56,1198.58-155.99,1195.91-154.38z"/>
		<path class="st3" d="M1201.98-100.26c-0.51,1.47-1.43,2.74-3.2,1.75c-2.29-1.29-4.51-2.77-6.51-4.45
			c-1.86-1.56-0.6-3.06,0.89-3.88C1194.39-107.53,1201.93-101.82,1201.98-100.26z"/>
		<path class="st3" d="M1232.96-74.28c-3.19-1.94-6.47-3.39-8.42-6.33c-0.89-1.34,0.68-2.92,1.9-2.58c3.19,0.87,5.88,2.99,8.07,5.36
			C1235.68-76.56,1233.96-75.35,1232.96-74.28z"/>
		<path class="st3" d="M1220.23-172.71c-0.05,1.87-7.29,7.08-8.74,6.36c-1.1-0.54-2.06-1.87-1.21-2.78
			c2.21-2.36,4.61-4.71,7.83-5.61C1219.37-175.1,1219.91-173.67,1220.23-172.71z"/>
		<path class="st3" d="M1210.61-95.02c2.55,1.41,5.09,3.16,7.26,5.38c0.62,0.64,0.32,1.56-0.19,2.26c-0.49,0.68-1.21,1.37-2.04,0.82
			c-2.43-1.61-4.82-3.3-7.12-5.09c-0.68-0.53-0.54-1.49-0.07-2.25C1208.9-94.63,1209.46-95.18,1210.61-95.02z"/>
		<path class="st3" d="M1248.79-192.52c-0.97,1.46-2.07,3.13-3.97,3.15c-1.22,0.01-2.55-1.33-2.25-2.69
			c0.42-1.95,2.32-2.68,4.1-2.81C1247.9-194.96,1248.63-193.88,1248.79-192.52z"/>
		<path class="st3" d="M1184.86-151.82c1.72,0.38,2.9,1.37,2.84,2.62c-0.1,2.16-2.2,2.69-3.87,3.07c-1.18,0.27-2.35-0.78-2.26-2.02
			C1181.73-150.18,1183.76-150.71,1184.86-151.82z"/>
		<path class="st3" d="M1243.32-71.99c1.33,1,3.29,1.65,3.33,3.7c0.03,1.21-1.13,2.21-2.33,1.88c-1.64-0.45-3.63-1.01-3.27-3.45
			C1241.23-71.02,1241.82-71.98,1243.32-71.99z"/>
		<path class="st3" d="M1182.94-110.07c-1.51-0.47-3.17-1.11-3.34-2.99c-0.12-1.28,1.06-2.28,2.26-2.04
			c1.54,0.31,3.32,0.9,3.37,2.99C1185.26-110.78,1184.49-109.99,1182.94-110.07z"/>
	</g>
</g>
<g>
	<circle class="st1" cx="753.72" cy="-289.91" r="194.86"/>
	<g>
		<path class="st4" d="M719.76-228.1c-9.78-10.46-15.09-22.77-14.92-37.17c0.09-7.35,2.02-14.33,5.44-20.9
			c1.24-2.38,3.14-4.54,1.77-7.8c-0.77-1.83,0.98-3.07,2.93-2.94c2.36,0.16,3.69-1.09,4.78-2.87c6.53-6.36,14.48-10.21,23.01-13.04
			c1.49-0.08,3-0.05,4.48-0.28c1.11-0.17,2.47-0.4,1.52-2.2c-2.07-3.92-0.61-8.15-0.95-12.22c-0.17-2.01,0.78-3.89,2.89-3.95
			c2.14-0.06,3.12,1.81,3.01,3.82c-0.24,4.41,1.04,8.97-1.27,13.43c3.5,0.56,7.03,0.03,10.33,1.17c10.56,1.18,19.18,6.33,26.96,13.2
			c19.21,20.3,20.64,49.63,0,71.82c-2.07,1.65-3.93,3.71-6.25,4.86c-4.27,2.13-4.04,4.34-0.99,7.3c1.7,1.65,3.57,3.6,0.99,5.84
			c-2.45,2.13-4.2-0.04-5.21-1.79c-2.94-5.13-6.86-5.98-11.97-3.62c-1.01,0.47-2.26,0.42-3.4,0.61c-6.7,2.01-13.37,0.18-20.05-0.17
			c-8.67-3.31-8.67-3.31-14.36,3.14c-0.33,0.37-0.68,0.73-1.01,1.1c-1.39,1.57-2.9,2.24-4.68,0.61c-1.58-1.45-1.09-2.91,0.05-4.37
			c1.72-2.21,5.07-4.81,4.69-6.59c-0.49-2.27-4-3.89-6.21-5.79C720.83-227.33,720.28-227.7,719.76-228.1z M722.8-264.67
			c-0.37,2.79,0.53,5.32,1.63,7.73c2.17,4.79,8.23,6.99,13.53,5.04c4.86-1.79,7.41-6.48,5.94-10.95c-1.7-5.16-4.9-6.53-11.89-4.71
			c-2.16,0.56-2.38-0.18-1.99-1.86c0.81-3.57,3.33-4.24,7.17-1.73c2.05,1.33,4.57,1.93,5.79,0.04c1.34-2.07-0.71-3.86-2.65-5.01
			c-3.67-2.18-7.55-2.74-11.38-0.76C724.05-274.34,723.13-269.58,722.8-264.67z M773.75-269.61c0-1.45-0.06-2.75,0.01-4.05
			c0.13-2.53-0.53-4.2-3.55-4.12c-2.92,0.07-2.47,2.11-2.48,3.88c-0.03,5.99,0,11.99-0.02,17.98c-0.01,2.07-0.18,3.96,2.92,4.02
			c3.4,0.07,3.2-2.03,3.17-4.27c-0.02-2-0.11-4.01,0.07-5.99c0.17-1.86,0.65-3.79,3.11-3.74c2.46,0.05,2.87,1.83,2.87,3.83
			c0,2.16,0.09,4.33-0.02,6.49c-0.12,2.4,0.52,3.65,3.3,3.7c2.98,0.05,3.79-1.23,3.59-3.9c-0.14-1.82-0.02-3.66-0.03-5.49
			C786.68-270.94,782.88-273.5,773.75-269.61z M746.76-262.07c-0.37,4.24,0.8,7.87,4.7,9.72c4.04,1.91,8.11,1.24,11.63-1.6
			c1.53-1.24,2.44-3.02,1.11-4.81c-1.25-1.68-3-0.95-4.48-0.04c-0.55,0.34-0.89,1.03-1.44,1.34c-1.8,1.01-3.59,1.11-4.7-0.94
			c-1.52-2.82-1.1-5.6,1.18-7.75c1.63-1.53,3.11-0.49,4.02,1.17c1.34,2.46,3.38,2.23,5.01,0.87c2.17-1.8,0.63-3.65-0.85-5.01
			c-3.1-2.86-6.72-3.43-10.61-1.8C748.4-269.27,746.21-266.47,746.76-262.07z"/>
		<path class="st2" d="M749.72-377.67c-24.77,0.22-48.86,4.4-72.28,12.42c-4.23,1.45-8.39,3.11-12.59,4.68
			c-2.06-1.79-4.15-3.57-5.09-6.27c28.02-12.28,57.5-17.8,87.92-18.94c2.1,3.65,4.15,3.63,6.15-0.07
			c32.43-0.12,63.78,5.31,93.69,18.2c-1.63,2.35-2.83,5.08-5.76,6.22c-28.81-11.89-58.84-17.05-89.93-16.3
			C751.13-377.7,750.42-377.69,749.72-377.67z"/>
		<path class="st2" d="M830.31-195.98c-16.46,0.37-15.76-0.26-15.58-15.53c0.04-3.16-0.04-6.32,0.02-9.48
			c0.07-4.35,2.13-6.91,6.66-6.95c6.15-0.06,12.31-0.07,18.47,0c4.38,0.06,6.81,2.27,6.84,6.78c0.03,6.16,0.08,12.31-0.02,18.47
			c-0.07,4.41-2.42,6.71-6.89,6.72C836.63-195.97,833.47-195.98,830.31-195.98z"/>
		<path class="st2" d="M690.8-212.38c0,3.16,0.05,6.32-0.01,9.48c-0.08,4.36-2.19,6.87-6.71,6.91c-6.15,0.05-12.31,0.08-18.47-0.01
			c-4.39-0.06-6.77-2.33-6.79-6.82c-0.02-5.99-0.09-11.98,0.02-17.97c0.09-5.12,2.17-7.08,7.44-7.16c5.66-0.08,11.31-0.08,16.97,0
			c5.48,0.08,7.43,2.08,7.54,7.58C690.84-217.7,690.8-215.04,690.8-212.38z"/>
		<path class="st2" d="M846.71-263.97c0.34,17.11-0.06,16.17-16.09,16.03c-2.99-0.03-5.99,0.04-8.98-0.02
			c-4.36-0.09-6.87-2.2-6.9-6.72c-0.04-6.16-0.08-12.31,0.01-18.47c0.06-4.39,2.34-6.77,6.83-6.78c5.99-0.02,11.98-0.09,17.97,0.02
			c5.12,0.1,7.04,2.18,7.15,7.45C846.76-269.63,846.71-266.8,846.71-263.97z"/>
		<path class="st2" d="M674.93-247.95c-17.08,0.32-16.08,0.05-16.17-16c-0.09-17.11,0.16-16.13,16.18-15.99
			c2.83,0.02,5.66-0.06,8.48,0.02c5.22,0.14,7.27,2.11,7.35,7.25c0.09,5.82,0.1,11.65,0,17.47c-0.09,5.17-2.14,7.12-7.36,7.24
			C680.58-247.9,677.76-247.95,674.93-247.95z"/>
		<path class="st2" d="M690.87-318.93c-0.02,4,0.04,8-0.09,11.99c-0.16,4.88-2.19,6.9-7.12,6.99c-5.99,0.1-11.99,0.08-17.99,0
			c-4.38-0.06-6.82-2.27-6.84-6.78c-0.03-6.16-0.09-12.33,0.02-18.49c0.08-4.42,2.46-6.71,6.93-6.69
			c5.33,0.02,10.66,0.06,15.98,0.09C682.8-326.11,687.71-323.13,690.87-318.93z"/>
		<path class="st2" d="M824.77-331.82c4.82-0.03,9.65-0.14,14.47-0.07c5.27,0.07,7.36,2.06,7.45,7.15c0.1,5.99,0.08,11.98,0,17.97
			c-0.06,4.37-2.27,6.82-6.77,6.84c-6.15,0.03-12.31,0.08-18.46-0.02c-4.4-0.07-6.73-2.41-6.72-6.89c0-3.99,0.04-7.98,0.06-11.98
			C819.29-322.26,822.99-326.3,824.77-331.82z"/>
		<path class="st2" d="M742.77-312.83c-8.53,2.84-16.48,6.69-23.01,13.04c-7.68-0.46-8.96-1.85-8.97-9.73
			c0-4.97-0.06-9.95,0.02-14.92c0.09-5.26,2.06-7.36,7.11-7.45c5.97-0.1,11.94-0.12,17.9,0.01c4.83,0.11,6.82,2.21,6.93,7.12
			C742.84-320.79,742.77-316.81,742.77-312.83z"/>
		<path class="st2" d="M789.74-299.85c-7.78-6.87-16.39-12.02-26.96-13.2c-0.01-3.83-0.09-7.66,0-11.49
			c0.11-5.24,2.1-7.27,7.26-7.35c5.83-0.09,11.66-0.1,17.49,0c5.16,0.09,7.13,2.15,7.2,7.41c0.08,5.66-0.06,11.33,0.04,16.99
			C794.83-303.72,793.43-301.07,789.74-299.85z"/>
		<path class="st2" d="M719.76-228.1c0.53,0.4,1.07,0.77,1.57,1.2c2.22,1.89,5.73,3.52,6.21,5.79c0.38,1.78-2.97,4.38-4.69,6.59
			c-1.14,1.46-1.63,2.92-0.05,4.37c1.78,1.63,3.3,0.96,4.68-0.61c0.33-0.37,0.68-0.73,1.01-1.1c5.69-6.45,5.69-6.45,14.36-3.14
			c-0.03,3.97,0.02,7.95-0.1,11.93c-0.15,4.91-2.14,7.01-6.96,7.07c-6.62,0.08-13.25-0.06-19.87-0.1c1-1.31,1.97-2.64,3.01-3.92
			c1.4-1.71,2.15-3.56,0.23-5.24c-1.84-1.61-3.3-0.2-4.73,1.04c-1.22,1.06-1.64,2.98-3.56,3.27c-0.03-5.8-0.08-11.6-0.08-17.41
			C710.78-226.3,712.05-227.66,719.76-228.1z"/>
		<path class="st2" d="M762.91-214.83c1.14-0.19,2.39-0.15,3.4-0.61c5.12-2.36,9.04-1.51,11.97,3.62c1,1.75,2.76,3.92,5.21,1.79
			c2.58-2.25,0.71-4.2-0.99-5.84c-3.05-2.95-3.28-5.17,0.99-7.3c2.32-1.15,4.18-3.21,6.25-4.86c3.76,1.35,5.19,4.01,5.05,7.98
			c-0.22,6.07-0.1,12.15-0.12,18.22c-0.83-0.77-1.71-1.48-2.49-2.3c-1.31-1.4-2.75-2.72-4.65-1.27c-2.03,1.56-1.42,3.38-0.03,5.17
			c0.99,1.27,2.46,2.3,2.42,4.17c-6.65,0.03-13.3,0.14-19.94,0.06c-5.16-0.07-7.13-2.14-7.21-7.37
			C762.72-207.19,762.86-211.01,762.91-214.83z"/>
		<path class="st4" d="M641.24-393.87c6.36-0.12,11.49,4.53,11.58,10.48c0.1,6.89-3.83,11.29-10.24,11.48
			c-6.37,0.19-11.59-4.39-11.73-10.31C630.69-388.6,635.29-393.76,641.24-393.87z"/>
		<path class="st4" d="M740.78-416.54c0.02-6.38,4.79-11.39,10.78-11.32c6.41,0.08,11.32,4.87,11.2,10.91
			c-0.13,6.14-4.77,11.02-10.53,11.06C745.84-405.84,740.76-410.57,740.78-416.54z"/>
		<path class="st4" d="M813.7-172.96c4.44-1.36,8.81-1.79,12.76,1.32c4.94,3.89,5.73,10.75,1.87,15.48
			c-3.97,4.85-10.82,5.61-15.49,1.72c-5.03-4.19-5.54-10.82-1.23-15.85c0.75-0.87,1.43-1.8,2.15-2.7L813.7-172.96z"/>
		<path class="st4" d="M874.69-383.11c-0.06,6.36-4.88,11.33-10.89,11.21c-6.16-0.13-11.03-4.75-11.09-10.51
			c-0.06-6.4,4.64-11.47,10.63-11.47C869.73-393.87,874.74-389.11,874.69-383.11z"/>
		<path class="st4" d="M684.36-152.01c-6.38,0.1-11.51-4.59-11.55-10.55c-0.04-6.38,4.7-11.45,10.67-11.42
			c6.17,0.02,11.13,4.55,11.3,10.3C694.98-157.34,690.29-152.1,684.36-152.01z"/>
		<path class="st2" d="M854.62-364.32c10.43,5.14,20.29,11.21,29.42,18.42c3.29,2.6,3.45,5.49,0.66,7.31
			c-2.37,1.55-4.07,0.02-5.78-1.29c-9.38-7.15-19.23-13.51-30.09-18.21C849.96-360.9,851.36-363.48,854.62-364.32z"/>
		<path class="st2" d="M657.76-357.27c-10.2,4.56-19.69,10.31-28.61,17.01c-2.35,1.76-4.74,3.87-7.26,0.71
			c-2.83-3.56,0.38-5.39,2.7-7.16c8.87-6.77,18.56-12.22,28.42-17.38C655.25-362.27,657.72-360.62,657.76-357.27z"/>
		<path class="st4" d="M789.93-196.06c0.04-1.88-1.43-2.91-2.42-4.17c-1.39-1.79-2-3.61,0.03-5.17c1.89-1.45,3.33-0.12,4.65,1.27
			c0.77,0.82,1.65,1.54,2.49,2.3c1.26,1.74,2.44,3.54,3.79,5.2c1.32,1.62,1.89,3.27,0.21,4.82c-1.7,1.57-3.31,0.68-4.83-0.63
			C792.49-193.6,791.97-195.67,789.93-196.06z"/>
		<path class="st4" d="M824.77-331.82c-1.78,5.52-5.48,9.56-9.97,13c-3.92-0.24-3.84-2.65-2.32-5.07c1.89-3.01,4.18-5.8,6.48-8.52
			C821.04-334.87,823-333.66,824.77-331.82z"/>
		<path class="st4" d="M854.62-364.32c-3.26,0.85-4.66,3.42-5.8,6.24c-0.29,0.16-0.59,0.3-0.87,0.47c-1.65,1.05-2.64,3.71-5.38,1.98
			c-2.62-1.66-0.7-3.85-0.81-5.79c2.93-1.14,4.14-3.88,5.76-6.22c1.75-1.03,3.12-3.15,5.67-1.91
			C855.71-368.34,853.55-365.9,854.62-364.32z"/>
		<path class="st4" d="M710.87-200.96c1.91-0.29,2.34-2.21,3.56-3.27c1.43-1.24,2.88-2.65,4.73-1.04c1.93,1.68,1.17,3.53-0.23,5.24
			c-1.04,1.28-2.01,2.61-3.01,3.92c-1.08,1.22-2.14,2.46-3.25,3.66c-1.39,1.51-3.08,2.14-4.75,0.68c-1.69-1.47-1.26-3.17,0.09-4.76
			C709.15-197.88,710.8-198.92,710.87-200.96z"/>
		<path class="st4" d="M705.57-184.41c-0.06,1.77-8.07,10.95-9.93,11.34c-1.2,0.25-2.32,0.07-3.12-0.98
			c-0.66-0.87-0.88-1.92-0.21-2.77c2.74-3.49,5.52-6.95,8.41-10.32c0.82-0.96,2.06-0.97,3.14-0.13
			C704.8-186.55,705.54-185.69,705.57-184.41z"/>
		<path class="st4" d="M690.87-318.93c-3.16-4.21-8.07-7.18-9.11-12.89c1.03-1.1,2.08-2.13,3.8-1.67c1.33,0.36,9.9,10.1,9.84,11.45
			C695.25-319.15,693.27-318.67,690.87-318.93z"/>
		<path class="st4" d="M829.23-336.88c-2.05-0.86-4.23-1.96-2.64-4.29c2.48-3.63,5.45-6.95,8.43-10.2c0.9-0.98,2.48-0.73,3.62,0.23
			c1.03,0.86,1.26,2,0.59,3.1c-2.29,3.82-4.99,7.33-8.32,10.31C830.45-337.32,829.78-337.15,829.23-336.88z"/>
		<path class="st4" d="M680.4-339.59c-0.99,1.9-2.46,3.95-4.74,1.79c-3.08-2.92-5.96-6.18-8.3-9.71c-1.45-2.18-0.16-4.21,2.73-4.29
			C671.95-351.87,680.53-341.71,680.4-339.59z"/>
		<path class="st4" d="M813.75-173c-3.41-0.21-12.68-8.59-12.59-11.63c0.06-2.06,1.39-3.41,3.58-3.08
			c3.1,0.47,9.84,11.74,8.97,14.75C813.7-172.96,813.75-173,813.75-173z"/>
		<path class="st4" d="M799.43-300.3c-3.05-0.88-3.58-3.11-2.04-5.34c2.15-3.11,4.83-5.86,7.34-8.72c0.77-0.88,1.73-1.68,3.01-0.84
			c1.14,0.75,2.46,1.81,1.79,3.19c-2.18,4.49-5.34,8.28-9.15,11.52C800.17-300.31,799.76-300.36,799.43-300.3z"/>
		<path class="st4" d="M657.76-357.27c-0.04-3.35-2.52-5-4.76-6.82c-0.36-1.77-2.24-3.75,0.11-5.25c3.11-1.99,4.51,1.41,6.65,2.5
			c0.94,2.71,3.02,4.48,5.09,6.27c0.42,1.75,1.19,3.48-0.84,4.9C661.22-353.7,659.96-357.23,657.76-357.27z"/>
		<path class="st4" d="M749.72-377.67c0.7-0.02,1.41-0.03,2.11-0.05c1.74,2.24,2.93,14.18,1.44,16.08c-1.54,1.97-3.44,1.95-5,0.02
			C746.76-363.48,747.97-375.45,749.72-377.67z"/>
		<path class="st4" d="M747.79-346.09c0-1.83-0.01-3.66,0.01-5.49c0.01-1.84,1.21-2.83,2.78-2.94c1.59-0.11,3.03,0.76,3.09,2.56
			c0.12,3.99,0.1,7.99,0.01,11.98c-0.04,1.8-1.37,2.75-2.98,2.7c-1.58-0.04-2.85-0.99-2.9-2.81
			C747.75-342.09,747.79-344.09,747.79-346.09z"/>
		<path class="st4" d="M709.81-304.49c-0.01,1.86-0.04,2.91-1.17,3.34c-1.49,0.56-3.06,0.51-4.14-0.74
			c-2.37-2.75-4.63-5.59-6.85-8.46c-1.18-1.53-1-3.08,0.47-4.41c1.8-1.63,3.02-0.37,4.18,0.87
			C705.22-310.79,708-307.57,709.81-304.49z"/>
		<path class="st4" d="M753.84-385.85c-2.01,3.71-4.06,3.72-6.15,0.07c0.03-3.66,0.01-7.33,0.12-10.99c0.06-2.02,1-3.82,3.18-3.68
			c1.78,0.11,2.74,1.71,2.76,3.61C753.79-393.18,753.81-389.51,753.84-385.85z"/>
		<path class="st5" d="M722.8-264.67c0.33-4.91,1.25-9.67,6.15-12.21c3.83-1.98,7.71-1.42,11.38,0.76c1.94,1.15,3.99,2.94,2.65,5.01
			c-1.22,1.89-3.75,1.3-5.79-0.04c-3.84-2.5-6.36-1.83-7.17,1.73c-0.38,1.68-0.16,2.42,1.99,1.86c6.99-1.82,10.19-0.45,11.89,4.71
			c1.47,4.46-1.08,9.16-5.94,10.95c-5.3,1.95-11.36-0.25-13.53-5.04C723.33-259.35,722.43-261.88,722.8-264.67z M737.76-260.49
			c-0.45-1.99-1.63-3.46-3.95-3.4c-2.23,0.06-3.94,1.31-3.8,3.59c0.16,2.49,2.04,3.55,4.51,3.43
			C736.7-256.97,737.76-258.15,737.76-260.49z"/>
		<path class="st5" d="M773.75-269.61c9.14-3.89,12.93-1.33,12.95,8.34c0,1.83-0.11,3.67,0.03,5.49c0.2,2.67-0.61,3.95-3.59,3.9
			c-2.77-0.04-3.42-1.3-3.3-3.7c0.11-2.16,0.02-4.33,0.02-6.49c0-2-0.42-3.78-2.87-3.83c-2.46-0.05-2.94,1.87-3.11,3.74
			c-0.18,1.98-0.09,3.99-0.07,5.99c0.03,2.24,0.23,4.34-3.17,4.27c-3.1-0.06-2.92-1.95-2.92-4.02c0.02-5.99-0.01-11.99,0.02-17.98
			c0.01-1.77-0.43-3.8,2.48-3.88c3.02-0.08,3.68,1.59,3.55,4.12C773.69-272.36,773.75-271.05,773.75-269.61z"/>
		<path class="st5" d="M746.76-262.07c-0.55-4.4,1.64-7.2,5.57-8.85c3.89-1.63,7.51-1.06,10.61,1.8c1.48,1.37,3.02,3.21,0.85,5.01
			c-1.64,1.36-3.67,1.59-5.01-0.87c-0.91-1.66-2.39-2.71-4.02-1.17c-2.29,2.16-2.7,4.94-1.18,7.75c1.11,2.06,2.9,1.95,4.7,0.94
			c0.56-0.31,0.9-1,1.44-1.34c1.48-0.91,3.22-1.65,4.48,0.04c1.33,1.79,0.43,3.57-1.11,4.81c-3.52,2.84-7.59,3.51-11.63,1.6
			C747.56-254.2,746.39-257.83,746.76-262.07z"/>
		<path class="st4" d="M737.76-260.49c0.01,2.34-1.06,3.52-3.24,3.62c-2.46,0.12-4.35-0.94-4.51-3.43c-0.14-2.28,1.57-3.53,3.8-3.59
			C736.13-263.94,737.31-262.48,737.76-260.49z"/>
	</g>
</g>
<g>
	<circle class="st1" cx="194.86" cy="194.86" r="194.86"/>
	<g>
		<path class="st6" d="M131.58,261.66c-17.28,0-34.56-0.08-51.85,0.06c-3.64,0.03-5.27-0.6-5.25-4.84
			c0.17-39.38,0.15-78.76,0.02-118.14c-0.01-3.75,1.12-4.77,4.82-4.77c76.61,0.1,153.21,0.1,229.82,0c3.69,0,4.83,1.01,4.82,4.77
			c-0.12,39.38-0.14,78.76,0.02,118.14c0.02,4.25-1.61,4.88-5.25,4.85c-15.95-0.15-31.9-0.06-47.86-0.06
			c-0.56-1.62,1.06-1.35,1.68-1.76c5.54-3.64,7.13-10.44,3.75-16.5c-3-5.38-10.05-7.28-15.94-4.3c-5.6,2.84-7.66,9.67-5.33,15.7
			c1.26,3.27,4.57,4.2,6.2,6.86c-16.73,0-33.45,0-50.18,0c-0.56-1.62,1.06-1.35,1.68-1.76c5.54-3.64,7.13-10.44,3.75-16.5
			c-3-5.38-10.05-7.28-15.94-4.3c-5.6,2.84-7.66,9.67-5.33,15.7c1.26,3.27,4.57,4.2,6.2,6.86c-16.73,0-33.45,0-50.18,0
			c-0.56-1.62,1.06-1.35,1.68-1.76c5.54-3.64,7.13-10.44,3.75-16.5c-3-5.38-10.05-7.28-15.94-4.3c-5.6,2.84-7.66,9.67-5.33,15.7
			C126.64,258.06,129.95,259,131.58,261.66z"/>
		<path class="st7" d="M131.58,261.66c-1.62-2.66-4.93-3.6-6.2-6.86c-2.33-6.02-0.27-12.86,5.33-15.7
			c5.89-2.98,12.94-1.08,15.94,4.3c3.38,6.05,1.79,12.85-3.75,16.5c-0.62,0.41-2.24,0.14-1.68,1.76c3.41,2.51,7.53,3.97,10.08,7.78
			c3.72,5.57,3.03,11.69,3.02,17.79c0,2.12-1.37,2.34-3,2.34c-9.95-0.01-19.91-0.05-29.86,0.03c-2.5,0.02-2.84-1.21-3.07-3.36
			C117.17,274.97,120.83,266.45,131.58,261.66z"/>
		<path class="st7" d="M191.4,261.66c-1.62-2.66-4.93-3.6-6.2-6.86c-2.33-6.02-0.27-12.86,5.33-15.7c5.89-2.98,12.94-1.08,15.94,4.3
			c3.38,6.05,1.79,12.85-3.75,16.5c-0.62,0.41-2.24,0.14-1.68,1.76c3.41,2.51,7.53,3.97,10.08,7.78c3.72,5.57,3.03,11.69,3.02,17.79
			c0,2.12-1.37,2.34-3,2.34c-9.95-0.01-19.91-0.05-29.86,0.03c-2.5,0.02-2.84-1.21-3.07-3.36
			C176.99,274.97,180.65,266.45,191.4,261.66z"/>
		<path class="st7" d="M251.23,261.66c-1.62-2.66-4.93-3.6-6.2-6.86c-2.33-6.02-0.27-12.86,5.33-15.7
			c5.89-2.98,12.94-1.08,15.94,4.3c3.38,6.05,1.79,12.85-3.75,16.5c-0.62,0.41-2.24,0.14-1.68,1.76c3.41,2.51,7.53,3.97,10.08,7.78
			c3.72,5.57,3.03,11.69,3.02,17.79c0,2.12-1.37,2.34-3,2.34c-9.95-0.01-19.91-0.05-29.86,0.03c-2.5,0.02-2.84-1.21-3.07-3.36
			C236.82,274.97,240.48,266.45,251.23,261.66z"/>
		<path class="st8" d="M72.7,100.15c1.77,0.75,2.51,1.79,1.14,3.39c-0.96,1.13-2.07,2.13-3.11,3.18c-3.2,3.24-3.05,7.37-0.1,10.8
			c1.41,1.64,5.54,3.13,3.21,5.55c-2.85,2.95-4.31-1.53-5.87-3.03c-8.19-7.84-8.12-7.95-0.09-15.89
			C69.36,102.7,70.49,100.72,72.7,100.15z"/>
		<path class="st8" d="M327.88,112.14c-0.24,0.41-0.45,1.05-0.88,1.49c-3.12,3.18-6.29,6.32-9.44,9.47
			c-0.91,0.91-1.88,1.4-2.99,0.32c-1.1-1.07-0.57-1.96,0.21-3c2.22-2.96,7.03-4.5,6.78-8.58c-0.23-3.64-4.58-5.3-6.82-8.09
			c-0.68-0.85-1.15-1.66-0.45-2.63c0.65-0.9,1.7-1.39,2.55-0.57c3.57,3.43,7.04,6.96,10.53,10.47
			C327.59,111.23,327.65,111.6,327.88,112.14z"/>
		<path class="st9" d="M81.15,114.21c-1.4-0.61-3.95,1.14-4.21-1.88c-0.27-3.13,2.28-2.29,3.83-2.16c1.47,0.12,3.92-1.4,4.21,1.68
			C85.27,115.05,82.74,113.82,81.15,114.21z"/>
		<path class="st10" d="M129.91,114.22c-1.48-0.53-4.09,1.08-4.12-2c-0.04-3.44,2.78-1.97,4.4-2.07c1.52-0.09,4.05-1.01,3.89,2.09
			C133.91,115.32,131.37,113.68,129.91,114.22z"/>
		<path class="st9" d="M178.99,114.2c-1.45-0.55-4.26,1.18-4.13-2.37c0.11-2.91,2.42-1.67,3.73-1.65c1.52,0.03,4-1.26,4.31,1.68
			C183.23,115,180.67,113.87,178.99,114.2z"/>
		<path class="st9" d="M211.4,109.95c1.67,0.6,4.25-1.05,4.22,2.14c-0.02,3.11-2.52,1.99-4.04,1.98c-1.52-0.01-4.04,1.15-4.05-1.97
			C207.53,108.87,210.24,110.73,211.4,109.95z"/>
		<path class="st10" d="M260.59,114.28c-1.81-0.48-4.41,0.85-4.2-2.27c0.23-3.36,3-1.65,4.63-1.85c1.37-0.17,3.63-0.92,3.67,1.81
			C264.74,115.58,261.75,113.38,260.59,114.28z"/>
		<path class="st9" d="M309.61,114.2c-1.44-0.56-4.26,1.19-4.14-2.36c0.1-2.91,2.42-1.69,3.72-1.66c1.52,0.04,4-1.28,4.32,1.68
			C313.86,115,311.3,113.87,309.61,114.2z"/>
		<path class="st8" d="M97.29,114.16c-1.67-0.34-4.23,0.86-3.88-2.32c0.33-3.01,2.81-1.52,4.32-1.64c1.52-0.12,4.06-1.01,3.73,2.19
			C101.13,115.52,98.56,113.43,97.29,114.16z"/>
		<path class="st8" d="M113.45,114.18c-1.45-0.54-4.08,1.12-3.93-2.17c0.14-3.17,2.67-1.77,4.11-1.79c1.43-0.02,4.05-1.34,3.91,1.97
			C117.41,115.39,114.84,113.56,113.45,114.18z"/>
		<path class="st8" d="M146.24,114.18c-1.49-0.5-4.09,1.07-3.95-2.17c0.13-3.17,2.67-1.74,4.12-1.78c1.45-0.05,4.04-1.26,3.91,1.99
			C150.19,115.43,147.61,113.53,146.24,114.18z"/>
		<path class="st8" d="M162.31,110.05c1.41,0.62,4-1.2,4.12,1.97c0.13,3.24-2.48,2.03-3.94,1.99c-1.45-0.04-3.98,1.39-4.12-1.8
			C158.23,108.92,160.87,110.6,162.31,110.05z"/>
		<path class="st8" d="M195.14,114.18c-1.47-0.51-4.06,1.08-3.89-2.18c0.17-3.13,2.65-1.73,4.1-1.78c1.46-0.05,4.01-1.2,3.85,2.02
			C199.05,115.41,196.5,113.54,195.14,114.18z"/>
		<path class="st8" d="M228.2,110.07c1.63,0.37,4.19-0.93,3.87,2.31c-0.31,3.09-2.79,1.53-4.28,1.65c-1.51,0.12-4.08,1.03-3.77-2.15
			C224.32,108.79,226.88,110.74,228.2,110.07z"/>
		<path class="st8" d="M244.03,114.17c-1.56-0.44-4.16,1-3.89-2.26c0.25-3.1,2.74-1.64,4.21-1.7c1.45-0.06,4.07-1.22,3.8,2.08
			C247.9,115.42,245.36,113.52,244.03,114.17z"/>
		<path class="st8" d="M276.97,114.18c-1.42-0.59-3.99,1.18-4.06-2.03c-0.07-3.28,2.53-1.93,3.97-1.93c1.44,0,3.99-1.36,4.06,1.84
			C281.01,115.35,278.39,113.61,276.97,114.18z"/>
		<path class="st8" d="M293,114.18c-1.41-0.59-4.03,1.18-4-2.08c0.03-3.22,2.59-1.87,4.04-1.88c1.46-0.01,4.04-1.29,4.03,1.91
			C297.04,115.34,294.43,113.59,293,114.18z"/>
	</g>
</g>
</svg>
