<?xml version="1.0" encoding="utf-8"?>
<!-- Generator: Adobe Illustrator 27.4.0, SVG Export Plug-In . SVG Version: 6.00 Build 0)  -->
<svg version="1.1" id="레이어_1" xmlns="http://www.w3.org/2000/svg" xmlns:xlink="http://www.w3.org/1999/xlink" x="0px"
	 y="0px" viewBox="0 0 384.11 384.11" style="enable-background:new 0 0 384.11 384.11;" xml:space="preserve">
<style type="text/css">
	.st0{opacity:0.85;fill:#323333;}
	.st1{fill:#FCE9E9;}
	.st2{fill:#F5B2B2;}
	.st3{fill:#F5B3B3;}
</style>
<g>
	<circle class="st0" cx="192.05" cy="192.05" r="192.05"/>
	<g>
		<path class="st1" d="M192.28,110.3c42.52,0,85.05,0.06,127.57-0.09c4.41-0.02,5.94,0.94,5.92,5.7
			c-0.18,50.83-0.17,101.66-0.01,152.49c0.01,4.48-1.29,5.51-5.61,5.5c-85.38-0.12-170.76-0.12-256.14,0
			c-4.24,0.01-5.68-0.9-5.66-5.45c0.17-50.99,0.15-101.99,0.02-152.99c-0.01-4.21,1.27-5.26,5.35-5.25
			C106.56,110.35,149.42,110.3,192.28,110.3z M204.02,193.22c0-6.51-0.15-11.67,0.05-16.81c0.12-3.13-0.74-4.39-4.14-4.42
			c-3.65-0.03-3.96,1.71-3.94,4.6c0.1,12.96,0.1,25.92,0,38.88c-0.02,2.89,0.29,4.64,3.94,4.6c3.4-0.03,4.25-1.28,4.14-4.42
			c-0.2-5.3-0.05-10.61-0.05-16.99c5.31,6.02,9.79,10.87,14,15.94c4.87,5.86,6.62,6.55,14.53,4.5
			c-5.73-6.41-11.31-12.71-16.96-18.95c-2.35-2.6-4.35-4.91-0.46-8.02c2.03-1.62,3.63-3.85,5.17-5.99
			c3.38-4.73,8.37-8.24,11.09-13.61c-6.25-1.55-10.64,0.23-14.25,5.06C213.31,182.71,208.93,187.41,204.02,193.22z M183.12,186.57
			c0-3.49,0.18-6.99-0.07-10.45c-0.15-2.04,1.5-5.36-1.85-5.77c-3.2-0.4-7.04-1.64-9.6,2.03c-6.9,9.88-13.9,19.69-20.68,29.66
			c-2.54,3.73-0.58,6.97,3.92,7.01c4.48,0.04,8.96,0.01,13.45,0.02c7.58,0.02,7.01-0.5,6.74,6.56c-0.14,3.62,1.24,4.46,4.6,4.45
			c3.55-0.01,3.58-1.97,3.51-4.5c-0.09-3.4-0.96-7.38,4.84-6.62c1.81,0.24,2.03-1.29,2.02-2.72c-0.02-1.67-0.61-3.31-2.41-3.13
			c-5.15,0.5-4.51-2.91-4.48-6.07C183.15,193.54,183.12,190.06,183.12,186.57z"/>
		<path class="st2" d="M204.02,193.22c4.92-5.81,9.29-10.52,13.12-15.63c3.61-4.83,8-6.61,14.25-5.06
			c-2.72,5.37-7.7,8.88-11.09,13.61c-1.53,2.14-3.14,4.37-5.17,5.99c-3.89,3.11-1.9,5.42,0.46,8.02
			c5.65,6.24,11.23,12.54,16.96,18.95c-7.91,2.05-9.66,1.36-14.53-4.5c-4.21-5.07-8.69-9.91-14-15.94c0,6.38-0.14,11.69,0.05,16.99
			c0.12,3.13-0.74,4.39-4.14,4.42c-3.65,0.03-3.96-1.71-3.94-4.6c0.1-12.96,0.1-25.92,0-38.88c-0.02-2.89,0.29-4.64,3.94-4.6
			c3.4,0.03,4.26,1.28,4.14,4.42C203.87,181.56,204.02,186.71,204.02,193.22z"/>
		<path class="st2" d="M183.12,186.57c0,3.49,0.03,6.97-0.01,10.46c-0.03,3.16-0.67,6.57,4.48,6.07c1.8-0.17,2.39,1.47,2.41,3.13
			c0.01,1.43-0.2,2.96-2.02,2.72c-5.8-0.76-4.93,3.22-4.84,6.62c0.07,2.52,0.04,4.48-3.51,4.5c-3.36,0.01-4.74-0.83-4.6-4.45
			c0.27-7.06,0.84-6.53-6.74-6.56c-4.48-0.01-8.96,0.01-13.45-0.02c-4.51-0.04-6.46-3.28-3.92-7.01
			c6.78-9.96,13.78-19.77,20.68-29.66c2.56-3.67,6.4-2.42,9.6-2.03c3.35,0.41,1.71,3.73,1.85,5.77
			C183.31,179.58,183.12,183.08,183.12,186.57z M176.04,179.09c-0.32-0.05-0.64-0.09-0.96-0.14c-2.89,4.4-5.9,8.72-8.62,13.23
			c-1.99,3.31-7.02,7-5.26,9.76c1.82,2.86,7.63,0.6,11.68,0.98c0.16,0.02,0.33-0.01,0.5-0.01c1.87,0.07,2.68-0.85,2.67-2.7
			C176.03,193.17,176.04,186.13,176.04,179.09z"/>
		<path class="st1" d="M176.04,179.09c0,7.04-0.02,14.09,0.01,21.13c0.01,1.85-0.81,2.76-2.67,2.7c-0.16-0.01-0.33,0.02-0.5,0.01
			c-4.05-0.38-9.85,1.89-11.68-0.98c-1.76-2.76,3.27-6.46,5.26-9.76c2.71-4.51,5.73-8.83,8.62-13.23
			C175.4,179,175.72,179.04,176.04,179.09z"/>
	</g>
</g>
<g>
	<circle class="st0" cx="-438.98" cy="697.12" r="192.05"/>
	<g>
		<path class="st1" d="M-439.1,615.37c42.69,0,85.38,0.08,128.07-0.11c4.7-0.02,5.76,1.4,5.74,5.88
			c-0.15,50.66-0.15,101.33,0,151.99c0.01,4.5-1.09,5.87-5.76,5.86c-85.38-0.14-170.76-0.14-256.14,0c-4.5,0.01-5.51-1.32-5.49-5.62
			c0.14-50.83,0.15-101.66,0-152.49c-0.01-4.33,1.03-5.63,5.51-5.61C-524.48,615.44-481.79,615.37-439.1,615.37z M-401.76,693.96
			c-0.58-1.5-1.01-2.39-1.27-3.32c-1.46-5.25-2.77-10.54-4.37-15.75c-0.73-2.39-1.93-4.93-5.09-4.54c-2.93,0.37-3.19,2.97-3.51,5.29
			c-0.34,2.44-0.59,5.02-1.23,7.27c-0.89,3.1,0.35,6.78-2.53,10.25c-1.17-10.18-2.24-19.5-3.29-28.82
			c-0.29-2.58-1.48-4.53-4.15-4.86c-2.46-0.3-3.21,1.89-4.19,3.61c-0.71,1.24-0.47,2.57-0.59,3.88c-1,11.08-2.03,22.16-3.05,33.24
			c-1.03-2.94-1.69-5.83-1.9-8.76c-1-14.32-2.28-28.61-3.96-42.87c-0.33-2.8-0.95-5.12-4.07-5.16c-2.82-0.03-3.7,2.07-4.03,4.7
			c-1.22,9.79-2.43,19.6-4.02,29.33c-0.54,3.29-0.23,6.92-2.41,11.08c-1-5.26-1.71-9.3-2.54-13.32c-0.47-2.27-0.88-4.65-3.92-5
			c-3.36-0.38-4.2,1.99-4.97,4.44c-2.3,7.27-4.73,14.49-6.78,21.82c-0.81,2.89-1.78,3.01-3.35,0.89c-1.62-2.19-3.52-3.25-6.29-3.23
			c-11.3,0.08-22.6,0.06-33.9,0.02c-2.77-0.01-5.27,0.67-5.37,3.81c-0.12,3.5,2.53,4.2,5.49,4.18c7.48-0.04,14.98,0.41,22.42-0.14
			c7.51-0.56,13.62,0.71,17.24,8.06c1.02,2.08,2.85,3.36,5.28,2.83c2.23-0.49,2.92-2.42,3.51-4.41c1.63-5.52,3.36-11.02,5.28-17.27
			c1.69,9.02,3.15,17.26,4.83,25.46c0.4,1.96,0.65,4.61,3.78,4.32c2.91-0.27,4.36-2.09,4.7-4.9c0.69-5.89,0.99-11.87,2.21-17.65
			c0.86-4.09-0.1-8.6,2.44-12.59c0.82,8.16,1.68,16.01,2.38,23.89c1.08,12.15,1.99,24.32,3.1,36.47c0.19,2.13,0.86,4.47,3.6,4.67
			c2.75,0.2,4.21-1.25,4.5-4.1c0.86-8.69,1.7-17.39,2.83-26.04c0.69-5.25,0.31-10.7,2.33-15.77c1.12,7.07,1.71,14.12,2.74,21.1
			c0.34,2.32,0.07,5.94,3.94,5.84c3.78-0.09,4.64-2.85,4.96-6.19c0.55-5.74,1.19-11.5,2.34-17.14c0.81-3.99,0.21-8.38,2.9-12.66
			c1.5,5.1,2.82,9.51,4.1,13.94c0.64,2.21,1.61,4.21,4.24,4.05c2.45-0.15,3.67-1.98,4.29-4.23c1.01-3.66,2.04-7.31,3.05-10.97
			c0.35-1.26,0.46-2.85,1.98-3.12c1.41-0.25,1.64,1.34,2.35,2.2c1.25,1.52,2.38,3.3,4.7,3.3c7.97,0,15.95,0.07,23.92-0.09
			c2.48-0.05,3.85-1.71,3.88-4.29c0.03-2.68-1.89-3.36-3.95-3.5c-2.81-0.19-5.69-0.39-8.46-0.01c-8.89,1.24-16.04-1.07-21.65-8.53
			c-2.88-3.82-6.37-2.63-7.69,2.16C-399.61,689.05-400.05,691.31-401.76,693.96z"/>
		<path class="st3" d="M-401.76,693.96c1.7-2.66,2.15-4.91,2.76-7.14c1.32-4.79,4.81-5.98,7.69-2.16
			c5.61,7.46,12.76,9.77,21.65,8.53c2.77-0.39,5.65-0.18,8.46,0.01c2.06,0.14,3.98,0.82,3.95,3.5c-0.03,2.57-1.4,4.24-3.88,4.29
			c-7.97,0.16-15.95,0.09-23.92,0.09c-2.31,0-3.45-1.78-4.7-3.3c-0.7-0.86-0.93-2.45-2.35-2.2c-1.53,0.27-1.64,1.86-1.98,3.12
			c-1.01,3.66-2.05,7.31-3.05,10.97c-0.62,2.25-1.83,4.08-4.29,4.23c-2.63,0.16-3.61-1.85-4.24-4.05c-1.27-4.43-2.6-8.84-4.1-13.94
			c-2.68,4.28-2.08,8.67-2.9,12.66c-1.15,5.64-1.79,11.4-2.34,17.14c-0.32,3.34-1.18,6.1-4.96,6.19c-3.87,0.09-3.6-3.52-3.94-5.84
			c-1.03-6.98-1.61-14.04-2.74-21.1c-2.02,5.06-1.64,10.51-2.33,15.77c-1.13,8.66-1.97,17.35-2.83,26.04
			c-0.28,2.85-1.74,4.3-4.5,4.1c-2.74-0.2-3.4-2.54-3.6-4.67c-1.11-12.15-2.02-24.31-3.1-36.47c-0.7-7.87-1.56-15.73-2.38-23.89
			c-2.54,3.99-1.58,8.5-2.44,12.59c-1.21,5.78-1.51,11.76-2.21,17.65c-0.33,2.81-1.78,4.63-4.7,4.9c-3.13,0.3-3.38-2.36-3.78-4.32
			c-1.68-8.2-3.14-16.44-4.83-25.46c-1.92,6.26-3.66,11.75-5.28,17.27c-0.59,2-1.28,3.92-3.51,4.41c-2.44,0.54-4.26-0.75-5.28-2.83
			c-3.62-7.35-9.73-8.62-17.24-8.06c-7.43,0.56-14.94,0.11-22.42,0.14c-2.96,0.01-5.61-0.68-5.49-4.18c0.11-3.13,2.6-3.82,5.37-3.81
			c11.3,0.03,22.6,0.06,33.9-0.02c2.77-0.02,4.67,1.04,6.29,3.23c1.57,2.12,2.54,2,3.35-0.89c2.05-7.33,4.49-14.56,6.78-21.82
			c0.77-2.45,1.61-4.82,4.97-4.44c3.04,0.35,3.45,2.72,3.92,5c0.82,4.02,1.54,8.07,2.54,13.32c2.18-4.16,1.87-7.79,2.41-11.08
			c1.59-9.74,2.8-19.54,4.02-29.33c0.33-2.63,1.2-4.74,4.03-4.7c3.12,0.04,3.74,2.35,4.07,5.16c1.68,14.26,2.95,28.55,3.96,42.87
			c0.21,2.93,0.87,5.82,1.9,8.76c1.02-11.08,2.06-22.16,3.05-33.24c0.12-1.31-0.12-2.64,0.59-3.88c0.98-1.72,1.73-3.91,4.19-3.61
			c2.67,0.32,3.86,2.28,4.15,4.86c1.05,9.32,2.13,18.64,3.29,28.82c2.88-3.47,1.64-7.15,2.53-10.25c0.64-2.25,0.89-4.83,1.23-7.27
			c0.33-2.31,0.58-4.92,3.51-5.29c3.16-0.39,4.36,2.15,5.09,4.54c1.6,5.21,2.91,10.5,4.37,15.75
			C-402.77,691.57-402.34,692.46-401.76,693.96z"/>
	</g>
</g>
<g>
	<circle class="st0" cx="-398.62" cy="72.62" r="192.05"/>
	<g>
		<path class="st1" d="M-398.75-9.14c42.69,0,85.38,0.07,128.07-0.11c4.66-0.02,5.78,1.34,5.77,5.85
			c-0.15,50.66-0.15,101.33,0,151.99c0.01,4.46-1.03,5.89-5.74,5.88c-85.38-0.15-170.76-0.14-256.14-0.01
			c-4.46,0.01-5.53-1.26-5.52-5.6c0.15-50.83,0.17-101.66-0.03-152.49c-0.02-4.93,1.76-5.62,6.01-5.61
			C-483.8-9.09-441.27-9.14-398.75-9.14z M-394.27,134.76c-1.8-2.29-1.32-3.65-1.32-4.9c-0.04-16.28,0.14-32.57-0.14-48.85
			c-0.08-4.48,1.26-5.53,5.59-5.5c30.24,0.19,60.48,0.09,90.72,0.13c1.23,0,2.6-0.53,4.74,1.4c-4.23,3.86-8.37,7.61-12.49,11.39
			c-1.62,1.49-2.62,3.33-0.81,5.17c1.81,1.84,3.61,0.85,5.18-0.72c5.75-5.76,11.5-11.53,17.27-17.27c1.61-1.61,2.36-3.46,0.63-5.24
			c-6.15-6.31-12.39-12.51-18.67-18.69c-1.32-1.3-3.05-1.54-4.44-0.09c-1.36,1.41-1.12,3.05,0.15,4.47
			c1.11,1.23,2.36,2.34,3.48,3.57c2.92,3.19,6.5,5.81,9.23,10c-32.68,0-64.58-0.05-96.48,0.07c-3.51,0.01-4.08-1.43-4.05-4.46
			c0.12-13.79,0.05-27.58,0.05-41.37c0-4.08,0-8.16,0-12.24c0.51-0.34,1.02-0.69,1.54-1.03c3.74,4.13,7.47,8.28,11.22,12.39
			c1.47,1.61,3.28,2.69,5.17,0.94c1.89-1.76,0.99-3.59-0.59-5.17c-6.09-6.11-12.1-12.29-18.74-17.83c-1.61-1.34-2.92-1.25-4.33,0.17
			c-5.98,6-11.99,11.98-17.96,17.99c-1.48,1.49-1.9,3.31-0.33,4.85c1.91,1.86,3.29,0.11,4.57-1.17c3.19-3.15,6.32-6.37,9.55-9.49
			c0.88-0.85,1.62-2.58,3.13-1.89c1.46,0.67,0.75,2.39,0.75,3.62c0.04,16.62-0.12,33.23,0.13,49.85c0.06,4.24-1.57,4.85-5.22,4.84
			c-30.91-0.11-61.81-0.06-92.72-0.1c-1.03,0-2.31,0.62-3.64-1.46c4.11-3.85,8.35-7.79,12.53-11.78c1.27-1.21,3.07-2.36,0.94-4.44
			c-2.01-1.96-3.48-1.01-5.05,0.58c-5.61,5.67-11.25,11.31-16.92,16.92c-2.22,2.2-2.24,4.21-0.01,6.41
			c5.67,5.61,11.31,11.25,16.92,16.92c1.57,1.59,3.03,2.56,5.05,0.6c2.14-2.07,0.32-3.19-0.91-4.45c-4.12-4.17-8.28-8.3-13.25-13.27
			c33.96,0,66.5,0.02,99.04-0.04c2.89-0.01,3.16,1.53,3.15,3.79c-0.04,17.11-0.01,34.23-0.05,51.34c0,1.08,0.57,2.54-0.73,3.16
			c-1.35,0.63-2.02-0.79-2.79-1.54c-3.33-3.25-6.59-6.57-9.9-9.84c-1.29-1.27-2.68-3.06-4.57-1.18c-1.77,1.77-0.96,3.62,0.64,5.21
			c5.76,5.75,11.54,11.49,17.26,17.29c1.72,1.74,3.2,1.99,5.07,0.18c5.96-5.76,12.01-11.43,18.02-17.13
			c1.69-1.61,3.09-3.51,0.95-5.51c-2.13-2-3.98-0.41-5.51,1.26C-386.86,126.58-390.48,130.6-394.27,134.76z"/>
		<path class="st2" d="M-394.27,134.76c3.79-4.16,7.41-8.18,11.07-12.16c1.54-1.68,3.39-3.26,5.51-1.26c2.13,2,0.74,3.91-0.95,5.51
			c-6.01,5.71-12.06,11.37-18.02,17.13c-1.88,1.81-3.36,1.56-5.07-0.18c-5.72-5.8-11.49-11.53-17.26-17.29
			c-1.59-1.59-2.41-3.45-0.64-5.21c1.88-1.88,3.28-0.09,4.57,1.18c3.31,3.27,6.57,6.59,9.9,9.84c0.77,0.75,1.44,2.18,2.79,1.54
			c1.3-0.61,0.73-2.07,0.73-3.16c0.04-17.11,0.01-34.23,0.05-51.34c0.01-2.26-0.27-3.8-3.15-3.79c-32.54,0.06-65.08,0.04-99.04,0.04
			c4.97,4.97,9.12,9.11,13.25,13.27c1.24,1.25,3.05,2.38,0.91,4.45c-2.02,1.96-3.48,0.99-5.05-0.6
			c-5.61-5.67-11.25-11.31-16.92-16.92c-2.23-2.2-2.21-4.21,0.01-6.41c5.67-5.61,11.31-11.25,16.92-16.92
			c1.58-1.59,3.04-2.54,5.05-0.58c2.14,2.08,0.33,3.23-0.94,4.44c-4.18,4-8.43,7.93-12.53,11.78c1.33,2.08,2.61,1.46,3.64,1.46
			c30.91,0.04,61.81-0.02,92.72,0.1c3.65,0.01,5.28-0.6,5.22-4.84c-0.25-16.61-0.09-33.23-0.13-49.85c0-1.24,0.71-2.96-0.75-3.62
			c-1.51-0.69-2.25,1.03-3.13,1.89c-3.23,3.12-6.36,6.33-9.55,9.49c-1.29,1.27-2.66,3.03-4.57,1.17c-1.58-1.54-1.15-3.36,0.33-4.85
			c5.97-6.01,11.98-11.99,17.96-17.99c1.41-1.42,2.73-1.51,4.33-0.17c6.63,5.54,12.65,11.72,18.74,17.83
			c1.58,1.58,2.48,3.42,0.59,5.17c-1.89,1.76-3.7,0.67-5.17-0.94c-3.76-4.12-7.48-8.26-11.22-12.39c-0.51,0.34-1.02,0.69-1.54,1.03
			c0,4.08,0,8.16,0,12.24c0,13.79,0.07,27.58-0.05,41.37c-0.03,3.03,0.55,4.47,4.05,4.46c31.9-0.12,63.79-0.07,96.48-0.07
			c-2.73-4.19-6.31-6.81-9.23-10c-1.12-1.22-2.37-2.33-3.48-3.57c-1.27-1.41-1.51-3.06-0.15-4.47c1.39-1.45,3.12-1.21,4.44,0.09
			c6.27,6.18,12.52,12.39,18.67,18.69c1.73,1.78,0.98,3.63-0.63,5.24c-5.77,5.74-11.52,11.51-17.27,17.27
			c-1.56,1.57-3.37,2.56-5.18,0.72c-1.81-1.84-0.81-3.68,0.81-5.17c4.11-3.78,8.26-7.54,12.49-11.39c-2.13-1.94-3.51-1.4-4.74-1.4
			c-30.24-0.04-60.48,0.06-90.72-0.13c-4.34-0.03-5.67,1.02-5.59,5.5c0.28,16.28,0.1,32.57,0.14,48.85
			C-395.59,131.11-396.07,132.47-394.27,134.76z"/>
	</g>
</g>
</svg>
