<?xml version="1.0" encoding="utf-8"?>
<!-- Generator: Adobe Illustrator 28.4.1, SVG Export Plug-In . SVG Version: 6.00 Build 0)  -->
<svg version="1.1" id="원본" xmlns="http://www.w3.org/2000/svg" xmlns:xlink="http://www.w3.org/1999/xlink" x="0px" y="0px"
	 viewBox="0 0 389.73 389.73" style="enable-background:new 0 0 389.73 389.73;" xml:space="preserve">
<style type="text/css">
	.st0{fill:#333333;}
	.st1{opacity:0.85;fill:#333333;}
	.st2{fill:#676767;}
	.st3{fill:#F6B4B5;}
	.st4{fill:#F7B5B6;}
	.st5{fill:#FFFFFF;}
	.st6{fill:#FEECEA;}
	.st7{fill:#F7B4B6;}
	.st8{fill:#686868;}
	.st9{fill:#727171;}
	.st10{fill:#747474;}
</style>
<rect x="-2219.71" y="-561.17" class="st0" width="1612.17" height="1571.48"/>
<g>
	<circle class="st1" cx="194.86" cy="194.86" r="194.86"/>
	<g>
		<path class="st2" d="M209.69,175.89c0,4.95,0,9.9,0,15.64c5.88-3.67,11.13-6.96,16.91-10.58c0,10.56,0,20.68,0,31.47
			c-5.47-3.39-10.81-6.7-16.83-10.43c0,9.72-0.13,18.77,0.07,27.81c0.07,3.03-0.72,3.91-3.84,3.9c-34.7-0.12-69.39-0.09-104.09-0.04
			c-2.47,0-3.93-0.12-3.88-3.34c0.23-13.77,0.19-27.55,0.24-41.33c6.32,3.8,13.06,6.39,20.49,6.72c18.3,0.8,36.84-10.11,42.25-31.89
			c1.65-0.01,3.31-0.03,4.96-0.04c2.2,5.69,4.52,11.27,9.83,14.97C186.67,186.33,197.05,185.49,209.69,175.89z"/>
		<path class="st3" d="M161.03,163.83c-5.41,21.78-23.95,32.69-42.25,31.89c-7.43-0.33-14.17-2.92-20.49-6.72
			c-11.41-8.79-18.02-20.13-18.09-34.77c-0.08-18.24,14.39-35.38,32.13-39.26c25.36-5.54,50.39,14.26,49.56,42
			C161.82,159.27,161.32,161.55,161.03,163.83z M121.14,171.82c9.63-0.05,16.81-7.33,16.85-17.07c0.04-9.62-7.32-16.88-17.06-16.82
			c-9.7,0.06-16.89,7.34-16.83,17.05C104.15,164.67,111.43,171.87,121.14,171.82z"/>
		<path class="st3" d="M209.69,175.89c-12.64,9.6-23.02,10.44-33.88,2.88c-5.31-3.7-7.63-9.28-9.83-14.97
			c-1.03-12.65,3.08-22.54,15.23-27.94c9.44-4.2,20.38-1.81,27.83,5.9c7.02,7.25,8.81,18.51,4.32,27.67
			C212.28,171.64,210.93,173.74,209.69,175.89z"/>
		<path class="st2" d="M301.5,195.83c0-25.05,0.03-50.11-0.04-75.16c-0.01-2.89-0.16-4.88,3.95-4.84c3.86,0.04,4.13,1.57,4.12,4.69
			c-0.08,50.11-0.07,100.22-0.02,150.32c0,2.89,0.16,4.88-3.95,4.84c-3.86-0.04-4.14-1.57-4.12-4.69
			C301.55,245.93,301.5,220.88,301.5,195.83z"/>
		<path class="st3" d="M288.34,143.65c-0.07,1.76-7.34,6.76-8.95,6.15c-0.97-0.37-1.65-1.15-1.6-2.26c0.05-1.17,7.31-6.56,8.53-6.34
			C287.66,141.45,287.94,142.65,288.34,143.65z"/>
		<path class="st3" d="M247.39,173.5c-1.17,0.1-1.6-0.59-2.05-1.3c-0.48-0.75-0.8-1.66-0.05-2.22c2.36-1.76,4.8-3.43,7.28-5.01
			c0.74-0.48,1.58-0.04,2.19,0.62c0.6,0.66,1.03,1.46,0.4,2.19C252.97,170.31,250.06,171.88,247.39,173.5z"/>
		<path class="st3" d="M253.46,227.61c-0.51,1.47-1.43,2.74-3.2,1.75c-2.29-1.29-4.51-2.77-6.51-4.45c-1.86-1.56-0.6-3.06,0.89-3.88
			C245.87,220.34,253.41,226.06,253.46,227.61z"/>
		<path class="st3" d="M284.44,253.59c-3.19-1.94-6.47-3.39-8.42-6.33c-0.89-1.34,0.68-2.92,1.9-2.58c3.19,0.87,5.88,2.99,8.07,5.36
			C287.16,251.31,285.43,252.52,284.44,253.59z"/>
		<path class="st3" d="M271.71,155.16c-0.05,1.87-7.29,7.08-8.74,6.36c-1.1-0.54-2.06-1.87-1.21-2.78c2.21-2.36,4.61-4.71,7.83-5.61
			C270.85,152.77,271.39,154.2,271.71,155.16z"/>
		<path class="st3" d="M262.09,232.85c2.55,1.41,5.09,3.16,7.26,5.38c0.62,0.64,0.32,1.56-0.19,2.26c-0.49,0.68-1.21,1.37-2.04,0.82
			c-2.43-1.61-4.82-3.3-7.12-5.09c-0.68-0.53-0.54-1.49-0.07-2.25C260.38,233.24,260.94,232.69,262.09,232.85z"/>
		<path class="st3" d="M300.27,135.35c-0.97,1.46-2.07,3.13-3.97,3.15c-1.22,0.01-2.55-1.33-2.25-2.69c0.42-1.95,2.32-2.68,4.1-2.81
			C299.38,132.91,300.11,133.99,300.27,135.35z"/>
		<path class="st3" d="M236.34,176.05c1.72,0.38,2.9,1.37,2.84,2.62c-0.1,2.16-2.2,2.69-3.87,3.07c-1.18,0.27-2.35-0.78-2.26-2.02
			C233.21,177.69,235.24,177.16,236.34,176.05z"/>
		<path class="st3" d="M294.8,255.89c1.33,1,3.29,1.65,3.33,3.7c0.03,1.21-1.13,2.21-2.33,1.88c-1.64-0.45-3.63-1.01-3.27-3.45
			C292.7,256.86,293.3,255.89,294.8,255.89z"/>
		<path class="st3" d="M234.42,217.8c-1.51-0.47-3.17-1.11-3.34-2.99c-0.12-1.28,1.06-2.28,2.26-2.04c1.54,0.31,3.32,0.9,3.37,2.99
			C236.74,217.09,235.97,217.88,234.42,217.8z"/>
	</g>
</g>
<g>
	<circle class="st1" cx="-365.48" cy="-270.92" r="194.86"/>
	<g>
		<path class="st4" d="M-399.45-209.11c-9.78-10.46-15.09-22.77-14.92-37.17c0.09-7.35,2.02-14.33,5.44-20.9
			c1.24-2.38,3.14-4.54,1.77-7.8c-0.77-1.83,0.98-3.07,2.93-2.94c2.36,0.16,3.69-1.09,4.78-2.87c6.53-6.36,14.48-10.21,23.01-13.04
			c1.49-0.08,3-0.05,4.48-0.28c1.11-0.17,2.47-0.4,1.52-2.2c-2.07-3.92-0.61-8.15-0.95-12.22c-0.17-2.01,0.78-3.89,2.89-3.95
			c2.14-0.06,3.12,1.81,3.01,3.82c-0.24,4.41,1.04,8.97-1.27,13.43c3.5,0.56,7.03,0.03,10.33,1.17c10.56,1.18,19.18,6.33,26.96,13.2
			c19.21,20.3,20.64,49.63,0,71.82c-2.07,1.65-3.93,3.71-6.25,4.86c-4.27,2.13-4.04,4.34-0.99,7.3c1.7,1.65,3.57,3.6,0.99,5.84
			c-2.45,2.13-4.2-0.04-5.21-1.79c-2.94-5.13-6.86-5.98-11.97-3.62c-1.01,0.47-2.26,0.42-3.4,0.61c-6.7,2.01-13.37,0.18-20.05-0.17
			c-8.67-3.31-8.67-3.31-14.36,3.14c-0.33,0.37-0.68,0.73-1.01,1.1c-1.39,1.57-2.9,2.24-4.68,0.61c-1.58-1.45-1.09-2.91,0.05-4.37
			c1.72-2.21,5.07-4.81,4.69-6.59c-0.49-2.27-4-3.89-6.21-5.79C-398.37-208.33-398.92-208.71-399.45-209.11z M-396.4-245.67
			c-0.37,2.79,0.53,5.32,1.63,7.73c2.17,4.79,8.23,6.99,13.53,5.04c4.86-1.79,7.41-6.48,5.94-10.95c-1.7-5.16-4.9-6.53-11.89-4.71
			c-2.16,0.56-2.38-0.18-1.99-1.86c0.81-3.57,3.33-4.24,7.17-1.73c2.05,1.33,4.57,1.93,5.79,0.04c1.34-2.07-0.71-3.86-2.65-5.01
			c-3.67-2.18-7.55-2.74-11.38-0.76C-395.16-255.34-396.07-250.58-396.4-245.67z M-345.45-250.61c0-1.45-0.06-2.75,0.01-4.05
			c0.13-2.53-0.53-4.2-3.55-4.12c-2.92,0.07-2.47,2.11-2.48,3.88c-0.03,5.99,0,11.99-0.02,17.98c-0.01,2.07-0.18,3.96,2.92,4.02
			c3.4,0.07,3.2-2.03,3.17-4.27c-0.02-2-0.11-4.01,0.07-5.99c0.17-1.86,0.65-3.79,3.11-3.74c2.46,0.05,2.87,1.83,2.87,3.83
			c0,2.16,0.09,4.33-0.02,6.49c-0.12,2.4,0.52,3.65,3.3,3.7c2.98,0.05,3.79-1.23,3.59-3.9c-0.14-1.82-0.02-3.66-0.03-5.49
			C-332.52-251.94-336.32-254.5-345.45-250.61z M-372.44-243.07c-0.37,4.24,0.8,7.87,4.7,9.72c4.04,1.91,8.11,1.24,11.63-1.6
			c1.53-1.24,2.44-3.02,1.11-4.81c-1.25-1.68-3-0.95-4.48-0.04c-0.55,0.34-0.89,1.03-1.44,1.34c-1.8,1.01-3.59,1.11-4.7-0.94
			c-1.52-2.82-1.1-5.6,1.18-7.75c1.63-1.53,3.11-0.49,4.02,1.17c1.34,2.46,3.38,2.23,5.01,0.87c2.17-1.8,0.63-3.65-0.85-5.01
			c-3.1-2.86-6.72-3.43-10.61-1.8C-370.8-250.28-372.99-247.47-372.44-243.07z"/>
		<path class="st2" d="M-369.48-358.67c-24.77,0.22-48.86,4.4-72.28,12.42c-4.23,1.45-8.39,3.11-12.59,4.68
			c-2.06-1.79-4.15-3.57-5.09-6.27c28.02-12.28,57.5-17.8,87.92-18.94c2.1,3.65,4.15,3.63,6.15-0.07
			c32.43-0.12,63.78,5.31,93.69,18.2c-1.63,2.35-2.83,5.08-5.76,6.22c-28.81-11.89-58.84-17.05-89.93-16.3
			C-368.07-358.71-368.78-358.69-369.48-358.67z"/>
		<path class="st2" d="M-288.89-176.98c-16.46,0.37-15.76-0.26-15.58-15.53c0.04-3.16-0.04-6.32,0.02-9.48
			c0.07-4.35,2.13-6.91,6.66-6.95c6.15-0.06,12.31-0.07,18.47,0c4.38,0.06,6.81,2.27,6.83,6.78c0.03,6.16,0.08,12.31-0.02,18.47
			c-0.07,4.41-2.42,6.71-6.89,6.72C-282.57-176.98-285.73-176.98-288.89-176.98z"/>
		<path class="st2" d="M-428.4-193.38c0,3.16,0.05,6.32-0.01,9.48c-0.08,4.36-2.19,6.87-6.71,6.91c-6.15,0.05-12.31,0.08-18.47-0.01
			c-4.39-0.06-6.77-2.33-6.79-6.82c-0.02-5.99-0.09-11.98,0.02-17.97c0.09-5.12,2.17-7.08,7.44-7.16c5.66-0.08,11.31-0.08,16.97,0
			c5.48,0.08,7.43,2.08,7.54,7.58C-428.36-198.71-428.4-196.05-428.4-193.38z"/>
		<path class="st2" d="M-272.49-244.98c0.34,17.11-0.06,16.17-16.09,16.03c-2.99-0.03-5.99,0.04-8.98-0.02
			c-4.36-0.09-6.87-2.2-6.9-6.72c-0.04-6.16-0.08-12.31,0.01-18.47c0.06-4.39,2.34-6.77,6.83-6.78c5.99-0.02,11.98-0.09,17.97,0.02
			c5.12,0.1,7.04,2.18,7.15,7.45C-272.44-250.63-272.49-247.8-272.49-244.98z"/>
		<path class="st2" d="M-444.27-228.95c-17.08,0.32-16.08,0.05-16.17-16c-0.09-17.11,0.16-16.13,16.18-15.99
			c2.83,0.02,5.66-0.06,8.48,0.02c5.22,0.14,7.27,2.11,7.35,7.25c0.09,5.82,0.1,11.65,0,17.47c-0.09,5.17-2.14,7.12-7.36,7.24
			C-438.62-228.9-441.45-228.96-444.27-228.95z"/>
		<path class="st2" d="M-428.33-299.93c-0.02,4,0.04,8-0.09,11.99c-0.16,4.88-2.19,6.9-7.12,6.99c-5.99,0.1-11.99,0.08-17.99,0
			c-4.38-0.06-6.82-2.27-6.84-6.78c-0.03-6.16-0.09-12.33,0.02-18.49c0.08-4.42,2.46-6.71,6.93-6.69
			c5.33,0.02,10.66,0.06,15.98,0.09C-436.4-307.11-431.5-304.14-428.33-299.93z"/>
		<path class="st2" d="M-294.43-312.82c4.82-0.03,9.65-0.14,14.47-0.07c5.27,0.07,7.36,2.06,7.45,7.15c0.1,5.99,0.08,11.98,0,17.97
			c-0.06,4.37-2.27,6.82-6.77,6.84c-6.15,0.03-12.31,0.08-18.46-0.02c-4.4-0.07-6.73-2.41-6.72-6.89c0-3.99,0.04-7.98,0.06-11.98
			C-299.91-303.26-296.21-307.3-294.43-312.82z"/>
		<path class="st2" d="M-376.43-293.83c-8.53,2.84-16.48,6.69-23.01,13.04c-7.68-0.46-8.96-1.85-8.97-9.73
			c0-4.97-0.06-9.95,0.02-14.92c0.09-5.26,2.06-7.36,7.11-7.45c5.97-0.1,11.94-0.12,17.9,0.01c4.83,0.11,6.82,2.21,6.93,7.12
			C-376.36-301.79-376.43-297.81-376.43-293.83z"/>
		<path class="st2" d="M-329.46-280.86c-7.78-6.87-16.39-12.02-26.96-13.2c-0.01-3.83-0.09-7.66,0-11.49
			c0.11-5.24,2.1-7.27,7.26-7.35c5.83-0.09,11.66-0.1,17.49,0c5.16,0.09,7.13,2.15,7.2,7.41c0.08,5.66-0.06,11.33,0.04,16.99
			C-324.37-284.72-325.77-282.08-329.46-280.86z"/>
		<path class="st2" d="M-399.45-209.11c0.53,0.4,1.07,0.77,1.57,1.2c2.22,1.89,5.73,3.52,6.21,5.79c0.38,1.78-2.97,4.38-4.69,6.59
			c-1.14,1.46-1.63,2.92-0.05,4.37c1.78,1.63,3.3,0.96,4.68-0.61c0.33-0.37,0.68-0.73,1.01-1.1c5.69-6.45,5.69-6.45,14.36-3.14
			c-0.03,3.97,0.02,7.95-0.1,11.93c-0.15,4.91-2.14,7.01-6.96,7.07c-6.62,0.08-13.25-0.06-19.87-0.1c1-1.31,1.97-2.64,3.01-3.92
			c1.4-1.71,2.15-3.56,0.23-5.24c-1.84-1.61-3.3-0.2-4.73,1.04c-1.22,1.06-1.64,2.98-3.56,3.27c-0.03-5.8-0.08-11.6-0.08-17.41
			C-408.42-207.31-407.15-208.67-399.45-209.11z"/>
		<path class="st2" d="M-356.29-195.84c1.14-0.19,2.39-0.15,3.4-0.61c5.12-2.36,9.04-1.51,11.97,3.62c1,1.75,2.76,3.92,5.21,1.79
			c2.58-2.25,0.71-4.2-0.99-5.84c-3.05-2.95-3.28-5.17,0.99-7.3c2.32-1.15,4.18-3.21,6.25-4.86c3.76,1.35,5.19,4.01,5.05,7.98
			c-0.22,6.07-0.1,12.15-0.12,18.22c-0.83-0.77-1.71-1.48-2.49-2.3c-1.31-1.4-2.75-2.72-4.65-1.27c-2.03,1.56-1.42,3.38-0.03,5.17
			c0.99,1.27,2.46,2.3,2.42,4.17c-6.65,0.03-13.3,0.14-19.94,0.06c-5.16-0.07-7.13-2.14-7.21-7.37
			C-356.48-188.2-356.34-192.02-356.29-195.84z"/>
		<path class="st4" d="M-477.96-374.88c6.36-0.12,11.49,4.53,11.58,10.48c0.1,6.89-3.83,11.29-10.24,11.48
			c-6.37,0.19-11.59-4.39-11.73-10.31C-488.51-369.61-483.91-374.77-477.96-374.88z"/>
		<path class="st4" d="M-378.42-397.54c0.02-6.38,4.79-11.39,10.78-11.32c6.41,0.08,11.32,4.87,11.2,10.91
			c-0.13,6.14-4.77,11.02-10.53,11.06C-373.36-386.84-378.44-391.57-378.42-397.54z"/>
		<path class="st4" d="M-305.5-153.97c4.44-1.36,8.81-1.79,12.76,1.32c4.94,3.89,5.73,10.75,1.87,15.48
			c-3.97,4.85-10.82,5.61-15.49,1.72c-5.03-4.19-5.54-10.82-1.23-15.85c0.75-0.87,1.43-1.8,2.15-2.7L-305.5-153.97z"/>
		<path class="st4" d="M-244.51-364.12c-0.06,6.36-4.88,11.33-10.89,11.21c-6.16-0.13-11.03-4.75-11.09-10.51
			c-0.06-6.4,4.64-11.47,10.63-11.47C-249.48-374.88-244.46-370.12-244.51-364.12z"/>
		<path class="st4" d="M-434.84-133.01c-6.38,0.1-11.51-4.59-11.55-10.55c-0.04-6.38,4.7-11.45,10.67-11.42
			c6.17,0.02,11.13,4.55,11.3,10.3C-424.23-138.34-428.91-133.1-434.84-133.01z"/>
		<path class="st2" d="M-264.58-345.33c10.43,5.14,20.29,11.21,29.42,18.42c3.29,2.6,3.45,5.49,0.66,7.31
			c-2.37,1.55-4.07,0.02-5.78-1.29c-9.38-7.15-19.23-13.51-30.09-18.21C-269.24-341.9-267.84-344.48-264.58-345.33z"/>
		<path class="st2" d="M-461.44-338.27c-10.2,4.56-19.69,10.31-28.61,17.01c-2.35,1.76-4.74,3.87-7.26,0.71
			c-2.83-3.56,0.38-5.39,2.7-7.16c8.87-6.77,18.56-12.22,28.42-17.38C-463.96-343.28-461.48-341.63-461.44-338.27z"/>
		<path class="st4" d="M-329.28-177.06c0.04-1.88-1.43-2.91-2.42-4.17c-1.39-1.79-2-3.61,0.03-5.17c1.89-1.45,3.33-0.12,4.65,1.27
			c0.77,0.82,1.65,1.54,2.49,2.3c1.25,1.74,2.44,3.54,3.79,5.2c1.32,1.62,1.89,3.27,0.21,4.82c-1.7,1.57-3.31,0.68-4.83-0.63
			C-326.72-174.6-327.23-176.67-329.28-177.06z"/>
		<path class="st4" d="M-294.43-312.82c-1.78,5.52-5.48,9.56-9.97,13c-3.92-0.24-3.84-2.65-2.32-5.07c1.89-3.01,4.18-5.8,6.48-8.52
			C-298.17-315.88-296.21-314.66-294.43-312.82z"/>
		<path class="st4" d="M-264.58-345.33c-3.26,0.85-4.66,3.42-5.8,6.24c-0.29,0.16-0.59,0.3-0.87,0.47
			c-1.65,1.05-2.64,3.71-5.38,1.98c-2.62-1.66-0.7-3.85-0.81-5.79c2.93-1.14,4.14-3.88,5.76-6.22c1.75-1.03,3.12-3.15,5.67-1.91
			C-263.5-349.34-265.65-346.91-264.58-345.33z"/>
		<path class="st4" d="M-408.33-181.97c1.91-0.29,2.34-2.21,3.56-3.27c1.43-1.24,2.88-2.65,4.73-1.04c1.93,1.68,1.17,3.53-0.23,5.24
			c-1.04,1.28-2.01,2.61-3.01,3.92c-1.08,1.22-2.14,2.46-3.25,3.66c-1.39,1.51-3.08,2.14-4.75,0.68c-1.69-1.47-1.26-3.17,0.09-4.76
			C-410.05-178.88-408.4-179.92-408.33-181.97z"/>
		<path class="st4" d="M-413.63-165.42c-0.06,1.77-8.07,10.95-9.93,11.34c-1.2,0.25-2.32,0.07-3.12-0.98
			c-0.66-0.87-0.88-1.92-0.21-2.77c2.74-3.49,5.52-6.95,8.41-10.32c0.82-0.96,2.06-0.97,3.14-0.13
			C-414.41-167.55-413.66-166.69-413.63-165.42z"/>
		<path class="st4" d="M-428.33-299.93c-3.16-4.21-8.07-7.18-9.11-12.89c1.03-1.1,2.08-2.13,3.8-1.67c1.33,0.36,9.9,10.1,9.84,11.45
			C-423.95-300.15-425.93-299.67-428.33-299.93z"/>
		<path class="st4" d="M-289.98-317.88c-2.05-0.86-4.23-1.96-2.64-4.29c2.48-3.63,5.45-6.95,8.43-10.2c0.9-0.98,2.48-0.73,3.62,0.23
			c1.03,0.86,1.26,2,0.59,3.1c-2.29,3.82-4.99,7.33-8.32,10.31C-288.75-318.32-289.42-318.15-289.98-317.88z"/>
		<path class="st4" d="M-438.8-320.6c-0.99,1.9-2.46,3.95-4.74,1.79c-3.08-2.92-5.96-6.18-8.3-9.71c-1.45-2.18-0.16-4.21,2.73-4.29
			C-447.25-332.87-438.67-322.72-438.8-320.6z"/>
		<path class="st4" d="M-305.45-154.01c-3.41-0.21-12.68-8.59-12.59-11.63c0.06-2.06,1.39-3.41,3.58-3.08
			c3.1,0.47,9.84,11.74,8.97,14.75C-305.5-153.97-305.45-154.01-305.45-154.01z"/>
		<path class="st4" d="M-319.77-281.3c-3.05-0.88-3.58-3.11-2.04-5.34c2.15-3.11,4.83-5.86,7.34-8.72c0.77-0.88,1.73-1.68,3.01-0.84
			c1.14,0.75,2.46,1.81,1.79,3.19c-2.18,4.49-5.34,8.28-9.15,11.52C-319.03-281.31-319.44-281.36-319.77-281.3z"/>
		<path class="st4" d="M-461.44-338.27c-0.04-3.35-2.52-5-4.76-6.82c-0.36-1.77-2.24-3.75,0.11-5.25c3.11-1.99,4.51,1.41,6.65,2.5
			c0.94,2.71,3.02,4.48,5.09,6.27c0.42,1.75,1.19,3.48-0.84,4.9C-457.99-334.71-459.24-338.24-461.44-338.27z"/>
		<path class="st4" d="M-369.48-358.67c0.7-0.02,1.41-0.03,2.11-0.05c1.74,2.24,2.93,14.18,1.44,16.08c-1.54,1.97-3.44,1.95-5,0.02
			C-372.44-344.48-371.23-356.46-369.48-358.67z"/>
		<path class="st4" d="M-371.41-327.09c0-1.83-0.01-3.66,0.01-5.49c0.01-1.84,1.21-2.83,2.78-2.94c1.59-0.11,3.03,0.76,3.09,2.56
			c0.12,3.99,0.1,7.99,0.01,11.98c-0.04,1.8-1.37,2.75-2.98,2.7c-1.58-0.04-2.85-0.99-2.9-2.81
			C-371.46-323.1-371.41-325.1-371.41-327.09z"/>
		<path class="st4" d="M-409.39-285.5c-0.01,1.86-0.04,2.91-1.17,3.34c-1.49,0.56-3.06,0.51-4.14-0.74
			c-2.37-2.75-4.63-5.59-6.85-8.46c-1.18-1.53-1-3.08,0.47-4.41c1.8-1.63,3.02-0.37,4.18,0.87
			C-413.98-291.79-411.21-288.58-409.39-285.5z"/>
		<path class="st4" d="M-365.36-366.85c-2.01,3.71-4.06,3.72-6.15,0.07c0.03-3.66,0.01-7.33,0.12-10.99c0.06-2.02,1-3.82,3.18-3.68
			c1.78,0.11,2.74,1.71,2.76,3.61C-365.41-374.18-365.39-370.52-365.36-366.85z"/>
		<path class="st5" d="M-396.4-245.67c0.33-4.91,1.25-9.67,6.15-12.21c3.83-1.98,7.71-1.42,11.38,0.76
			c1.94,1.15,3.99,2.94,2.65,5.01c-1.22,1.89-3.75,1.3-5.79-0.04c-3.84-2.5-6.36-1.83-7.17,1.73c-0.38,1.68-0.16,2.42,1.99,1.86
			c6.99-1.82,10.19-0.45,11.89,4.71c1.47,4.46-1.08,9.16-5.94,10.95c-5.3,1.95-11.36-0.25-13.53-5.04
			C-395.87-240.36-396.78-242.88-396.4-245.67z M-381.44-241.49c-0.45-1.99-1.63-3.46-3.95-3.4c-2.23,0.06-3.94,1.31-3.8,3.59
			c0.16,2.49,2.05,3.55,4.51,3.43C-382.5-237.98-381.44-239.15-381.44-241.49z"/>
		<path class="st5" d="M-345.45-250.61c9.13-3.89,12.93-1.33,12.95,8.34c0,1.83-0.11,3.67,0.03,5.49c0.2,2.67-0.61,3.95-3.59,3.9
			c-2.77-0.04-3.42-1.3-3.3-3.7c0.11-2.16,0.02-4.33,0.02-6.49c0-2-0.42-3.78-2.87-3.83c-2.46-0.05-2.94,1.87-3.11,3.74
			c-0.18,1.98-0.09,3.99-0.07,5.99c0.03,2.24,0.23,4.34-3.17,4.27c-3.1-0.06-2.92-1.95-2.92-4.02c0.02-5.99-0.01-11.99,0.02-17.98
			c0.01-1.77-0.43-3.8,2.48-3.88c3.02-0.08,3.68,1.59,3.55,4.12C-345.51-253.36-345.45-252.06-345.45-250.61z"/>
		<path class="st5" d="M-372.44-243.07c-0.55-4.4,1.64-7.2,5.57-8.85c3.89-1.63,7.51-1.06,10.61,1.8c1.48,1.37,3.02,3.21,0.85,5.01
			c-1.64,1.36-3.67,1.59-5.01-0.87c-0.91-1.66-2.39-2.71-4.02-1.17c-2.29,2.16-2.7,4.94-1.18,7.75c1.11,2.06,2.9,1.95,4.7,0.94
			c0.56-0.31,0.9-1,1.44-1.34c1.48-0.91,3.22-1.65,4.48,0.04c1.33,1.79,0.43,3.57-1.11,4.81c-3.52,2.84-7.59,3.51-11.63,1.6
			C-371.64-235.2-372.81-238.83-372.44-243.07z"/>
		<path class="st4" d="M-381.44-241.49c0.01,2.34-1.06,3.52-3.24,3.62c-2.46,0.12-4.35-0.94-4.51-3.43
			c-0.14-2.28,1.57-3.53,3.8-3.59C-383.07-244.95-381.89-243.48-381.44-241.49z"/>
	</g>
</g>
<g>
	<circle class="st1" cx="444.21" cy="-708.91" r="194.86"/>
	<g>
		<path class="st6" d="M380.92-642.11c-17.28,0-34.56-0.08-51.85,0.06c-3.64,0.03-5.27-0.6-5.25-4.84
			c0.17-39.38,0.15-78.76,0.02-118.14c-0.01-3.75,1.12-4.77,4.82-4.77c76.61,0.1,153.21,0.1,229.82,0c3.69,0,4.83,1.01,4.82,4.77
			c-0.12,39.38-0.14,78.76,0.02,118.14c0.02,4.25-1.61,4.88-5.25,4.85c-15.95-0.15-31.9-0.06-47.86-0.06
			c-0.56-1.62,1.06-1.35,1.68-1.76c5.54-3.64,7.13-10.44,3.75-16.5c-3-5.38-10.05-7.28-15.94-4.3c-5.6,2.84-7.66,9.67-5.33,15.7
			c1.26,3.27,4.57,4.2,6.2,6.86c-16.73,0-33.45,0-50.18,0c-0.56-1.62,1.06-1.35,1.68-1.76c5.54-3.64,7.13-10.44,3.75-16.5
			c-3-5.38-10.05-7.28-15.94-4.3c-5.6,2.84-7.66,9.67-5.33,15.7c1.26,3.27,4.57,4.2,6.2,6.86c-16.73,0-33.45,0-50.18,0
			c-0.56-1.62,1.06-1.35,1.68-1.76c5.54-3.64,7.13-10.44,3.75-16.5c-3-5.38-10.05-7.28-15.94-4.3c-5.6,2.84-7.66,9.67-5.33,15.7
			C375.99-645.71,379.3-644.77,380.92-642.11z"/>
		<path class="st7" d="M380.92-642.11c-1.62-2.66-4.93-3.6-6.2-6.86c-2.33-6.02-0.27-12.86,5.33-15.7
			c5.89-2.98,12.94-1.08,15.94,4.3c3.38,6.05,1.79,12.85-3.75,16.5c-0.62,0.41-2.24,0.14-1.68,1.76c3.41,2.51,7.53,3.97,10.08,7.78
			c3.72,5.57,3.03,11.69,3.02,17.79c0,2.12-1.37,2.34-3,2.34c-9.95-0.01-19.91-0.05-29.86,0.03c-2.5,0.02-2.84-1.21-3.08-3.36
			C366.51-628.8,370.17-637.33,380.92-642.11z"/>
		<path class="st7" d="M440.74-642.11c-1.62-2.66-4.93-3.6-6.2-6.86c-2.33-6.02-0.27-12.86,5.33-15.7
			c5.89-2.98,12.94-1.08,15.94,4.3c3.38,6.05,1.79,12.85-3.75,16.5c-0.62,0.41-2.24,0.14-1.68,1.76c3.41,2.51,7.53,3.97,10.08,7.78
			c3.72,5.57,3.03,11.69,3.02,17.79c0,2.12-1.37,2.34-3,2.34c-9.95-0.01-19.91-0.05-29.86,0.03c-2.5,0.02-2.84-1.21-3.07-3.36
			C426.33-628.8,429.99-637.33,440.74-642.11z"/>
		<path class="st7" d="M500.57-642.11c-1.62-2.66-4.93-3.6-6.2-6.86c-2.33-6.02-0.27-12.86,5.33-15.7
			c5.89-2.98,12.94-1.08,15.94,4.3c3.38,6.05,1.79,12.85-3.75,16.5c-0.62,0.41-2.24,0.14-1.68,1.76c3.41,2.51,7.53,3.97,10.08,7.78
			c3.72,5.57,3.03,11.69,3.02,17.79c0,2.12-1.37,2.34-3,2.34c-9.95-0.01-19.91-0.05-29.86,0.03c-2.5,0.02-2.84-1.21-3.07-3.36
			C486.16-628.8,489.82-637.33,500.57-642.11z"/>
		<path class="st8" d="M322.04-803.62c1.77,0.75,2.51,1.79,1.14,3.39c-0.96,1.13-2.07,2.13-3.11,3.18c-3.2,3.24-3.05,7.37-0.1,10.8
			c1.41,1.64,5.54,3.13,3.21,5.55c-2.85,2.95-4.31-1.53-5.87-3.03c-8.19-7.84-8.12-7.95-0.09-15.89
			C318.7-801.08,319.83-803.05,322.04-803.62z"/>
		<path class="st8" d="M577.22-791.63c-0.24,0.41-0.45,1.05-0.88,1.49c-3.12,3.18-6.29,6.32-9.44,9.47
			c-0.91,0.91-1.88,1.4-2.99,0.32c-1.1-1.07-0.57-1.96,0.21-3c2.22-2.96,7.03-4.5,6.78-8.58c-0.23-3.64-4.58-5.3-6.82-8.09
			c-0.68-0.85-1.15-1.66-0.45-2.63c0.65-0.9,1.7-1.39,2.55-0.57c3.57,3.43,7.04,6.96,10.53,10.48
			C576.93-792.54,576.99-792.17,577.22-791.63z"/>
		<path class="st9" d="M330.49-789.56c-1.4-0.61-3.95,1.14-4.21-1.88c-0.27-3.13,2.28-2.29,3.83-2.16c1.47,0.12,3.92-1.4,4.21,1.68
			C334.61-788.72,332.08-789.95,330.49-789.56z"/>
		<path class="st10" d="M379.25-789.55c-1.48-0.53-4.09,1.08-4.12-2c-0.04-3.44,2.78-1.97,4.4-2.07c1.52-0.09,4.05-1.01,3.89,2.09
			C383.25-788.45,380.71-790.1,379.25-789.55z"/>
		<path class="st9" d="M428.33-789.58c-1.45-0.55-4.26,1.18-4.13-2.37c0.11-2.91,2.42-1.67,3.73-1.65c1.52,0.03,4-1.26,4.31,1.68
			C432.57-788.78,430.01-789.9,428.33-789.58z"/>
		<path class="st9" d="M460.74-793.83c1.67,0.6,4.25-1.05,4.22,2.14c-0.02,3.11-2.52,1.99-4.04,1.98c-1.52-0.01-4.04,1.15-4.05-1.97
			C456.87-794.9,459.58-793.04,460.74-793.83z"/>
		<path class="st10" d="M509.94-789.5c-1.81-0.48-4.41,0.85-4.2-2.27c0.23-3.36,3-1.65,4.63-1.85c1.37-0.17,3.63-0.92,3.67,1.81
			C514.08-788.19,511.09-790.39,509.94-789.5z"/>
		<path class="st9" d="M558.96-789.58c-1.44-0.56-4.26,1.19-4.14-2.36c0.1-2.91,2.42-1.69,3.72-1.66c1.52,0.04,4-1.28,4.32,1.68
			C563.2-788.77,560.64-789.9,558.96-789.58z"/>
		<path class="st8" d="M346.63-789.61c-1.67-0.34-4.23,0.86-3.88-2.32c0.33-3.01,2.81-1.52,4.32-1.64c1.52-0.12,4.06-1.02,3.73,2.19
			C350.47-788.25,347.9-790.34,346.63-789.61z"/>
		<path class="st8" d="M362.79-789.6c-1.45-0.54-4.08,1.12-3.93-2.17c0.14-3.17,2.67-1.77,4.11-1.79c1.43-0.02,4.05-1.34,3.91,1.97
			C366.75-788.39,364.19-790.21,362.79-789.6z"/>
		<path class="st8" d="M395.58-789.6c-1.49-0.5-4.09,1.07-3.95-2.17c0.13-3.17,2.67-1.74,4.12-1.78c1.45-0.05,4.04-1.26,3.91,1.99
			C399.53-788.35,396.95-790.24,395.58-789.6z"/>
		<path class="st8" d="M411.66-793.72c1.41,0.62,4-1.2,4.12,1.97c0.13,3.23-2.48,2.03-3.94,1.99c-1.45-0.04-3.98,1.39-4.12-1.79
			C407.57-794.85,410.21-793.18,411.66-793.72z"/>
		<path class="st8" d="M444.48-789.6c-1.47-0.51-4.06,1.08-3.89-2.18c0.17-3.13,2.65-1.73,4.1-1.78c1.46-0.05,4.01-1.2,3.85,2.02
			C448.39-788.37,445.84-790.23,444.48-789.6z"/>
		<path class="st8" d="M477.54-793.71c1.63,0.37,4.19-0.93,3.87,2.31c-0.31,3.09-2.79,1.53-4.28,1.65
			c-1.51,0.12-4.08,1.03-3.77-2.15C473.66-794.98,476.22-793.04,477.54-793.71z"/>
		<path class="st8" d="M493.37-789.6c-1.56-0.44-4.16,1-3.89-2.26c0.25-3.1,2.74-1.64,4.21-1.7c1.45-0.06,4.07-1.22,3.8,2.08
			C497.24-788.36,494.7-790.26,493.37-789.6z"/>
		<path class="st8" d="M526.31-789.59c-1.42-0.59-3.99,1.18-4.06-2.03c-0.07-3.28,2.53-1.93,3.97-1.93c1.44,0,3.99-1.36,4.06,1.84
			C530.35-788.43,527.73-790.17,526.31-789.59z"/>
		<path class="st8" d="M542.34-789.59c-1.41-0.59-4.03,1.18-4-2.08c0.03-3.22,2.59-1.87,4.04-1.88c1.46-0.01,4.04-1.29,4.03,1.91
			C546.38-788.43,543.77-790.18,542.34-789.59z"/>
	</g>
</g>
</svg>
