<?xml version="1.0" encoding="utf-8"?>
<!-- Generator: Adobe Illustrator 27.4.0, SVG Export Plug-In . SVG Version: 6.00 Build 0)  -->
<svg version="1.1" xmlns="http://www.w3.org/2000/svg" xmlns:xlink="http://www.w3.org/1999/xlink" x="0px" y="0px"
	 viewBox="0 0 139.66 151.67" style="enable-background:new 0 0 139.66 151.67;" xml:space="preserve">
<style type="text/css">
	.st0{fill:#809583;}
	.st1{fill:#E0EBE0;}
	.st2{fill:#96B1C0;}
	.st3{fill:#CDE0E9;}
	.st4{fill:#B598C1;}
	.st5{fill:#ECDEED;}
	.st6{fill:#B88B8B;}
	.st7{fill:#7B9EC3;}
	.st8{fill:#D4E3F2;}
	.st9{fill:#C9B991;}
	.st10{fill:#FBF2DF;}
	.st11{fill:#ADABAB;}
	.st12{fill:#EFEEED;}
	.st13{fill:#949DBE;}
</style>
<g id="레이어_1">
	<g>
		<path class="st0" d="M704.32-680.16c-7.22,0-14.44-0.02-21.66,0.01c-1.32,0.01-1.68-0.9-1.96-1.85c-0.55-1.94-0.85-3.95-1.27-5.92
			c-0.96-4.46-1.89-8.93-2.84-13.4c-1.03-4.83-1.92-9.7-2.85-14.56c-1.47-7.71-3.08-15.39-4.63-23.09
			c-1.82-9.05-3.69-18.08-5.44-27.14c-1.69-8.8-0.1-17.01,5.07-24.35c3.66-5.19,8.68-8.12,15.18-8.1c1.29,0,2.57-0.01,3.86,0.01
			c0.64,0.01,0.88-0.24,0.87-0.89c-0.02-5.29-0.02-10.58,0-15.87c0-0.71-0.33-0.98-0.97-1c-0.5-0.01-1-0.01-1.49-0.01
			c-7.14,0-14.28-0.12-21.41,0.03c-10.03,0.22-17.42,5.39-21.34,14.62c-1.08,2.55-1.65,5.34-1.62,8.21
			c0.06,4.79-0.01,9.58,0.01,14.37c0.01,1.25-0.4,2.46-0.23,3.72c0.05,0.37-0.01,0.78,0.4,0.97c2.96,1.35,4.42,3.91,5.33,6.83
			c1.74,5.57,1.79,11.22,0.42,16.88c-0.43,1.79-1.22,3.45-2.2,5.01c-2.82,4.5-7.7,4.45-10.49-0.1c-1.52-2.48-2.4-5.19-2.83-8.06
			c-0.8-5.42-0.4-10.68,1.89-15.72c0.82-1.82,1.99-3.38,3.7-4.43c0.67-0.41,0.82-0.94,0.82-1.66c-0.02-5.75-0.01-11.5-0.02-17.25
			c-0.01-4.28,0.85-8.38,2.8-12.17c4-7.8,10.37-12.47,18.97-14.01c2.36-0.42,4.77-0.43,7.17-0.46c4.85-0.06,9.71,0.04,14.56-0.05
			c1.8-0.03,3.6-0.01,5.4,0.05c0.88,0.03,1.16-0.3,1.14-1.16c-0.04-2.5,0.02-5-0.02-7.5c-0.07-4.78,3.31-8.46,8.29-8.37
			c5.02,0.09,10.04-0.01,15.06,0.04c2.75,0.03,5.19,1,6.87,3.24c0.86,1.15,1.44,2.55,1.41,4.09c-0.04,1.97,0.36,3.89,0.32,5.89
			c-0.18,7.91-0.07,15.83-0.12,23.74c0,0.87,0.3,1.02,1.08,1.03c2.76,0.03,5.54-0.24,8.27,0.52c4.42,1.23,7.82,3.89,10.47,7.55
			c1.25,1.73,2.49,3.5,3.4,5.42c0.71,1.52,0.89,3.3,1.32,4.95c0.87,3.33,1.11,6.72,0.88,10.13c-0.23,3.34-0.91,6.62-1.53,9.91
			c-1.36,7.1-2.83,14.18-4.26,21.26c-0.91,4.53-1.75,9.09-2.75,13.61c-1.42,6.41-2.88,12.82-4.05,19.28
			c-1.47,8.09-3.19,16.13-4.85,24.17c-0.25,1.2-1.15,1.57-2.23,1.58c-1.95,0.03-3.9,0-5.85,0c-5.35,0-10.71,0-16.06,0
			C704.32-680.14,704.32-680.15,704.32-680.16z M704.55-683.35c0-0.01,0-0.01,0-0.02c6.6,0,13.19-0.01,19.79,0.01
			c0.81,0,1.34-0.02,1.51-1.11c0.59-3.69,1.31-7.36,2.04-11.03c1.31-6.56,2.73-13.1,4-19.67c1.03-5.38,2.47-10.68,3.2-16.13
			c0.17-1.27-0.35-1.12-1.08-1.03c-3.49,0.43-6.99,0.54-10.5,0.56c-5.54,0.03-10.89-0.84-15.86-3.43c-1.08-0.56-1.45-0.31-1.59,0.83
			c-0.38,3.14-0.87,6.27-1.73,9.32c-0.46,1.63-0.98,3.26-2.01,4.65c-0.55,0.74-1.23,1.12-2.11,0.53c-0.79-0.53-0.67-1.24-0.35-1.98
			c2.21-5.11,2.83-10.56,3.47-16.01c0.05-0.4-0.05-0.75-0.38-0.99c-1.28-0.92-2.48-1.97-4-2.48c-4.46-1.49-9.01-2.4-13.73-2.5
			c-4.31-0.09-8.6,0.1-12.89,0.49c-0.78,0.07-0.89,0.33-0.73,1.01c0.49,2.1,0.97,4.21,1.4,6.32c1.26,6.3,2.5,12.61,3.74,18.92
			c1.16,5.85,2.32,11.7,3.48,17.55c0.99,4.98,2.01,9.97,2.99,14.95c0.18,0.9,0.54,1.28,1.56,1.27
			C691.35-683.38,697.95-683.35,704.55-683.35z M716.35-795.3C716.35-795.31,716.35-795.31,716.35-795.3
			c-2.99-0.01-5.98,0.01-8.96-0.02c-0.8-0.01-1.12,0.21-1.06,1.06c0.16,2.19,0.1,4.39,0.19,6.59c0.16,4.11,0.47,8.21,0.53,12.33
			c0.14,9.7,0.15,19.41-0.18,29.11c-0.06,1.87-0.36,3.71-0.3,5.59c0.03,0.81,0.3,1.27,0.94,1.72c3.66,2.57,7.86,3.42,12.18,3.85
			c5.02,0.5,10.01,0.04,14.99-0.51c1.14-0.13,1.65-0.5,1.9-1.85c1.57-8.54,3.21-17.07,5.05-25.55c1.36-6.25,1.89-12.39-0.19-18.58
			c-1.32-3.95-3.37-7.42-6.41-10.25c-2.8-2.6-6.27-3.42-9.97-3.47C722.16-795.34,719.26-795.3,716.35-795.3z M692.64-795.31
			C692.64-795.31,692.64-795.3,692.64-795.31c-2.99,0.01-5.97-0.03-8.96,0.02c-3.09,0.04-5.97,0.84-8.44,2.78
			c-6.12,4.79-8.41,11.43-8.98,18.88c-0.24,3.14,0.41,6.2,0.95,9.28c0.95,5.45,2.21,10.83,3.15,16.28c0.2,1.15,0.59,1.75,1.84,1.5
			c0.48-0.09,1,0.03,1.49-0.04c6.58-0.89,13.13-0.56,19.66,0.47c3.26,0.51,6.32,1.69,9.22,3.25c0.84,0.45,1.03,0.23,1.05-0.67
			c0.06-2.49,0.29-4.98,0.33-7.48c0.15-9.73,0.26-19.46-0.29-29.2c-0.25-4.59-0.38-9.19-0.53-13.79c-0.03-0.95-0.27-1.32-1.28-1.3
			C698.78-795.27,695.71-795.31,692.64-795.31z M691.9-814.17c-0.01,0-0.03,0-0.04,0c0,4.79,0.01,9.57-0.01,14.36
			c0,0.73-0.01,1.29,1,1.28c7.71-0.03,15.43-0.03,23.14-0.02c0.86,0,1.28-0.28,1.27-1.23c-0.03-9.41-0.02-18.82-0.04-28.23
			c0-1-0.11-1.99-0.64-2.88c-1.12-1.86-2.9-2.39-4.89-2.4c-4.85-0.03-9.7-0.02-14.56,0c-3.4,0.02-5.22,1.85-5.23,5.25
			C691.88-823.41,691.9-818.79,691.9-814.17z M635.14-757.53c0.02,0.77-0.05,2.17,0.26,3.57c0.58,2.64,0.99,5.33,2.87,7.46
			c1.32,1.51,2.81,1.5,4.1-0.03c0.81-0.97,1.31-2.11,1.71-3.3c1.48-4.36,1.96-8.82,1.24-13.38c-0.4-2.57-1.18-5-2.9-7.05
			c-1.41-1.69-2.65-1.72-4.1-0.05c-0.85,0.98-1.48,2.09-1.93,3.32C635.34-764.14,635.09-761.18,635.14-757.53z"/>
		<path class="st0" d="M740.12-817.55c12.52,0,25.04,0,37.55,0c0.46,0,0.91-0.01,1.37,0c1.46,0.04,2.29,0.73,2.2,1.81
			c-0.07,0.81-1.5,1.85-2.5,1.64c-2.32-0.5-4.65-0.14-6.97-0.15c-7.46-0.05-14.92,0.03-22.38,0.03c-3.34,0-6.69-0.08-10.03-0.1
			c-0.91-0.01-1.49-0.38-1.72-1.27c-0.26-1.03,0.03-1.7,1.16-1.87c0.45-0.07,0.88-0.19,1.32-0.29
			C740.12-817.69,740.12-817.62,740.12-817.55z"/>
		<path class="st0" d="M779.49-836.72c0.89,0.12,1.58,0.44,1.74,1.29c0.17,0.91-0.44,1.41-1.2,1.64c-2.64,0.8-5.33,1.36-8.02,1.96
			c-4.42,0.99-8.89,1.84-13.25,3.06c-5.79,1.62-11.77,2.38-17.52,4.15c-0.5,0.15-1.05,0.13-1.57,0.26
			c-0.95,0.25-1.92-0.36-2.08-1.27c-0.18-1.07,0.48-1.63,1.41-1.85c2.93-0.7,5.88-1.31,8.8-2.04c5.12-1.28,10.29-2.37,15.43-3.6
			c5.26-1.26,10.57-2.4,15.88-3.54C779.26-836.69,779.42-836.71,779.49-836.72z"/>
		<path class="st0" d="M739.3-807.33c2.17,0.21,4.26,0.79,6.38,1.3c6,1.43,12.02,2.8,18.03,4.17c5.03,1.14,10.07,2.25,15.11,3.38
			c0.44,0.1,0.86,0.3,1.3,0.42c0.92,0.24,1.11,1,1.06,1.74c-0.06,0.8-0.68,1.23-1.48,1.22c-1.78-0.02-3.46-0.61-5.15-1.03
			c-4.03-1.01-8.08-1.95-12.14-2.82c-5.29-1.13-10.54-2.47-15.82-3.69c-2.31-0.53-4.65-0.97-6.98-1.46
			c-0.31-0.07-0.59-0.27-0.89-0.39c-0.86-0.35-1.37-0.96-1.2-1.93C737.71-807.48,738.56-807.31,739.3-807.33z"/>
		<path class="st1" d="M704.55-683.35c-6.6,0-13.19-0.03-19.79,0.03c-1.02,0.01-1.38-0.38-1.56-1.27c-0.99-4.99-2-9.97-2.99-14.95
			c-1.17-5.85-2.32-11.7-3.48-17.55c-1.25-6.31-2.48-12.62-3.74-18.92c-0.42-2.12-0.91-4.22-1.4-6.32
			c-0.16-0.68-0.05-0.93,0.73-1.01c4.29-0.39,8.58-0.58,12.89-0.49c4.72,0.1,9.27,1.01,13.73,2.5c1.52,0.51,2.73,1.57,4,2.48
			c0.34,0.24,0.43,0.59,0.38,0.99c-0.64,5.45-1.26,10.91-3.47,16.01c-0.32,0.74-0.44,1.45,0.35,1.98c0.88,0.59,1.56,0.21,2.11-0.53
			c1.03-1.39,1.55-3.01,2.01-4.65c0.86-3.05,1.35-6.18,1.73-9.32c0.14-1.14,0.51-1.39,1.59-0.83c4.97,2.59,10.31,3.47,15.86,3.43
			c3.51-0.02,7.01-0.13,10.5-0.56c0.73-0.09,1.25-0.24,1.08,1.03c-0.73,5.45-2.17,10.75-3.2,16.13c-1.26,6.57-2.68,13.11-4,19.67
			c-0.73,3.67-1.45,7.34-2.04,11.03c-0.17,1.09-0.7,1.11-1.51,1.11c-6.6-0.01-13.19-0.01-19.79-0.01
			C704.55-683.36,704.55-683.36,704.55-683.35z"/>
		<path class="st1" d="M716.35-795.3c2.9,0,5.81-0.03,8.71,0.01c3.69,0.06,7.17,0.87,9.97,3.47c3.04,2.83,5.08,6.3,6.41,10.25
			c2.07,6.19,1.55,12.33,0.19,18.58c-1.85,8.48-3.48,17.01-5.05,25.55c-0.25,1.35-0.76,1.72-1.9,1.85
			c-4.99,0.56-9.97,1.01-14.99,0.51c-4.33-0.43-8.52-1.28-12.18-3.85c-0.65-0.45-0.92-0.92-0.94-1.72c-0.06-1.88,0.24-3.72,0.3-5.59
			c0.33-9.7,0.32-19.4,0.18-29.11c-0.06-4.11-0.37-8.22-0.53-12.33c-0.08-2.2-0.03-4.4-0.19-6.59c-0.06-0.85,0.26-1.07,1.06-1.06
			C710.38-795.29,713.37-795.31,716.35-795.3C716.35-795.31,716.35-795.31,716.35-795.3z"/>
		<path class="st1" d="M692.64-795.31c3.07,0,6.14,0.04,9.21-0.02c1.01-0.02,1.25,0.35,1.28,1.3c0.15,4.6,0.27,9.2,0.53,13.79
			c0.54,9.74,0.44,19.46,0.29,29.2c-0.04,2.49-0.26,4.98-0.33,7.48c-0.02,0.9-0.21,1.12-1.05,0.67c-2.9-1.57-5.97-2.74-9.22-3.25
			c-6.52-1.03-13.08-1.36-19.66-0.47c-0.49,0.07-1.01-0.06-1.49,0.04c-1.26,0.25-1.65-0.36-1.84-1.5
			c-0.94-5.45-2.2-10.83-3.15-16.28c-0.54-3.08-1.19-6.13-0.95-9.28c0.57-7.44,2.86-14.09,8.98-18.88c2.48-1.94,5.35-2.74,8.44-2.78
			C686.67-795.33,689.66-795.3,692.64-795.31C692.64-795.3,692.64-795.31,692.64-795.31z"/>
		<path class="st1" d="M691.9-814.17c0-4.62-0.01-9.24,0-13.86c0.01-3.41,1.83-5.24,5.23-5.25c4.85-0.02,9.7-0.03,14.56,0
			c1.98,0.01,3.77,0.54,4.89,2.4c0.54,0.89,0.64,1.89,0.64,2.88c0.02,9.41,0.01,18.82,0.04,28.23c0,0.95-0.41,1.23-1.27,1.23
			c-7.71-0.01-15.43-0.01-23.14,0.02c-1.01,0-1-0.55-1-1.28c0.02-4.79,0.01-9.57,0.01-14.36
			C691.87-814.17,691.88-814.17,691.9-814.17z M704.69-814.34c0.98-0.03,1.3-0.81,1.32-1.51c0.02-0.78-0.41-1.55-1.36-1.64
			c-0.77-0.07-1.71,0.8-1.72,1.51C702.93-815.23,703.91-814.33,704.69-814.34z"/>
		<path class="st1" d="M635.14-757.53c-0.05-3.64,0.21-6.61,1.25-9.46c0.45-1.23,1.07-2.34,1.93-3.32c1.45-1.67,2.68-1.64,4.1,0.05
			c1.72,2.05,2.49,4.48,2.9,7.05c0.72,4.56,0.24,9.02-1.24,13.38c-0.4,1.19-0.9,2.33-1.71,3.3c-1.28,1.53-2.78,1.53-4.1,0.03
			c-1.87-2.13-2.29-4.82-2.87-7.46C635.09-755.36,635.15-756.76,635.14-757.53z"/>
		<path class="st0" d="M704.69-814.34c-0.79,0.01-1.76-0.89-1.76-1.64c0-0.71,0.95-1.59,1.72-1.51c0.96,0.09,1.38,0.86,1.36,1.64
			C706-815.15,705.67-814.37,704.69-814.34z"/>
	</g>
	<g>
		<path class="st2" d="M761.38-122.72c0.05,5.67-0.15,10.76-1.5,15.7c-1.26,4.62-2.97,9.08-5.08,13.41c-2,4.11-4.25,8.07-7.16,11.55
			c-2.83,3.39-5.99,6.48-9.54,9.2c-5.74,4.39-12.07,7.43-19.04,9.2c-4.06,1.03-8.19,1.54-12.38,1.37c-6.37-0.26-12.57-1.43-18.43-4
			c-4.57-2-8.7-4.76-12.59-7.87c-6.9-5.52-11.89-12.52-15.67-20.39c-2.73-5.69-4.56-11.7-5.43-17.97c-0.51-3.69-0.88-7.4-0.74-11.13
			c0.28-7.4,1.57-14.61,3.67-21.71c1.4-4.74,3.18-9.35,5.2-13.83c2.36-5.23,5.03-10.35,8.08-15.24c2.43-3.9,4.95-7.74,7.4-11.63
			c2.79-4.43,6-8.54,9.3-12.58c2.56-3.13,4.89-6.45,7.43-9.59c1.89-2.33,4.03-4.45,5.92-6.76c1.53-1.87,3.33-3.51,4.66-5.54
			c0.88-1.35,2.61-1.37,3.89-0.14c2.69,2.59,5.14,5.38,7.54,8.24c2.36,2.82,4.68,5.67,7.01,8.51c2.95,3.62,5.78,7.34,8.54,11.1
			c3.4,4.63,6.55,9.44,9.64,14.29c1.99,3.13,4,6.29,5.59,9.62c2.39,4.98,4.88,9.92,6.96,15.06c2.47,6.11,4.22,12.4,5.59,18.84
			C761.15-130.77,761.48-126.49,761.38-122.72z M658.54-121.89c-0.14,3.91,0.47,7.74,1.18,11.56c0.73,3.95,1.86,7.77,3.45,11.49
			c1.7,3.99,3.82,7.72,6.29,11.25c1.13,1.62,2.62,2.99,3.8,4.53c1.67,2.17,3.86,3.7,5.74,5.59c1.66,1.67,3.78,2.79,5.8,4.02
			c6.2,3.81,13,5.71,20.15,6.39c3.45,0.33,6.92-0.01,10.36-0.68c6.77-1.32,13.01-3.87,18.62-7.87c5.12-3.65,9.39-8.15,12.89-13.38
			c1.92-2.86,3.51-5.87,4.89-9.05c1.45-3.36,2.65-6.78,3.42-10.33c0.66-3.04,1.42-6.06,1.6-9.2c0.23-4.06,0.46-8.13-0.26-12.14
			c-0.73-4.06-1.25-8.2-2.88-12.06c0.48-1.94-1.18-3.31-1.36-5.14c-0.12-1.29-1.13-2.48-1.48-3.78c-0.83-3.05-2.39-5.78-3.64-8.64
			c-0.71-1.62-1.96-3.01-2.57-4.62c-0.74-1.92-1.77-3.64-2.77-5.37c-2.07-3.58-4.27-7.09-6.49-10.58c-1.89-2.97-3.78-5.94-5.84-8.79
			c-2.35-3.25-4.82-6.42-7.34-9.54c-2.5-3.09-4.82-6.3-7.4-9.34c-2.11-2.48-4.34-4.86-6.38-7.4c-0.5-0.62-0.9-0.57-1.38,0.04
			c-1.21,1.51-2.43,3.07-3.77,4.43c-2.09,2.12-3.79,4.55-5.71,6.79c-2.24,2.62-4.24,5.47-6.28,8.27c-2.71,3.74-5.58,7.36-8.14,11.22
			c-3.38,5.09-6.79,10.15-9.86,15.44c-2.18,3.76-4.23,7.58-6,11.55c-2.22,4.98-4.19,10.05-5.64,15.31
			c-0.66,2.39-1.28,4.78-1.68,7.24C659.15-130.44,658.4-126.21,658.54-121.89z"/>
		<path class="st3" d="M658.54-121.88c-0.14-4.33,0.61-8.55,1.3-12.8c0.4-2.46,1.02-4.85,1.68-7.24c1.44-5.26,3.42-10.33,5.64-15.31
			c1.77-3.97,3.82-7.79,6-11.55c3.07-5.29,6.48-10.35,9.86-15.44c2.56-3.86,5.43-7.48,8.14-11.22c2.04-2.8,4.04-5.65,6.28-8.27
			c1.92-2.24,3.61-4.67,5.71-6.79c1.34-1.36,2.55-2.91,3.77-4.43c0.48-0.6,0.89-0.65,1.38-0.04c2.04,2.54,4.27,4.92,6.38,7.4
			c2.58,3.03,4.91,6.25,7.4,9.34c2.52,3.12,4.99,6.29,7.34,9.54c2.06,2.85,3.95,5.82,5.84,8.79c2.22,3.49,4.42,7,6.49,10.58
			c1,1.73,2.04,3.45,2.77,5.37c0.62,1.6,1.87,3,2.57,4.62c1.25,2.86,2.8,5.59,3.64,8.64c0.36,1.3,1.36,2.49,1.48,3.78
			c0.17,1.83,1.84,3.2,1.36,5.14c1.62,3.86,2.15,7.99,2.88,12.06c0.72,4,0.49,8.08,0.26,12.14c-0.18,3.14-0.94,6.17-1.6,9.2
			c-0.77,3.55-1.97,6.97-3.42,10.33c-1.37,3.18-2.97,6.19-4.89,9.05c-3.5,5.23-7.77,9.73-12.89,13.38c-5.61,4-11.85,6.55-18.62,7.87
			c-3.44,0.67-6.9,1.01-10.36,0.68c-7.15-0.68-13.96-2.58-20.15-6.39c-2.01-1.24-4.14-2.35-5.8-4.02c-1.88-1.89-4.07-3.42-5.74-5.59
			c-1.19-1.54-2.67-2.91-3.8-4.53c-2.47-3.53-4.58-7.26-6.29-11.25c-1.59-3.72-2.71-7.54-3.45-11.49
			C659.01-114.15,658.4-117.98,658.54-121.88z M743.19-120.94c0-0.79,0.01-1.58,0-2.36c-0.02-1.71-0.94-2.68-2.56-2.7
			c-1.3-0.02-1.97,0.82-1.93,2.6c0.05,2.08-0.09,4.14-0.4,6.18c-0.59,3.94-1.75,7.71-3.33,11.38c-1.12,2.61-2.55,5.09-4.07,7.43
			c-1.35,2.09-3.17,4.01-5.18,5.62c-0.87,0.7-1.17,1.63-0.87,2.66c0.28,0.97,1.28,1.04,2.05,1.12c0.82,0.08,1.59-0.34,2.22-0.91
			c1.99-1.8,3.88-3.64,5.51-5.83c3.1-4.16,5.29-8.73,6.98-13.57C742.94-113.07,743.12-117.01,743.19-120.94z"/>
		<path class="st2" d="M743.19-120.94c-0.07,3.93-0.25,7.86-1.55,11.61c-1.69,4.84-3.88,9.41-6.98,13.57
			c-1.63,2.19-3.52,4.04-5.51,5.83c-0.63,0.57-1.4,0.99-2.22,0.91c-0.78-0.08-1.77-0.15-2.05-1.12c-0.3-1.03-0.01-1.96,0.87-2.66
			c2.01-1.61,3.83-3.54,5.18-5.62c1.52-2.34,2.94-4.81,4.07-7.43c1.58-3.67,2.74-7.44,3.33-11.38c0.31-2.05,0.45-4.11,0.4-6.18
			c-0.04-1.78,0.62-2.62,1.93-2.6c1.62,0.02,2.54,1,2.56,2.7C743.2-122.51,743.19-121.73,743.19-120.94z"/>
	</g>
	<g>
		<path class="st4" d="M614.7,142.14c-0.1-11.83,3.53-20.83,10.27-28.67c4.14-4.81,9.23-8.21,15-10.76
			c5.33-2.35,10.91-3.34,16.68-3.25c4.45,0.07,8.81,0.91,12.97,2.53c1.56,0.61,2.95,0.51,4.53-0.08c4.4-1.64,8.96-2.64,13.7-2.48
			c4.44,0.15,8.82,0.69,13.03,2.23c0.89,0.33,1.83,0.54,2.72,0.86c0.54,0.19,0.96-0.01,1.43-0.19c3.88-1.5,7.89-2.39,12.06-2.71
			c9.58-0.73,18.3,1.71,26.18,7.11c8.87,6.09,14.7,14.33,17.06,24.9c0.67,2.99,1.15,6.04,1.07,9.09
			c-0.22,8.46-2.42,16.31-7.36,23.32c-5.51,7.83-12.72,13.36-21.88,16.16c-5.62,1.72-11.39,2.34-17.29,1.45
			c-3.52-0.53-6.97-1.2-10.19-2.76c-0.58-0.28-1.08-0.12-1.65,0.12c-5.55,2.31-11.36,3.33-17.35,2.98c-4.14-0.24-8.2-1.1-12.07-2.62
			c-1.32-0.52-2.56-0.41-3.85,0.08c-4.53,1.73-9.21,2.66-14.07,2.61c-7.68-0.09-14.78-2.16-21.32-6.18
			c-5.52-3.4-9.93-7.86-13.48-13.32C616.53,155.87,614.64,148.61,614.7,142.14z M756.72,141.13c-0.23-21.07-15.2-36.67-35.97-37.14
			c-20.81-0.47-36.49,15.28-37.28,35.18c-0.85,21.39,16.8,37.99,35.69,38.41C739.98,178.05,757.21,160.81,756.72,141.13z
			 M651.11,139.99c0.09,5.24,0.94,9.64,2.59,13.84c2.25,5.71,5.59,10.68,10.34,14.65c2.77,2.32,5.77,4.26,9.04,5.82
			c3.29,1.57,6.72,2.48,10.3,2.98c4.58,0.65,9.07,0.21,13.53-0.89c0.38-0.09,0.91-0.14,0.99-0.62c0.09-0.51-0.44-0.64-0.77-0.86
			c-3.11-2.1-5.92-4.59-8.31-7.43c-5.3-6.29-8.71-13.56-9.75-21.77c-0.45-3.6-0.49-7.23,0.17-10.88c1.53-8.48,4.77-16.04,11-22.19
			c2.31-2.29,4.56-4.61,7.33-6.36c0.28-0.18,0.81-0.3,0.68-0.76c-0.09-0.32-0.53-0.33-0.85-0.41c-4.87-1.17-9.76-1.61-14.76-0.78
			c-9.04,1.51-16.71,5.43-22.68,12.47C654.12,123.7,651.58,131.81,651.11,139.99z M656.33,177.59c2.58-0.01,5.49-0.73,8.44-1.06
			c0.4-0.04,0.84-0.21,0.97-0.67c0.13-0.46-0.25-0.65-0.55-0.86c-4.69-3.23-8.71-7.11-11.81-11.93c-3.42-5.31-5.86-11.05-6.37-17.32
			c-0.45-5.42-0.41-10.88,1.28-16.25c2-6.38,5.07-12.03,9.65-16.87c2.11-2.24,4.36-4.31,7.04-5.88c0.38-0.22,0.85-0.53,0.78-1.04
			c-0.07-0.49-0.63-0.47-1.01-0.56c-2.98-0.72-6.01-1.2-9.07-1.24c-3.44-0.05-6.83,0.49-10.15,1.47
			c-9.58,2.81-16.82,8.68-21.75,17.23c-3.69,6.4-5.1,13.46-4.55,20.89c0.47,6.26,2.54,11.96,5.89,17.2
			c3.16,4.94,7.5,8.73,12.35,11.9C643.04,176.24,649.36,177.42,656.33,177.59z"/>
		<path class="st5" d="M756.72,141.13c0.49,19.68-16.73,36.92-37.56,36.46c-18.89-0.42-36.54-17.02-35.69-38.41
			c0.79-19.91,16.47-35.66,37.28-35.18C741.52,104.46,756.49,120.06,756.72,141.13z"/>
		<path class="st5" d="M651.11,139.99c0.47-8.18,3.02-16.29,8.85-23.18c5.97-7.04,13.64-10.96,22.68-12.47
			c5-0.84,9.89-0.39,14.76,0.78c0.33,0.08,0.77,0.1,0.85,0.41c0.13,0.46-0.4,0.58-0.68,0.76c-2.77,1.74-5.02,4.07-7.33,6.36
			c-6.23,6.15-9.47,13.71-11,22.19c-0.66,3.65-0.62,7.28-0.17,10.88c1.03,8.21,4.44,15.48,9.75,21.77c2.39,2.84,5.2,5.33,8.31,7.43
			c0.33,0.22,0.86,0.35,0.77,0.86c-0.08,0.48-0.61,0.53-0.99,0.62c-4.46,1.1-8.95,1.54-13.53,0.89c-3.58-0.51-7.02-1.42-10.3-2.98
			c-3.27-1.56-6.27-3.51-9.04-5.82c-4.75-3.97-8.1-8.95-10.34-14.65C652.04,149.62,651.2,145.22,651.11,139.99z"/>
		<path class="st5" d="M656.33,177.59c-6.97-0.17-13.29-1.35-18.86-4.99c-4.85-3.17-9.19-6.96-12.35-11.9
			c-3.36-5.25-5.42-10.94-5.89-17.2c-0.56-7.43,0.86-14.49,4.55-20.89c4.93-8.55,12.17-14.42,21.75-17.23
			c3.32-0.97,6.71-1.51,10.15-1.47c3.06,0.04,6.09,0.52,9.07,1.24c0.38,0.09,0.94,0.08,1.01,0.56c0.08,0.5-0.4,0.82-0.78,1.04
			c-2.67,1.57-4.93,3.64-7.04,5.88c-4.58,4.84-7.65,10.5-9.65,16.87c-1.69,5.37-1.73,10.83-1.28,16.25
			c0.52,6.26,2.95,12.01,6.37,17.32c3.11,4.82,7.12,8.7,11.81,11.93c0.31,0.21,0.69,0.4,0.55,0.86c-0.13,0.46-0.57,0.63-0.97,0.67
			C661.82,176.86,658.91,177.59,656.33,177.59z"/>
	</g>
	<g>
		<path class="st6" d="M720.5-323.85c-19.5,0-39,0-58.5-0.01c-1.17,0-2.36,0.2-3.35-0.85c-0.75-0.79-0.91-1.61-0.49-2.46
			c0.45-0.91,1.13-1.71,2.36-1.56c0.41,0.05,0.82,0.07,1.24,0.07c38.13,0,76.25,0,114.38,0.02c6.31,0,12.13-1.57,17.27-5.27
			c3.01-2.17,5.57-4.87,7.46-8.08c5.58-9.48,5.59-19.2,0.3-28.67c-2.28-4.07-5.52-7.55-9.8-10c-3.63-2.08-7.51-3-11.51-3.72
			c-1-0.18-2.05,0-3.07-0.25c-1.2-0.3-2.41-1.56-2.31-2.55c0.12-1.26,1.38-2.46,2.7-2.42c1.79,0.05,3.56,0.36,5.33,0.5
			c2.24,0.18,4.15,1.49,6.4,1.54c0.79,0.02,1.52,0.71,2.22,1.09c3.31,1.82,6.48,3.83,9.2,6.58c5.38,5.43,8.47,11.97,9.41,19.39
			c1.02,8.07-0.83,15.7-5.46,22.43c-3.18,4.63-7.41,8.23-12.45,10.82c-4.42,2.28-9.1,3.41-14.08,3.41
			c-19.08-0.02-38.17-0.01-57.25-0.01C720.5-323.87,720.5-323.86,720.5-323.85z"/>
		<path class="st6" d="M717.32-308.49c-18.34,0-36.67,0-55.01,0c-0.96,0-1.91-0.06-2.81-0.42c-1.04-0.42-1.66-1.21-1.47-2.31
			c0.18-1.06,0.55-1.93,2.02-2.05c1.99-0.17,3.93-0.28,5.91,0.01c0.79,0.11,1.63-0.2,2.45-0.2c34.27-0.01,68.54,0.08,102.8-0.06
			c9.44-0.04,16.69,6.39,18.19,14.5c0.58,3.11,0.31,6.11-0.86,9.1c-0.68,1.75-1.44,3.41-2.57,4.88c-2.95,3.83-6.92,5.94-11.65,6.7
			c-0.69,0.11-1.36,0.3-2.08,0.26c-0.95-0.05-2.47-1.15-2.72-2.03c-0.39-1.35,0.73-2.95,2.25-2.92c4.1,0.07,7.23-1.92,9.78-4.8
			c3.47-3.92,4.5-10.54,0.8-15.06c-2.09-2.56-4.44-4.38-7.58-5.3c-0.98-0.29-1.96-0.31-2.95-0.31
			C753.67-308.5,735.5-308.5,717.32-308.49C717.32-308.5,717.32-308.49,717.32-308.49z"/>
		<path class="st6" d="M764.33-355.95c-0.2,6.35-3.38,11.46-9.48,14.85c-2.39,1.33-4.85,2.03-7.57,2.03
			c-7.7-0.01-15.4,0.03-23.09,0.03c-20.91,0-41.82-0.01-62.72-0.01c-0.25,0-0.5-0.04-0.75,0c-1.69,0.29-2.51-0.75-2.72-2.54
			c-0.11-0.94,1.35-2.21,2.56-2.26c1.04-0.04,2.07-0.01,3.11-0.01c27.42,0,54.84,0,82.26,0.01c4.55,0,8.36-1.66,11.04-5.33
			c1.54-2.12,2.34-4.7,2.3-7.36c-0.07-4.83-2.17-8.61-6.39-11.08c-4.71-2.76-9.65-1.85-13.1,1.5c-1.34,1.29-2.47,2.64-3.08,4.4
			c-0.19,0.55-0.54,1.01-0.91,1.47c-0.71,0.88-1.67,1.28-2.63,0.89c-1.03-0.42-1.55-1.42-1.54-2.62c0.01-1.81,0.98-3.25,1.92-4.62
			c1.24-1.79,2.66-3.53,4.57-4.64c6.53-3.81,11.87-4.53,18.58,0.04C761.7-367.77,764.26-362.76,764.33-355.95z"/>
	</g>
	<g>
		<path class="st7" d="M697.18,440c0.09,23.1-16.88,40.04-38.18,40.85c-23.35,0.89-40.77-17.76-41.23-39.26
			c-0.47-22.31,17.19-40.2,38.05-40.85C678.56,400.03,696.83,417.91,697.18,440z M693.2,440.11c-0.33-4.01-0.75-8.38-2.53-12.55
			c-1.94-4.51-4.47-8.64-7.76-12.22c-4.48-4.87-10.24-7.66-16.55-9.35c-4.47-1.19-8.98-1.86-13.62-1.04
			c-4.57,0.8-8.95,2.18-12.93,4.58c-3.31,1.99-6.44,4.25-8.94,7.26c-3.89,4.69-6.8,9.87-8.09,15.89c-0.55,2.56-0.94,5.12-1.07,7.73
			c-0.17,3.43,0.63,6.7,1.43,9.99c1.44,5.87,4.43,10.85,8.51,15.19c3.81,4.06,8.29,7.08,13.61,9.01c5.81,2.1,11.67,2.87,17.73,1.82
			c10.02-1.75,17.89-7.01,23.73-15.23C691.08,455.06,692.8,447.98,693.2,440.11z"/>
		<path class="st7" d="M788.79,384.9c0.44,7.26-1.84,13.51-6.09,18.94c-5.03,6.43-11.71,10.44-19.89,11.29
			c-8.22,0.85-15.62-1.45-22.01-6.89c-5.5-4.68-8.81-10.62-10.15-17.6c-0.79-4.08-0.48-8.24,0.54-12.31c1.12-4.43,3-8.54,6.05-11.91
			c2.84-3.14,6-5.92,10-7.73c4.88-2.21,9.94-2.93,15.18-2.7c2.88,0.13,5.56,1.16,8.21,2.23c3.82,1.53,7.19,3.77,10.09,6.63
			c2.63,2.59,4.78,5.58,5.93,9.18c0.33,1.02,0.77,2.01,1.12,3.03C788.69,379.66,789.03,382.36,788.79,384.9z M759.47,411.25
			c13.85,0.06,25.44-10.76,25.49-25.82c0.04-13.62-10.62-24.94-24.3-25.49c-14.56-0.58-26.08,11.4-26.38,24.82
			C733.93,400.1,746.2,411.38,759.47,411.25z"/>
		<path class="st7" d="M715.56,343.27c0,3.75-0.54,7.41-2.09,10.87c-2.14,4.75-5.64,8.29-9.96,11.09
			c-3.34,2.17-7.04,3.45-10.96,3.87c-3.82,0.41-7.58-0.15-11.19-1.59c-4.49-1.78-8.31-4.47-11.21-8.33
			c-2.98-3.97-4.9-8.37-5.4-13.43c-0.62-6.26,1.04-11.86,4.49-16.93c3.99-5.86,9.55-9.54,16.6-10.68
			c8.27-1.33,15.44,0.97,21.75,6.52c4.85,4.27,6.89,9.79,7.94,15.87C715.69,341.42,715.56,342.35,715.56,343.27z M711.61,343.16
			c-0.24-11.48-9.02-21.73-21.93-21.43c-11.82,0.27-20.97,9.6-20.9,21.94c0.07,11.56,9.33,21.84,21.6,21.49
			C702.31,364.81,711.6,355.43,711.61,343.16z"/>
		<path class="st8" d="M693.2,440.11c-0.4,7.86-2.12,14.94-6.48,21.09c-5.84,8.21-13.71,13.48-23.73,15.23
			c-6.05,1.06-11.92,0.29-17.73-1.82c-5.31-1.92-9.8-4.95-13.61-9.01c-4.07-4.34-7.07-9.32-8.51-15.19c-0.81-3.3-1.6-6.57-1.43-9.99
			c0.13-2.61,0.52-5.18,1.07-7.73c1.29-6.02,4.2-11.21,8.09-15.89c2.49-3.01,5.63-5.26,8.94-7.26c3.98-2.4,8.35-3.77,12.93-4.58
			c4.64-0.82,9.15-0.15,13.62,1.04c6.32,1.68,12.07,4.48,16.55,9.35c3.3,3.58,5.83,7.7,7.76,12.22
			C692.45,431.74,692.87,436.1,693.2,440.11z M682.97,439.45c-0.06-1.07,0.05-2.14-0.12-3.22c-0.62-4.01-2.32-7.63-4.33-11.04
			c-2.12-3.58-5.22-6.29-8.97-8.19c-0.74-0.37-1.38-0.23-1.92,0.33c-0.52,0.54-0.75,1.22-0.47,1.95c0.23,0.6,0.8,0.93,1.32,1.28
			c3.62,2.41,6.23,5.68,8.06,9.58c1.77,3.79,2.6,7.73,2.28,12c-0.31,4.22-1.53,7.99-3.91,11.42c-1.05,1.52-2.28,2.91-3.36,4.41
			c-0.65,0.89-0.31,1.82,0.4,2.46c0.65,0.59,1.59,0.67,2.27,0.01c2.02-1.94,3.94-3.96,5.31-6.46
			C682.02,449.44,683.09,444.59,682.97,439.45z"/>
		<path class="st8" d="M759.47,411.25c-13.27,0.13-25.53-11.15-25.19-26.49c0.3-13.42,11.82-25.4,26.38-24.82
			c13.69,0.55,24.34,11.86,24.3,25.49C784.91,400.49,773.32,411.32,759.47,411.25z M771.4,385.48c0.2,2.69-0.57,5.09-1.8,7.42
			c-1.07,2.02-2.21,3.98-3.59,5.81c-0.66,0.87-0.85,1.68,0.12,2.49c0.91,0.75,1.63,0.71,2.63-0.19c1.16-1.04,1.95-2.36,2.85-3.59
			c5.29-7.24,5.12-16.05-0.19-23.2c-1.3-1.75-2.94-3.28-4.83-4.44c-1.09-0.66-1.92-0.48-2.62,0.46c-0.7,0.93-0.3,1.72,0.37,2.44
			c0.28,0.3,0.63,0.53,0.93,0.82C768.76,376.76,771.23,380.55,771.4,385.48z"/>
		<path class="st8" d="M711.61,343.16c-0.01,12.28-9.3,21.65-21.22,22c-12.27,0.36-21.54-9.93-21.6-21.49
			c-0.07-12.34,9.07-21.66,20.9-21.94C702.59,321.43,711.37,331.67,711.61,343.16z M704.18,344.67c0.09-1.03-0.17-2-0.3-2.98
			c-0.48-3.4-1.89-6.34-4.37-8.74c-0.49-0.47-1.03-0.85-1.67-1.05c-0.98-0.31-2.16,0.34-2.33,1.3c-0.14,0.81,0.35,1.39,0.87,1.95
			c4.4,4.66,4.95,12.43,0.11,17.18c-0.77,0.76-0.67,1.57,0.14,2.49c0.72,0.81,1.61,0.85,2.48,0.43c0.45-0.22,0.72-0.78,1.09-1.17
			C702.69,351.43,703.88,348.23,704.18,344.67z"/>
		<path class="st7" d="M682.97,439.45c0.12,5.14-0.95,9.99-3.45,14.52c-1.37,2.49-3.29,4.52-5.31,6.46
			c-0.68,0.65-1.61,0.57-2.27-0.01c-0.71-0.64-1.04-1.56-0.4-2.46c1.08-1.49,2.31-2.89,3.36-4.41c2.38-3.43,3.59-7.2,3.91-11.42
			c0.32-4.28-0.51-8.21-2.28-12c-1.82-3.9-4.44-7.17-8.06-9.58c-0.52-0.35-1.09-0.67-1.32-1.28c-0.27-0.72-0.05-1.4,0.47-1.95
			c0.54-0.56,1.18-0.71,1.92-0.33c3.75,1.9,6.85,4.61,8.97,8.19c2.02,3.41,3.72,7.03,4.33,11.04
			C683.02,437.3,682.91,438.37,682.97,439.45z"/>
		<path class="st7" d="M771.4,385.48c-0.17-4.94-2.64-8.72-6.12-12c-0.3-0.28-0.65-0.51-0.93-0.82c-0.67-0.72-1.07-1.51-0.37-2.44
			c0.7-0.93,1.53-1.12,2.62-0.46c1.9,1.16,3.53,2.68,4.83,4.44c5.31,7.15,5.48,15.96,0.19,23.2c-0.9,1.24-1.7,2.56-2.85,3.59
			c-1,0.9-1.72,0.94-2.63,0.19c-0.97-0.8-0.77-1.61-0.12-2.49c1.37-1.83,2.52-3.79,3.59-5.81
			C770.83,390.57,771.61,388.17,771.4,385.48z"/>
		<path class="st7" d="M704.18,344.67c-0.3,3.56-1.49,6.76-3.99,9.41c-0.37,0.39-0.64,0.95-1.09,1.17
			c-0.86,0.42-1.76,0.39-2.48-0.43c-0.81-0.92-0.91-1.73-0.14-2.49c4.83-4.75,4.28-12.52-0.11-17.18c-0.52-0.55-1.01-1.14-0.87-1.95
			c0.17-0.97,1.36-1.61,2.33-1.3c0.64,0.2,1.18,0.58,1.67,1.05c2.48,2.4,3.9,5.34,4.37,8.74
			C704.01,342.67,704.26,343.64,704.18,344.67z"/>
	</g>
	<g>
		<path class="st9" d="M96.05,0.04c13.32,0,26.64,0,39.96,0c0.62,0,1.22,0.03,1.84,0.19c1.85,0.49,2.4,2.19,1.09,3.57
			c-1.91,2-4.18,3.6-6.24,5.43c-1.72,1.53-3.57,2.89-5.21,4.55c-1.36,1.37-3.11,2.4-4.54,3.74c-1.65,1.54-3.49,2.84-5.11,4.42
			c-1.53,1.48-3.21,2.84-4.89,4.18c-1.28,1.02-2.49,2.08-3.65,3.24c-1.31,1.31-2.88,2.34-4.29,3.55c-3.25,2.78-6.47,5.61-9.72,8.38
			c-2.12,1.8-4.29,3.53-6.43,5.3c-0.41,0.33-1.03,0.59-0.98,1.19c0.06,0.69,0.8,0.63,1.27,0.8c2.54,0.88,5.06,1.82,7.64,2.51
			c1.27,0.34,2.47,0.75,3.63,1.34c1.59,0.81,1.88,2.34,0.65,3.67c-1.25,1.35-2.88,2.22-4.32,3.34c-6.3,4.9-12.58,9.83-18.93,14.67
			c-2.44,1.86-4.83,3.77-7.25,5.65c-0.32,0.25-0.81,0.44-0.62,0.95c0.16,0.45,0.65,0.22,0.99,0.27c3.39,0.45,6.79,0.91,10.18,1.34
			c3.15,0.4,6.32,0.68,9.46,1.17c2.83,0.44,5.72,0.49,8.52,1.19c1.09,0.27,1.85,0.8,2.02,1.9c0.17,1.07-0.53,1.8-1.34,2.34
			c-2.86,1.91-5.69,3.88-8.63,5.66c-6.52,3.95-12.81,8.27-19.27,12.32c-4.06,2.55-8.13,5.11-12.13,7.74
			c-3.52,2.31-7.05,4.63-10.58,6.93c-8.75,5.7-17.57,11.28-26.36,16.94c-6.3,4.06-12.59,8.15-18.88,12.22
			c-1.24,0.8-2.45,0.6-3.43-0.5c-0.57-0.64-0.69-1.26-0.24-2.02c1.23-2.13,2.88-3.94,4.37-5.87c2.94-3.8,6-7.5,8.87-11.35
			c2.62-3.52,5.41-6.91,8.14-10.35c1.7-2.14,3.67-4.12,5.04-6.45c1.3-2.22,3.18-3.93,4.54-6.07c0.77-1.21,2.01-2.05,2.76-3.3
			c1.16-1.92,2.6-3.63,4.18-5.22c0.64-0.65,0.23-1-0.39-1.29c-1.2-0.56-2.52-0.42-3.78-0.6c-4-0.6-8.03-1.03-12.03-1.63
			c-1.47-0.22-2.97,0-4.43-0.42c-3.27-0.93-6.71-0.72-10.01-1.48c-1.08-0.25-1.99-0.76-2.35-1.81c-0.34-1,0.19-1.8,0.93-2.52
			c3.8-3.77,7.67-7.48,11.31-11.4c1.45-1.56,2.87-3.21,4.34-4.71c1.41-1.45,2.8-2.98,4.32-4.33c3.15-2.81,5.93-5.99,8.94-8.94
			c3.16-3.09,5.89-6.61,9.36-9.39c0.32-0.26,0.61-0.57,0.88-0.88c0.75-0.84,0.64-1.24-0.48-1.51c-2.25-0.54-4.52-1-6.76-1.56
			c-1.43-0.36-2.83-0.88-4.25-1.28c-2.38-0.66-4.78-1.28-7.17-1.92c-1.01-0.27-1.7-0.9-2.09-1.89c-0.29-0.73-0.17-1.33,0.24-1.99
			c0.83-1.34,1.87-2.51,2.79-3.77c1.94-2.69,3.76-5.46,5.79-8.07c0.81-1.04,1.79-1.96,2.47-3.1c1.57-2.67,3.89-4.8,5.41-7.49
			c0.92-1.62,2.07-3.09,3.21-4.5c3.03-3.75,5.7-7.76,8.66-11.56C53.91,0.48,54.8-0.01,56.22,0C69.49,0.06,82.77,0.04,96.05,0.04z
			 M94.68,55.22c-3.37-1.1-6.5-2.12-9.63-3.14c-1.17-0.38-2.35-0.73-3.4-1.38c-1.5-0.93-1.65-1.84-0.59-3.29
			c0.69-0.94,1.68-1.59,2.56-2.33c4.55-3.85,9.12-7.68,13.66-11.54c2.43-2.06,4.82-4.17,7.24-6.24c2.76-2.36,5.52-4.72,8.29-7.07
			c2.5-2.12,5.02-4.23,7.52-6.35c3.29-2.8,6.57-5.6,9.86-8.41c0.15-0.13,0.37-0.24,0.27-0.49c-0.1-0.25-0.34-0.18-0.54-0.19
			c-1.51-0.08-3.02-0.04-4.54-0.04c-22.57,0.04-45.14,0.02-67.72-0.01c-1.04,0-1.64,0.35-2.22,1.19c-2,2.89-4.12,5.7-6.15,8.58
			c-3.31,4.71-6.88,9.23-10.18,13.94c-2.51,3.58-5.13,7.1-7.86,10.53c-0.66,0.82-0.4,1.13,0.4,1.4c0.27,0.09,0.55,0.18,0.83,0.25
			c6.09,1.51,12.06,3.44,18.19,4.77c2.05,0.45,3.02,2.53,1.28,4.4c-2.88,3.1-5.98,5.97-8.8,9.13c-2.41,2.71-5.16,5.12-7.69,7.74
			c-4.57,4.75-9.34,9.29-13.85,14.1c-2.64,2.82-5.6,5.39-8.22,8.27c-0.24,0.27-0.73,0.47-0.64,0.85c0.11,0.47,0.7,0.39,1.06,0.46
			c1.05,0.2,2.13,0.28,3.19,0.42c4.71,0.63,9.41,1.28,14.12,1.9c4.06,0.53,8.12,0.97,12.17,1.55c2.22,0.31,2.97,2.23,1.67,4.02
			c-0.27,0.37-0.54,0.73-0.83,1.09c-6.31,8.03-12.6,16.09-18.96,24.09c-3.66,4.6-7.03,9.42-10.92,13.84
			c-0.31,0.35-0.83,0.73-0.56,1.45c0.23-0.11,0.42-0.18,0.58-0.28c7.2-4.57,14.42-9.13,21.61-13.74
			c6.27-4.02,12.49-8.12,18.76-12.15c7.63-4.9,15.29-9.76,22.94-14.64c4.5-2.88,8.81-6.06,13.51-8.63c0.25-0.14,0.57-0.25,0.55-0.6
			c-0.03-0.44-0.42-0.44-0.75-0.49c-2.54-0.33-5.07-0.76-7.62-0.96c-2.87-0.22-5.7-0.74-8.57-1c-2.51-0.23-5.05-0.67-7.57-1.04
			c-1.55-0.23-3.14-0.27-4.63-0.8c-1.33-0.47-1.98-2.22-1.08-2.98c0.73-0.62,1.27-1.4,2.02-1.98c3.33-2.59,6.64-5.22,9.99-7.8
			c5.06-3.88,10.15-7.72,15.21-11.6C90.64,58.52,92.54,56.94,94.68,55.22z"/>
		<path class="st10" d="M94.68,55.22c-2.14,1.72-4.04,3.29-6,4.8c-5.06,3.88-10.15,7.72-15.21,11.6c-3.35,2.57-6.65,5.2-9.99,7.8
			c-0.75,0.58-1.29,1.37-2.02,1.98c-0.9,0.76-0.26,2.51,1.08,2.98c1.49,0.53,3.08,0.57,4.63,0.8c2.52,0.37,5.05,0.81,7.57,1.04
			c2.87,0.26,5.7,0.78,8.57,1c2.55,0.19,5.08,0.63,7.62,0.96c0.33,0.04,0.71,0.04,0.75,0.49c0.03,0.35-0.29,0.46-0.55,0.6
			c-4.7,2.57-9.01,5.75-13.51,8.63c-7.65,4.88-15.3,9.74-22.94,14.64c-6.27,4.03-12.49,8.13-18.76,12.15
			c-7.18,4.61-14.4,9.16-21.61,13.74c-0.16,0.1-0.35,0.17-0.58,0.28c-0.27-0.72,0.25-1.1,0.56-1.45c3.89-4.42,7.26-9.24,10.92-13.84
			c6.36-7.99,12.65-16.06,18.96-24.09c0.28-0.36,0.56-0.72,0.83-1.09c1.29-1.79,0.55-3.71-1.67-4.02
			c-4.05-0.57-8.12-1.02-12.17-1.55c-4.71-0.61-9.42-1.26-14.12-1.9c-1.07-0.14-2.14-0.22-3.19-0.42c-0.36-0.07-0.95,0.02-1.06-0.46
			c-0.09-0.38,0.4-0.58,0.64-0.85c2.62-2.88,5.57-5.45,8.22-8.27c4.51-4.81,9.28-9.35,13.85-14.1c2.52-2.62,5.27-5.03,7.69-7.74
			c2.81-3.16,5.92-6.03,8.8-9.13c1.74-1.87,0.77-3.96-1.28-4.4c-6.13-1.34-12.11-3.26-18.19-4.77c-0.28-0.07-0.56-0.15-0.83-0.25
			c-0.8-0.28-1.05-0.58-0.4-1.4c2.73-3.42,5.35-6.95,7.86-10.53c3.3-4.72,6.87-9.24,10.18-13.94c2.03-2.88,4.15-5.69,6.15-8.58
			c0.58-0.84,1.18-1.19,2.22-1.19c22.57,0.04,45.14,0.05,67.72,0.01c1.51,0,3.02-0.04,4.54,0.04c0.2,0.01,0.44-0.05,0.54,0.19
			c0.1,0.25-0.12,0.36-0.27,0.49c-3.29,2.8-6.57,5.61-9.86,8.41c-2.5,2.12-5.02,4.23-7.52,6.35c-2.77,2.35-5.53,4.71-8.29,7.07
			c-2.42,2.08-4.81,4.18-7.24,6.24c-4.54,3.86-9.11,7.69-13.66,11.54c-0.88,0.75-1.87,1.39-2.56,2.33
			c-1.07,1.45-0.91,2.36,0.59,3.29c1.04,0.65,2.23,1,3.4,1.38C88.18,53.1,91.31,54.13,94.68,55.22z"/>
	</g>
	<g>
		<path class="st11" d="M720.29-523.98c-17.18,0-34.36,0.03-51.54-0.02c-4.46-0.01-8.5-1.31-12.3-3.83
			c-3.2-2.12-5.71-4.72-7.73-7.89c-1.84-2.88-2.81-6.06-3.06-9.45c-0.07-0.99-0.34-1.94-0.28-2.96c0.27-4.65,1.69-8.89,4.21-12.81
			c1.49-2.32,3.56-4.07,5.64-5.72c2.1-1.67,4.58-2.7,7.23-3.56c2.9-0.94,5.74-1.21,8.65-0.97c1.32,0.11,1.54-0.35,1.64-1.34
			c0.3-2.84,1.48-5.4,2.86-7.81c1.56-2.71,3.21-5.38,5.61-7.5c4.5-3.97,9.59-6.62,15.61-7.36c3.81-0.47,7.59-0.37,11.33,0.52
			c0.2,0.05,0.4,0.12,0.59,0.18c1.81,0.58,2.22,0.41,3.47-1.13c2.47-3.04,5.15-5.83,8.49-7.99c3.41-2.21,7-3.83,10.96-4.78
			c10-2.42,19.33-0.83,28.08,4.46c3.35,2.03,6.04,4.77,8.6,7.73c3.81,4.41,5.96,9.55,7.39,15.07c0.39,1.5,0.56,3.09,0.6,4.65
			c0.04,1.52,0.31,3.03,0.04,4.56c-0.18,1.04,0.63,1.45,1.43,1.71c2.99,1,5.77,2.36,8.23,4.36c1.42,1.15,2.53,2.56,3.77,3.87
			c1.95,2.07,3.09,4.62,3.8,7.25c0.83,3.06,1.47,6.2,1.1,9.46c-0.4,3.53-1.83,6.61-3.47,9.69c-2.11,3.95-5.33,6.72-9.1,8.8
			c-3.22,1.78-6.73,2.83-10.53,2.82C754.49-524,737.39-523.98,720.29-523.98z M719.98-527.49c0,0.01,0,0.01,0,0.02
			c17.05,0,34.11,0.02,51.16-0.02c2.41-0.01,4.82-0.2,7.08-1.29c3.08-1.48,5.98-3.14,8.2-5.86c1.75-2.15,3.15-4.54,4.01-7.09
			c0.88-2.63,0.87-5.52,0.55-8.31c-0.11-0.9,0.01-1.85-0.3-2.7c-1.54-4.24-3.7-8.06-7.44-10.82c-1.58-1.17-3.09-2.36-5.06-2.93
			c-1.26-0.37-2.55-0.55-3.8-0.93c-1.16-0.35-1.8-1.04-1.77-2.34c0.03-1.25,0.25-2.48,0.23-3.71c-0.08-4.37-0.64-8.64-2.5-12.69
			c-4.03-8.8-10.29-15.13-19.63-18.15c-6.79-2.2-13.59-2.21-20.37,0.01c-1.77,0.58-3.36,1.58-5.05,2.32
			c-2.32,1.02-4.45,2.24-6.28,3.99c-2.1,2.01-3.97,4.22-5.62,6.61c-1,1.45-1.74,1.66-3.38,1.01c-4.21-1.68-8.69-1.91-12.98-1.18
			c-9.11,1.56-15.73,6.69-19.34,15.34c-0.77,1.84-1.66,3.7-1.68,5.8c-0.02,2.66-1.16,3.49-3.82,2.98
			c-3.44-0.67-6.86-0.42-10.09,0.91c-3.14,1.29-6.02,3-8.2,5.76c-2.01,2.54-3.7,5.17-4.32,8.42c-0.96,5.01-0.62,9.77,1.97,14.33
			c1.33,2.34,2.85,4.36,4.93,6.11c3.54,2.97,7.56,4.38,12.09,4.39C685.71-527.48,702.84-527.49,719.98-527.49z"/>
		<path class="st11" d="M731.84-460.24c-20.08,0-40.16,0-60.25,0c-1.79,0-2.53-0.59-2.58-1.96c-0.04-1.03,0.48-1.55,1.41-1.72
			c0.44-0.08,0.91-0.05,1.37-0.05c38.3,0,76.59,0,114.89,0c2.13,0,4.26-0.04,6.38,0.02c0.81,0.02,1.67,1.19,1.64,1.99
			c-0.03,0.71-1.07,1.67-1.86,1.72c-0.29,0.02-0.58,0-0.87,0C771.92-460.24,751.88-460.24,731.84-460.24z"/>
		<path class="st11" d="M708.17-480.92c-19.91,0-39.83,0-59.74,0.01c-0.98,0-1.88-0.04-2.59-0.89c-0.44-0.52-0.55-1.06-0.33-1.6
			c0.25-0.61,0.68-1.17,1.44-1.2c0.79-0.04,1.58-0.03,2.36-0.03c39.37,0,78.74,0,118.12-0.02c0.88,0,1.71,0.25,2.58,0.29
			c0.69,0.03,1.11,0.52,1.14,1.24c0.04,0.84-0.18,1.59-1.03,1.94c-0.7,0.29-1.45,0.27-2.2,0.27
			C747.99-480.92,728.08-480.92,708.17-480.92z"/>
		<path class="st11" d="M723.72-501.79c-19.7,0-39.41,0-59.11,0c-0.75,0-1.5,0.02-2.24-0.05c-0.87-0.08-1.29-0.74-1.48-1.48
			c-0.18-0.74,0.24-1.25,0.89-1.6c0.95-0.51,1.96-0.6,3.01-0.6c15.35,0.01,30.7,0,46.05,0c22.98,0,45.96,0,68.94,0
			c1.57,0,3.12,0.31,4.71,0.23c1.12-0.06,2.32,0.92,2.28,1.69c-0.04,0.9-1.19,1.81-2.32,1.81c-9.08,0-18.17-0.01-27.25-0.01
			C746.04-501.8,734.88-501.8,723.72-501.79C723.72-501.79,723.72-501.79,723.72-501.79z"/>
		<path class="st12" d="M719.98-527.49c-17.14,0-34.27,0.02-51.41-0.01c-4.53-0.01-8.55-1.42-12.09-4.39
			c-2.08-1.74-3.6-3.77-4.93-6.11c-2.59-4.56-2.93-9.32-1.97-14.33c0.62-3.25,2.31-5.88,4.32-8.42c2.18-2.76,5.07-4.47,8.2-5.76
			c3.23-1.33,6.65-1.58,10.09-0.91c2.66,0.52,3.8-0.32,3.82-2.98c0.01-2.1,0.91-3.95,1.68-5.8c3.61-8.65,10.23-13.78,19.34-15.34
			c4.3-0.73,8.77-0.5,12.98,1.18c1.65,0.65,2.38,0.44,3.38-1.01c1.65-2.39,3.52-4.6,5.62-6.61c1.83-1.75,3.96-2.97,6.28-3.99
			c1.69-0.74,3.28-1.74,5.05-2.32c6.79-2.22,13.58-2.21,20.37-0.01c9.34,3.02,15.61,9.35,19.63,18.15c1.85,4.05,2.42,8.32,2.5,12.69
			c0.02,1.23-0.2,2.47-0.23,3.71c-0.03,1.3,0.61,1.99,1.77,2.34c1.25,0.37,2.54,0.56,3.8,0.93c1.97,0.57,3.48,1.76,5.06,2.93
			c3.73,2.76,5.89,6.58,7.44,10.82c0.31,0.85,0.19,1.8,0.3,2.7c0.33,2.79,0.33,5.68-0.55,8.31c-0.86,2.55-2.26,4.94-4.01,7.09
			c-2.22,2.72-5.12,4.37-8.2,5.86c-2.26,1.09-4.67,1.28-7.08,1.29c-17.05,0.04-34.11,0.02-51.16,0.02
			C719.98-527.48,719.98-527.49,719.98-527.49z"/>
	</g>
	<g>
		<path class="st13" d="M618.63,863.09c-3.53,0.05-3.53,0.05-3.53-2.42c0-2.56,0-2.45,2.57-2.53c7.66-0.23,13.91,3.16,19.76,7.59
			c1.88,1.42,3.73,2.89,5.68,4.23c3.12,2.15,6.62,3.19,10.32,3.63c7.87,0.93,14.54-1.61,20.3-6.94c5.03-4.65,10.96-7.58,17.8-8.31
			c2.57-0.27,5.3-0.39,7.77,0.19c2.44,0.58,4.99,1.06,7.3,2.34c2.41,1.34,4.94,2.5,7.1,4.21c2.38,1.89,4.71,3.84,7.3,5.45
			c2.52,1.58,5.31,2.49,8.2,2.99c2,0.34,4.14,0.75,6.08,0.37c3.32-0.65,6.71-1.19,9.75-3.03c3.3-1.99,6.06-4.65,9.22-6.8
			c4.07-2.77,8.37-4.87,13.34-5.48c1.91-0.23,3.82-0.34,5.73-0.44c0.83-0.05,1.23,0.17,1.16,1.09c-0.07,0.91-0.07,1.83,0,2.74
			c0.08,0.97-0.33,1.2-1.23,1.18c-2.19-0.06-4.36,0.15-6.53,0.47c-3.87,0.57-7.16,2.37-10.13,4.82c-3.11,2.56-6.06,5.33-9.76,7.1
			c-1,0.48-2.06,1.08-3,1.49c-1.11,0.47-2.51,0.94-3.81,0.99c-1.8,0.07-3.54,0.54-5.33,0.7c-1.73,0.15-3.41-0.02-5.03-0.24
			c-2.68-0.37-5.34-1.09-7.84-2.16c-2.58-1.11-4.8-2.85-7.04-4.52c-2.22-1.65-4.26-3.55-6.68-4.93c-4.52-2.57-9.31-4.09-14.56-3.7
			c-2.29,0.17-4.63,0.25-6.82,1.05c-1.44,0.53-2.73,1.46-4.07,2.13c-2.49,1.23-4.46,3.04-6.49,4.78c-1.84,1.57-3.83,2.87-5.9,4.05
			c-1.06,0.6-2.3,0.89-3.38,1.46c-2.79,1.46-5.82,1.72-8.87,1.95c-5.31,0.41-10.27-0.63-14.99-3.16c-2.69-1.44-4.94-3.43-7.41-5.14
			c-3.24-2.25-6.33-4.75-10.22-5.86C622.83,863.7,620.26,863.12,618.63,863.09z"/>
		<path class="st13" d="M770.74,904.97c-2.23-0.29-4.7,0.31-6.99,1.16c-1.62,0.6-3.42,1.11-4.78,2.28c-2.18,1.86-4.73,3.26-6.69,5.4
			c-0.91,0.99-2.14,1.58-3.13,2.52c-0.75,0.71-2.21,0.76-3.23,1.39c-1.2,0.75-2.72,0.93-3.73,2.03c-0.06,0.06-0.23,0.06-0.34,0.03
			c-1.56-0.37-3.03,0.15-4.5,0.51c-0.65,0.16-1.21-0.15-1.83-0.13c-3.02,0.08-6.07,0.24-9.02-0.54c-2.38-0.63-4.67-1.49-6.85-2.74
			c-3.52-2.03-6.53-4.75-9.87-7.02c-3.9-2.64-8.11-4.38-12.74-5.04c-2.11-0.3-4.26-0.05-6.38,0.27c-3.7,0.55-7.09,1.9-10.07,4.18
			c-1.98,1.52-3.88,3.16-5.87,4.67c-2.23,1.69-4.53,3.31-7.23,4.23c-1.91,0.65-3.8,1.35-5.74,1.89c-0.89,0.25-1.88,0.27-2.81,0.23
			c-1.98-0.09-3.97,0.06-5.93,0c-2.66-0.08-5.26-0.77-7.72-1.9c-2.48-1.13-4.74-2.64-7.02-4.09c-0.95-0.61-1.74-1.6-2.73-2.27
			c-1.88-1.28-3.71-2.66-5.65-3.83c-2.16-1.31-4.6-1.97-6.98-2.77c-2.16-0.72-4.38-0.79-6.62-0.71c-0.83,0.03-1.21-0.39-1.19-1.22
			c0.12-4.35-0.8-3.55,3.31-3.46c4.11,0.09,8.06,0.97,11.81,2.87c4.25,2.15,7.77,5.26,11.59,7.99c2.57,1.84,5.21,3.34,8.45,3.9
			c1.81,0.31,3.62,0.87,5.44,0.83c5.86-0.11,11.31-1.53,15.88-5.49c2.23-1.94,4.47-3.88,6.84-5.64c1.1-0.82,2.47-1.31,3.78-1.78
			c2.38-0.85,4.69-1.97,7.23-2.28c3.11-0.38,6.18-0.51,9.36-0.09c3.46,0.46,6.52,1.77,9.58,3.14c3.23,1.44,5.99,3.66,8.68,5.94
			c2.36,2,4.9,3.68,7.82,4.8c3.12,1.19,6.41,1.49,9.61,1.36c4.79-0.2,9.34-1.59,13.21-4.65c2.81-2.21,5.53-4.54,8.58-6.42
			c1.89-1.17,3.96-1.99,6.03-2.79c1.15-0.44,2.39-0.6,3.44-1.32c0.71-0.49,1.51,0.07,2.29-0.08c1.81-0.35,3.66-0.29,5.49-0.35
			c0.7-0.02,1,0.24,0.93,0.94c-0.02,0.21,0,0.41,0,0.62C774.46,904.99,774.46,904.99,770.74,904.97z"/>
		<path class="st13" d="M615.1,943.81c0.06-2.38-0.52-2.23,2.27-2.2c3.24,0.03,6.42,0.66,9.47,1.59c1.09,0.33,2.35,0.77,3.4,1.56
			c0.83,0.62,1.88,1.02,2.82,1.58c3.58,2.11,6.59,5.01,10.06,7.26c3.69,2.4,7.74,3.52,12.14,3.69c5.54,0.22,10.55-1.28,15.06-4.4
			c2.43-1.68,4.64-3.69,7.01-5.45c1.25-0.93,2.61-1.7,3.89-2.61c1.02-0.73,2.36-1.04,3.59-1.44c3.56-1.16,7.22-1.74,10.96-1.56
			c3.26,0.16,6.42,0.73,9.51,1.95c5.04,1.98,9.12,5.35,13.31,8.59c5.31,4.1,11.31,5.32,17.9,4.74c5.16-0.46,9.43-2.7,13.27-5.93
			c3.44-2.9,7.05-5.49,11.23-7.19c4.08-1.65,8.33-2.36,12.72-2.17c0.53,0.02,0.77,0.23,0.73,0.75c0,0.04,0,0.08,0,0.12
			c-0.05,4.35,0.58,3.8-3.55,3.88c-4.2,0.09-8.13,1.24-11.62,3.51c-2.17,1.41-4.28,2.95-6.05,4.92c-0.69,0.77-1.73,1.3-2.63,1.9
			c-1.56,1.04-3.27,1.86-4.89,2.81c-0.59,0.35-1.28,0.3-1.85,0.64c-2.35,1.38-5.02,1.65-7.6,1.76c-2.07,0.09-4.21-0.04-6.32-0.15
			c-4.76-0.26-8.9-2.32-12.7-4.84c-2.62-1.74-5.14-3.71-7.68-5.6c-2.28-1.7-4.72-3.14-7.52-3.86c-3.16-0.81-6.37-1.44-9.64-1.06
			c-5.2,0.6-9.84,2.46-13.84,6c-2.83,2.5-5.73,4.96-9.24,6.55c-3.19,1.44-6.48,2.8-9.92,2.93c-2.84,0.11-5.77,0.21-8.65-0.41
			c-4.04-0.87-7.72-2.43-11.15-4.77c-2.26-1.54-4.21-3.46-6.5-4.95c-4.67-3.03-9.54-5.49-15.31-5.41
			C615.1,946.57,615.1,946.56,615.1,943.81z"/>
	</g>
</g>
<g id="레이어_2">
</g>
</svg>
