<?xml version="1.0" encoding="utf-8"?>
<!-- Generator: Adobe Illustrator 27.4.0, SVG Export Plug-In . SVG Version: 6.00 Build 0)  -->
<svg version="1.1" xmlns="http://www.w3.org/2000/svg" xmlns:xlink="http://www.w3.org/1999/xlink" x="0px" y="0px"
	 viewBox="0 0 552.72 74.15" style="enable-background:new 0 0 552.72 74.15;" xml:space="preserve">
<style type="text/css">
	.st0{display:none;}
	.st1{display:inline;fill:none;stroke:#221714;stroke-miterlimit:10;}
	.st2{fill:#FFFFFF;}
</style>
<g id="소스" class="st0">
	<text transform="matrix(1 0 0 1 159.2992 -76.2059)" style="display:inline; font-family:'Corbel-Bold'; font-size:25px;">CINE</text>
	<text transform="matrix(1 0 0 1 219.5976 -76.2059)" style="display:inline; font-family:'FreeSerifItalic'; font-size:28px;">de</text>
	<text transform="matrix(1 0 0 1 250.7068 -76.2059)" style="display:inline; font-family:'Corbel-Bold'; font-size:25px;">CHEF</text>
	<line class="st1" x1="200.89" y1="-95.33" x2="211.55" y2="-95.33"/>
</g>
<g id="결과물">
	<g>
		<g>
			<path class="st2" d="M32.24,20.39c-3.02,0-5.81,0.5-8.37,1.5c-2.55,1-4.74,2.45-6.57,4.35c-1.83,1.9-3.26,4.25-4.29,7.05
				c-1.03,2.8-1.54,5.99-1.54,9.59c0,3.57,0.47,6.7,1.41,9.41c0.94,2.7,2.28,4.96,4.04,6.78c1.75,1.81,3.89,3.18,6.41,4.1
				c2.52,0.92,5.39,1.38,8.59,1.38c2.3,0,4.64-0.18,7.03-0.54c2.39-0.36,4.62-0.89,6.71-1.59v9.57c-2.12,0.61-4.4,1.08-6.85,1.43
				c-2.45,0.35-4.99,0.52-7.62,0.52c-5.14,0-9.66-0.73-13.56-2.2c-3.9-1.47-7.16-3.54-9.77-6.21c-2.62-2.68-4.58-5.88-5.89-9.61
				C0.66,52.18,0,48.06,0,43.56c0-4.62,0.7-8.92,2.11-12.88c1.41-3.96,3.43-7.39,6.08-10.29c2.65-2.9,5.96-5.18,9.93-6.85
				c3.97-1.66,8.47-2.51,13.49-2.54c2.57,0,5,0.17,7.3,0.52c2.3,0.35,4.37,0.84,6.21,1.47v9.43c-2.42-0.75-4.67-1.28-6.76-1.59
				C36.27,20.54,34.23,20.39,32.24,20.39z"/>
			<path class="st2" d="M56.99,72.8V12.14H68.1V72.8H56.99z"/>
			<path class="st2" d="M114.22,40.34c4.35,6.2,7.89,11.7,10.61,16.5h0.27c-0.36-7.89-0.54-13.63-0.54-17.23V12.14h11.11V72.8
				h-11.65l-19.77-27.93c-3.48-4.84-7.07-10.44-10.79-16.82h-0.27c0.36,7.44,0.54,13.19,0.54,17.28V72.8H82.61V12.14h11.65
				L114.22,40.34z"/>
			<path class="st2" d="M161.28,63.51h29.84v9.3h-40.94V12.14h39.31v9.3h-28.2v15.69h24.21v9.3h-24.21V63.51z"/>
		</g>
		<g>
			<path class="st2" d="M268.84,62.3c-5.41,7.59-10.81,11.86-15.18,11.86c-2.6,0-4.37-1.87-4.37-4.68c0-2.39,0.21-3.95,1.35-9.26
				c-7.07,10.4-11.65,13.73-18.72,13.73c-6.76,0-10.92-4.47-10.92-11.86c0-15.6,16.85-35.15,30.37-35.15c4.06,0,5.93,1.66,6.76,6.03
				l4.58-17.06c1.46-5.31,1.56-5.93,1.56-7.28c0-2.18-0.73-2.5-6.45-2.7V4.16c6.66-0.62,10.4-1.25,15.91-2.39l0.52,0.52
				c-5.3,20.8-7.49,29.12-10.3,38.69c-3.43,11.44-6.76,24.13-6.76,25.58c0,1.14,0.83,2.08,1.87,2.08c1.77,0,2.91-0.94,8.53-7.38
				L268.84,62.3z M251.37,29.33c-9.88,0-21.32,19.87-21.32,32.76c0,4.06,2.5,6.86,6.03,6.86c9.57,0,20.38-17.89,20.38-33.7
				C256.46,30.16,253.55,29.33,251.37,29.33z"/>
			<path class="st2" d="M306.28,62.72c-6.14,6.97-14.14,11.23-21.53,11.23c-8.11,0-13.73-5.82-13.73-14.25
				c0-15.6,16.33-32.76,31.3-32.76c5.2,0,8.32,2.7,8.32,7.07c0,8.94-11.03,16.85-26.62,19.03l-2.91,0.42
				c-0.83,3.33-1.04,4.89-1.04,6.45c0,5.62,3.85,9.36,9.78,9.36c4.47,0,7.7-1.66,15.18-7.8L306.28,62.72z M303.79,33.39
				c0-2.39-1.46-4.06-3.64-4.06c-5.31,0-13,8.01-16.54,17.26l-1.77,4.58C301.5,46.39,303.79,37.23,303.79,33.39z"/>
		</g>
		<g>
			<path class="st2" d="M371.76,20.39c-3.02,0-5.81,0.5-8.37,1.5c-2.55,1-4.74,2.45-6.57,4.35c-1.83,1.9-3.26,4.25-4.29,7.05
				c-1.03,2.8-1.54,5.99-1.54,9.59c0,3.57,0.47,6.7,1.41,9.41c0.94,2.7,2.28,4.96,4.04,6.78c1.75,1.81,3.89,3.18,6.41,4.1
				c2.52,0.92,5.39,1.38,8.59,1.38c2.3,0,4.64-0.18,7.03-0.54c2.39-0.36,4.62-0.89,6.71-1.59v9.57c-2.12,0.61-4.4,1.08-6.85,1.43
				c-2.45,0.35-4.99,0.52-7.62,0.52c-5.14,0-9.66-0.73-13.56-2.2c-3.9-1.47-7.16-3.54-9.77-6.21c-2.62-2.68-4.58-5.88-5.89-9.61
				c-1.32-3.73-1.97-7.85-1.97-12.36c0-4.62,0.7-8.92,2.11-12.88c1.41-3.96,3.43-7.39,6.08-10.29c2.65-2.9,5.96-5.18,9.93-6.85
				c3.97-1.66,8.47-2.51,13.49-2.54c2.57,0,5,0.17,7.3,0.52c2.3,0.35,4.37,0.84,6.21,1.47v9.43c-2.42-0.75-4.67-1.28-6.76-1.59
				C375.8,20.54,373.76,20.39,371.76,20.39z"/>
			<path class="st2" d="M407.63,37.12h28.11V12.14h11.11V72.8h-11.11V46.41h-28.11V72.8h-11.11V12.14h11.11V37.12z"/>
			<path class="st2" d="M472.47,63.51h29.83v9.3h-40.94V12.14h39.31v9.3h-28.2v15.69h24.21v9.3h-24.21V63.51z"/>
			<path class="st2" d="M525.2,72.8h-11.11V12.14h38.63v9.3H525.2v15.69h23.53v9.3H525.2V72.8z"/>
		</g>
		<g>
			<rect x="150.17" class="st2" width="39.31" height="3.54"/>
		</g>
	</g>
</g>
</svg>
