<?xml version="1.0" encoding="utf-8"?>
<!-- Generator: Adobe Illustrator 27.4.0, SVG Export Plug-In . SVG Version: 6.00 Build 0)  -->
<svg version="1.1" id="레이어_1" xmlns="http://www.w3.org/2000/svg" xmlns:xlink="http://www.w3.org/1999/xlink" x="0px"
	 y="0px" viewBox="0 0 396.95 63.23" style="enable-background:new 0 0 396.95 63.23;" xml:space="preserve">
<style type="text/css">
	.st0{fill:#FFFFFF;}
</style>
<g>
	<g>
		<path class="st0" d="M352.87,35.87c0.22,0.02,0.38,0.05,0.54,0.05c3.74,0,7.47,0.01,11.21-0.01c0.59,0,1.05,0.17,1.5,0.56
			c5.35,4.58,10.72,9.13,16.08,13.71c4.82,4.11,9.62,8.23,14.43,12.35c0.09,0.07,0.18,0.15,0.24,0.24c0.13,0.18,0.1,0.34-0.13,0.37
			c-0.25,0.04-0.51,0.05-0.77,0.05c-5.52,0.01-11.04,0.01-16.55,0.02c-3.08,0-6.16,0-9.24,0.01c-0.48,0-0.86-0.13-1.18-0.47
			c-2.28-2.32-4.57-4.65-6.86-6.96c-1.42-1.44-2.86-2.85-4.27-4.29c-2.67-2.7-5.32-5.42-7.99-8.12c-0.69-0.7-1.44-1.33-2.2-2.03
			c-0.03,0.03-0.15,0.14-0.27,0.25c-3.6,3.7-7.21,7.4-10.79,11.12c-0.43,0.45-0.89,0.63-1.5,0.63c-7.51-0.02-15.03-0.01-22.54-0.02
			c-0.4,0-0.8-0.02-1.2-0.04c-0.02-0.05-0.03-0.11-0.05-0.16c0.14-0.18,0.26-0.39,0.43-0.55c3.02-2.83,6.06-5.64,9.08-8.47
			c1.56-1.46,3.09-2.95,4.64-4.41c3.26-3.06,6.52-6.11,9.78-9.16c2.46-2.3,4.92-4.61,7.38-6.91c0.03-0.03,0.05-0.07,0.12-0.17
			c-0.19-0.01-0.33-0.04-0.47-0.04c-3.54,0-7.07-0.01-10.61,0c-0.5,0-0.91-0.13-1.27-0.48c-2.04-1.98-4.11-3.94-6.15-5.92
			c-2.63-2.56-5.25-5.13-7.87-7.7c-0.16-0.16-0.35-0.3-0.49-0.47c-0.12-0.15-0.19-0.35-0.32-0.62c0.79,0,1.46,0,2.12,0
			c5.29,0,10.58,0.01,15.87-0.01c0.52,0,0.89,0.18,1.26,0.51c2.88,2.57,5.76,5.12,8.65,7.68c1.19,1.06,2.38,2.12,3.56,3.19
			c0.22,0.2,0.37,0.28,0.63,0.03c3-2.83,6.02-5.64,9.02-8.47c3.78-3.56,7.55-7.13,11.32-10.7C368.34,0.15,368.7,0,369.16,0
			c5.75,0.01,11.49,0.01,17.24,0.01c0.33,0,0.67,0.06,1.14,0.1c-0.21,0.28-0.33,0.48-0.48,0.64c-1.61,1.65-3.22,3.3-4.83,4.95
			c-4.29,4.4-8.58,8.8-12.87,13.2c-2.44,2.51-4.88,5.01-7.33,7.52c-1.58,1.62-3.17,3.23-4.75,4.85c-1.42,1.46-2.82,2.92-4.23,4.38
			C352.99,35.7,352.96,35.76,352.87,35.87z"/>
		<path class="st0" d="M277.23,29.6c0-4.58,0-9.17,0-13.75c0-1.27,0.56-2.17,1.6-2.49c0.4-0.12,0.84-0.15,1.26-0.16
			c3.89-0.01,7.78-0.01,11.68,0c1.98,0.01,3.97-0.05,5.94,0.11c6.35,0.5,11.09,3.53,13.94,9.25c1.45,2.9,1.91,6.02,1.45,9.24
			c-0.72,5.03-3.3,8.88-7.55,11.66c-2.12,1.38-4.45,2.09-6.92,2.35c-1.53,0.16-3.07,0.22-4.6,0.23c-4.69,0.03-9.38,0.01-14.07,0.02
			c-1.08,0-2-0.3-2.46-1.34c-0.2-0.46-0.25-1.02-0.25-1.53c-0.02-4.46-0.01-8.91-0.01-13.37C277.24,29.74,277.24,29.67,277.23,29.6
			C277.23,29.6,277.23,29.6,277.23,29.6z M285.44,29.7c0,0-0.01,0-0.01,0c0,0.21,0,0.43,0,0.64c0,2.5,0.01,4.99,0.02,7.49
			c0,0.59,0.3,0.88,0.89,0.92c0.09,0.01,0.17,0.01,0.26,0.01c3.26,0,6.53,0.06,9.79-0.02c3.22-0.08,5.88-1.39,7.68-4.13
			c1.86-2.83,2.15-5.88,0.61-8.89c-1.6-3.13-4.32-4.86-7.85-5c-3.46-0.13-6.92-0.05-10.39-0.04c-0.75,0-0.99,0.25-0.99,1.02
			C285.43,24.36,285.44,27.03,285.44,29.7z"/>
		<path class="st0" d="M270.56,33.4c0,6.25,0,12.49,0,18.74c0,0.59,0,0.59-0.57,0.59c-2.39,0-4.79,0-7.18,0.01
			c-0.36,0-0.45-0.11-0.45-0.46c0.01-2.24-0.01-4.49,0.01-6.73c0-0.42-0.13-0.51-0.53-0.51c-8.71,0.01-17.42,0.01-26.13,0.01
			c-0.84,0-0.89-0.06-0.89-0.9c0.01-2.3,0.03-4.6,0.01-6.9c-0.01-0.94,0.37-1.61,1.12-2.16c5.59-4.07,11.16-8.16,16.75-12.24
			c4.64-3.39,9.29-6.77,13.94-10.14c1.14-0.83,2.48-0.69,3.38,0.33c0.44,0.5,0.55,1.1,0.55,1.74c0,5.54,0,11.07,0,16.61
			C270.56,32.07,270.56,32.74,270.56,33.4z M254.34,37.82C254.34,37.82,254.34,37.82,254.34,37.82c2.58,0,5.16-0.01,7.74,0.01
			c0.36,0,0.45-0.11,0.45-0.46c-0.01-3.58-0.01-7.15-0.01-10.73c0-0.21-0.01-0.43-0.04-0.64c-0.09-0.64-0.55-0.86-1.1-0.5
			c-0.56,0.36-1.11,0.74-1.66,1.13c-3.74,2.69-7.48,5.39-11.21,8.09c-0.87,0.62-1.74,1.24-2.58,1.9c-0.17,0.13-0.3,0.45-0.26,0.64
			c0.04,0.19,0.3,0.38,0.51,0.47c0.21,0.09,0.47,0.07,0.72,0.07C249.37,37.82,251.85,37.82,254.34,37.82z"/>
	</g>
	<g>
		<path class="st0" d="M31.21,5.99h10.68V38.8c0,3.69-0.88,6.91-2.63,9.67c-1.75,2.76-4.2,4.91-7.34,6.45
			c-3.14,1.54-6.8,2.31-10.98,2.31c-4.19,0-7.86-0.77-11-2.31c-3.14-1.54-5.58-3.69-7.33-6.45C0.87,45.71,0,42.49,0,38.8V5.99h10.68
			v31.9c0,1.92,0.42,3.64,1.27,5.13c0.85,1.5,2.04,2.67,3.59,3.53c1.55,0.86,3.35,1.28,5.4,1.28c2.07,0,3.88-0.43,5.42-1.28
			c1.54-0.85,2.73-2.03,3.58-3.53c0.85-1.5,1.27-3.21,1.27-5.13V5.99z"/>
		<path class="st0" d="M50.68,56.52V5.99h10.68v41.72h21.66v8.81H50.68z"/>
		<path class="st0" d="M81.89,14.8V5.99h41.5v8.81h-15.47v41.72H97.36V14.8H81.89z"/>
		<path class="st0" d="M130.25,56.52V5.99h19.94c3.82,0,7.08,0.68,9.78,2.04c2.71,1.36,4.77,3.27,6.19,5.75
			c1.42,2.48,2.13,5.38,2.13,8.72c0,3.36-0.72,6.24-2.17,8.65s-3.54,4.26-6.28,5.54c-2.74,1.28-6.05,1.92-9.93,1.92h-13.35v-8.59
			h11.62c2.04,0,3.73-0.28,5.08-0.84c1.35-0.56,2.36-1.4,3.02-2.52c0.67-1.12,1-2.51,1-4.17c0-1.68-0.33-3.09-1-4.24
			c-0.67-1.15-1.68-2.03-3.03-2.63c-1.36-0.6-3.06-0.9-5.12-0.9h-7.2v41.8H130.25z M157.53,33.52l12.56,23H158.3l-12.29-23H157.53z"
			/>
		<path class="st0" d="M184.55,56.52H173.1l17.44-50.53h13.77l17.42,50.53h-11.45l-12.66-38.98h-0.39L184.55,56.52z M183.84,36.66
			h27.04V45h-27.04V36.66z"/>
	</g>
</g>
</svg>
