<?xml version="1.0" encoding="utf-8"?>
<!-- Generator: Adobe Illustrator 27.4.0, SVG Export Plug-In . SVG Version: 6.00 Build 0)  -->
<svg version="1.1" id="레이어_1" xmlns="http://www.w3.org/2000/svg" xmlns:xlink="http://www.w3.org/1999/xlink" x="0px"
	 y="0px" viewBox="0 0 331.54 93.98" style="enable-background:new 0 0 331.54 93.98;" xml:space="preserve">
<style type="text/css">
	.st0{fill:#FFFFFF;}
</style>
<g>
	<path class="st0" d="M19.87,0v93.98H0V0H19.87z"/>
	<path class="st0" d="M36.25,0h24.5l25.88,63.14h1.1L113.62,0h24.5v93.98h-19.27V32.81h-0.78L93.75,93.52H80.62L56.3,32.58h-0.78
		v61.4H36.25V0z"/>
	<path class="st0" d="M170.66,93.98h-21.29L181.81,0h25.61l32.4,93.98h-21.29l-23.54-72.5h-0.73L170.66,93.98z M169.32,57.04h50.29
		v15.51h-50.29V57.04z"/>
	<path class="st0" d="M269.73,0l18.95,32.03h0.73L308.46,0h22.44l-28.68,46.99l29.32,46.99h-22.85L289.41,61.9h-0.73l-19.27,32.08
		h-22.76l29.41-46.99L247.2,0H269.73z"/>
</g>
</svg>
