<?xml version="1.0" encoding="utf-8"?>
<!-- Generator: Adobe Illustrator 27.4.0, SVG Export Plug-In . SVG Version: 6.00 Build 0)  -->
<svg version="1.1" id="레이어_1" xmlns="http://www.w3.org/2000/svg" xmlns:xlink="http://www.w3.org/1999/xlink" x="0px"
	 y="0px" viewBox="0 0 220.89 47.08" style="enable-background:new 0 0 220.89 47.08;" xml:space="preserve">
<style type="text/css">
	.st0{fill:#FFFFFF;}
</style>
<g>
	<g>
		<path class="st0" d="M29.54,15.02c-3.26-0.08-4.89-0.12-8.15-0.2c-0.48-3.84-2.77-6.27-6.54-6.45c-3.68-0.17-5.72,1.63-5.72,4.38
			c0,3.42,2.73,4.69,9.62,6.57c8.14,2.22,10.92,7.09,10.92,13.52c0,8.23-6.37,13.62-14.25,14.18C6.71,47.66,0.35,41.93,0,31.89
			c3.24-0.09,4.86-0.14,8.1-0.22c0.43,4.37,3.38,7.14,7.88,6.93c3.21-0.15,5.59-2.25,5.59-5.1c0-3.51-2.38-4.85-8.66-6.27
			C5.24,25.49,1.08,21.27,1.08,12.46C1.08,4,7.4-0.53,15.38,0.05C23.26,0.62,29.15,6.84,29.54,15.02z"/>
		<path class="st0" d="M62.7,11.47c-4.6-0.1-6.89-0.15-11.49-0.27c0,10.91,0,21.82,0,32.73c-3.16,0.14-4.73,0.21-7.89,0.36
			c0-11.1,0-22.21,0-33.31c-4.59-0.13-6.89-0.21-11.48-0.37c0-3.38,0-5.06,0-8.44c10.28,0.6,20.57,1.07,30.86,1.41
			C62.7,6.74,62.7,8.32,62.7,11.47z"/>
		<path class="st0" d="M83.47,35.42c-5.48,0.07-8.22,0.11-13.7,0.2c-0.99,3.08-1.48,4.62-2.47,7.72c-3.26,0.1-4.89,0.16-8.15,0.28
			c4.5-13.26,9.05-26.51,13.7-39.72c3.28,0.09,4.92,0.13,8.2,0.2c4.52,12.9,9.09,25.79,13.7,38.66c-3.52,0.04-5.28,0.07-8.8,0.13
			C84.96,39.9,84.46,38.41,83.47,35.42z M81.04,27.91c-1.77-5.41-2.65-8.13-4.42-13.6c-1.77,5.43-2.65,8.15-4.42,13.65
			C75.74,27.93,77.51,27.92,81.04,27.91z"/>
		<path class="st0" d="M119.34,42.7c-2.74-4.85-4.11-7.26-6.85-12.09c-2.52,0-3.77,0-6.29,0c0,4.83,0,7.24,0,12.07
			c-3.16,0.01-4.74,0.02-7.89,0.05c0-12.79,0-25.58,0-38.36c5.69,0.05,8.53,0.06,14.22,0.05c8.98-0.01,14.22,5.1,14.22,13.07
			c0,5.28-2.3,9.34-6.46,11.45c3.28,5.52,4.92,8.28,8.2,13.86C124.83,42.74,123,42.72,119.34,42.7z M106.2,23.05
			c2.39,0,3.59,0,5.98,0c4.16,0,6.68-1.93,6.68-5.55c0-3.62-2.52-5.53-6.68-5.53c-2.39,0-3.59,0-5.98,0
			C106.2,16.4,106.2,18.62,106.2,23.05z"/>
		<path class="st0" d="M140.02,4.1c0,12.96,0,25.93,0,38.89c-3.16-0.07-4.74-0.1-7.89-0.15c0-12.87,0-25.73,0-38.6
			C135.29,4.19,136.87,4.16,140.02,4.1z"/>
		<path class="st0" d="M145.83,3.96c3.16-0.08,4.74-0.13,7.89-0.22c0,8.83,0,13.24,0,22.07c0,6.32,3.12,10.61,8.28,10.73
			c5.16,0.12,8.28-4.14,8.28-10.66c0-9.1,0-13.65,0-22.75c3.16-0.14,4.73-0.21,7.89-0.36c0,9.26,0,13.89,0,23.16
			c0.35,9.61-5.69,19.19-16.17,18.7c-9.64-0.45-16.17-7.74-16.17-18.84C145.83,17.05,145.83,12.69,145.83,3.96z"/>
		<path class="st0" d="M183.98,2.46c2.51-0.13,3.77-0.2,6.28-0.35c4.87,9.31,7.31,14.1,12.18,24.07c4.2-8.49,8.26-17.07,12.17-25.69
			c2.51-0.19,3.77-0.29,6.28-0.49c0,15.69,0,31.38,0,47.07c-3.15-0.25-4.73-0.37-7.88-0.61c0-10.06,0-15.09,0-25.15
			c-3.27,7.07-4.91,10.51-8.19,17.22c-1.91-0.09-2.86-0.13-4.77-0.21c-3.28-6.91-4.91-10.28-8.19-16.87c0,9.44,0,14.17,0,23.61
			c-3.15-0.19-4.73-0.27-7.89-0.44C183.98,30.57,183.98,16.51,183.98,2.46z"/>
	</g>
</g>
</svg>
